<mxfile modified="2021-03-10T09:21:05.956Z" host="app.diagrams.net" agent="5.0 (Macintosh; Intel Mac OS X 11_2_1) AppleWebKit/537.36 (KHTML, like Gecko) Chrome/88.0.4324.192 Safari/537.36" etag="nSxGRS6jn-X8CLsjEzy1" version="14.4.4" type="github" pages="2">
  <diagram id="WI9T0HZ2pTsCkuznbFz-" name="抽数引擎架构图">
    <mxGraphModel dx="2682" dy="1666" grid="1" gridSize="10" guides="1" tooltips="1" connect="1" arrows="1" fold="1" page="1" pageScale="1" pageWidth="1169" pageHeight="827" math="0" shadow="0">
      <root>
        <mxCell id="0" />
        <mxCell id="1" parent="0" />
        <mxCell id="Xi6bH_yzBcoCQl9ouXm8-10" style="edgeStyle=orthogonalEdgeStyle;rounded=0;orthogonalLoop=1;jettySize=auto;html=1;entryX=0.75;entryY=1;entryDx=0;entryDy=0;" parent="1" source="Xi6bH_yzBcoCQl9ouXm8-5" target="n0bJvDlAcugo_qtZuH2x-11" edge="1">
          <mxGeometry relative="1" as="geometry" />
        </mxCell>
        <mxCell id="Xi6bH_yzBcoCQl9ouXm8-5" value="" style="strokeWidth=1;shadow=0;dashed=0;align=center;html=1;shape=mxgraph.mockup.text.textBox;align=left;fontSize=17;spacingLeft=4;spacingTop=-3;mainText=;verticalAlign=middle;" parent="1" vertex="1">
          <mxGeometry x="1400" y="220" width="250" height="450" as="geometry" />
        </mxCell>
        <mxCell id="n0bJvDlAcugo_qtZuH2x-127" value="" style="strokeWidth=1;shadow=0;dashed=0;align=center;html=1;shape=mxgraph.mockup.text.textBox;align=left;fontSize=17;spacingLeft=4;spacingTop=-3;mainText=;verticalAlign=middle;" parent="1" vertex="1">
          <mxGeometry x="1400" y="-300" width="250" height="450" as="geometry" />
        </mxCell>
        <mxCell id="n0bJvDlAcugo_qtZuH2x-39" value="" style="strokeWidth=1;shadow=0;dashed=0;align=center;html=1;shape=mxgraph.mockup.text.textBox;align=left;fontSize=17;spacingLeft=4;spacingTop=-3;mainText=;verticalAlign=middle;" parent="1" vertex="1">
          <mxGeometry x="790.25" y="760" width="670" height="210" as="geometry" />
        </mxCell>
        <mxCell id="n0bJvDlAcugo_qtZuH2x-21" value="" style="strokeWidth=1;shadow=0;dashed=0;align=center;html=1;shape=mxgraph.mockup.text.textBox;align=left;fontSize=17;spacingLeft=4;spacingTop=-3;strokeColor=#d6b656;mainText=;verticalAlign=middle;fillColor=#fff2cc;" parent="1" vertex="1">
          <mxGeometry x="-49.75" y="-170" width="1260" height="130" as="geometry" />
        </mxCell>
        <mxCell id="n0bJvDlAcugo_qtZuH2x-3" value="" style="shape=image;verticalLabelPosition=bottom;labelBackgroundColor=#ffffff;verticalAlign=top;aspect=fixed;imageAspect=0;image=https://d3dr9sfxru4sde.cloudfront.net/i/k/apachekudu_logo_0716_345px.png;" parent="1" vertex="1">
          <mxGeometry x="1120.25" y="787" width="63.73" height="46" as="geometry" />
        </mxCell>
        <object label="" id="n0bJvDlAcugo_qtZuH2x-1">
          <mxCell style="shape=image;verticalLabelPosition=bottom;labelBackgroundColor=#ffffff;verticalAlign=top;aspect=fixed;imageAspect=0;image=data:image/svg+xml,PHN2ZyB4bWxuczpkYz0iaHR0cDovL3B1cmwub3JnL2RjL2VsZW1lbnRzLzEuMS8iIHhtbG5zOmNjPSJodHRwOi8vY3JlYXRpdmVjb21tb25zLm9yZy9ucyMiIHhtbG5zOnJkZj0iaHR0cDovL3d3dy53My5vcmcvMTk5OS8wMi8yMi1yZGYtc3ludGF4LW5zIyIgeG1sbnM6c3ZnPSJodHRwOi8vd3d3LnczLm9yZy8yMDAwL3N2ZyIgeG1sbnM9Imh0dHA6Ly93d3cudzMub3JnLzIwMDAvc3ZnIiB4bWxuczpzb2RpcG9kaT0iaHR0cDovL3NvZGlwb2RpLnNvdXJjZWZvcmdlLm5ldC9EVEQvc29kaXBvZGktMC5kdGQiIHhtbG5zOmlua3NjYXBlPSJodHRwOi8vd3d3Lmlua3NjYXBlLm9yZy9uYW1lc3BhY2VzL2lua3NjYXBlIiB2ZXJzaW9uPSIxLjEiIGlkPSJzdmc4MDY5OSIgaW5rc2NhcGU6dmVyc2lvbj0iMC45Mi4zICgyNDA1NTQ2LCAyMDE4LTAzLTExKSIgc29kaXBvZGk6ZG9jbmFtZT0iaGRpbnNpZ2h0X2hhZG9vcC5zdmciIHg9IjBweCIgeT0iMHB4IiB2aWV3Qm94PSIwIDAgOTUuNDcgNzMuNzU0MzQxIiB4bWw6c3BhY2U9InByZXNlcnZlIiB3aWR0aD0iOTUuNDcwMDAxIiBoZWlnaHQ9IjczLjc1NDM0MSI+PG1ldGFkYXRhIGlkPSJtZXRhZGF0YTE2OTYiPjxyZGY6UkRGPjxjYzpXb3JrIHJkZjphYm91dD0iIj48ZGM6Zm9ybWF0PmltYWdlL3N2Zyt4bWw8L2RjOmZvcm1hdD48ZGM6dHlwZSByZGY6cmVzb3VyY2U9Imh0dHA6Ly9wdXJsLm9yZy9kYy9kY21pdHlwZS9TdGlsbEltYWdlIi8+PGRjOnRpdGxlLz48L2NjOldvcms+PC9yZGY6UkRGPjwvbWV0YWRhdGE+PGRlZnMgaWQ9ImRlZnMxNjk0Ii8+JiN4YTs8ZmlsdGVyIGlkPSJmaWx0ZXJfMiI+JiN4YTsJPGZlR2F1c3NpYW5CbHVyIGlkPSJmZUdhdXNzaWFuQmx1cjgwNjA4IiBzdGREZXZpYXRpb249IjIiLz4mI3hhOzwvZmlsdGVyPiYjeGE7PHNvZGlwb2RpOm5hbWVkdmlldyBib3JkZXJjb2xvcj0iIzY2NjY2NiIgYm9yZGVyb3BhY2l0eT0iMSIgZml0LW1hcmdpbi1ib3R0b209IjAiIGZpdC1tYXJnaW4tbGVmdD0iMCIgZml0LW1hcmdpbi1yaWdodD0iMCIgZml0LW1hcmdpbi10b3A9IjAiIGdyaWR0b2xlcmFuY2U9IjEwIiBndWlkZXRvbGVyYW5jZT0iMTAiIGlkPSJuYW1lZHZpZXc4MDcwMSIgaW5rc2NhcGU6Y3VycmVudC1sYXllcj0ic3ZnODA2OTkiIGlua3NjYXBlOmN4PSIxOC4xNzAzMTgiIGlua3NjYXBlOmN5PSIzMy42OTMzNzciIGlua3NjYXBlOnBhZ2VvcGFjaXR5PSIwIiBpbmtzY2FwZTpwYWdlc2hhZG93PSIyIiBpbmtzY2FwZTp3aW5kb3ctaGVpZ2h0PSIxMDE3IiBpbmtzY2FwZTp3aW5kb3ctbWF4aW1pemVkPSIxIiBpbmtzY2FwZTp3aW5kb3ctd2lkdGg9IjE5MjAiIGlua3NjYXBlOndpbmRvdy14PSItOCIgaW5rc2NhcGU6d2luZG93LXk9Ii04IiBpbmtzY2FwZTp6b29tPSI2LjYxOTg4OTQiIG9iamVjdHRvbGVyYW5jZT0iMTAiIHBhZ2Vjb2xvcj0iI2ZmZmZmZiIgc2hvd2dyaWQ9ImZhbHNlIj4mI3hhOwk8L3NvZGlwb2RpOm5hbWVkdmlldz4mI3hhOyYjeGE7PHBhdGggaWQ9InBhdGg4MDYyMSIgaW5rc2NhcGU6Y29ubmVjdG9yLWN1cnZhdHVyZT0iMCIgc3R5bGU9ImZpbGw6I2ZjZDExNiIgZD0ibSAzMi43MSwxNi4xOTM5NjkgLTYuNjYsMS4xNCAtNS44OSwyLjY2IC01LjE0LDMuMjQgLTQuOTQsNS44OSAtMi42NiwyLjg2IC0yLjY3LDAuOTUgLTAuNzYsLTEuNzEgMS4zMywtMS43MiAwLjE5LC0yLjQ3IGggMC45NiBsIDAuNzYsMC43NiAtMC4xOSwtMi40NyAtMC45NiwtMC43NiB2IC0wLjk1IGwgLTIuMjgsMS4zMyAtMi4yOCwyLjQ3IC0wLjM4LDIuMjggMC45NSwxLjkxIDAuNzYsMy4wNCAxLjcxLDAuNzYgaCAxLjkxIGwgMS43MSwtMS4xNCAtMS4xNCw1Ljg5IDEuMTQsNi40NyAtMS4zMywzLjA0IC00LDQuMzggMC41NywyLjg1IDIuMDksMy4wNCAzLjYyLDIuNDggMi4wOSwwLjM4IGggMi4wOSBsIC0xLjMzLDUuNyA0Ljk1LDIuMDkgNi4yNywwLjc3IDIuMDksLTEuNTMgMC4xOSwtMy42MSAyLjQ4LC0zLjk5IDAuMTksLTMuMjQgNS43LDAuNTcgNS4zMywtMC41NyAtNS4zMywzLjI0IDAuOTUsMy44IDMuMjQsNS4zMyAzLjQyLDEuMzMgMi40NywtMC45NSAxLjE0LC0yLjI5IDUuNTIsLTQuMTggMS4xNCwwLjk1IDguNTYsMC4zOCAxLjcxLC0xLjUyIDAuMTksLTIuNDcgLTAuNTcsLTAuOTUgLTAuMzgsLTYuNjYgLTIuODUsLTUuNzEgMC4zOCwtMi42NiAxLjcxLDAuOTUgNC45NCw0LjU3IDIuMjksMC4xOSAyLjY2LC0xLjE0IDIuNjYsLTEuOTEgMS4zMywtNC4zNyA3LjYxLDAuNTcgNC43NSwtMS45IDMuODEsLTMuNDMgMi42NiwtNS4xMyAwLjc2LC02LjA5IC0wLjU3LC02Ljg0IC0xLjUyLC02LjI4IC0xLjUyLC0yLjA5IC0yLjA5LC0wLjU3IC0zLjYyLDMuOTkgLTMuMjMsMS4xNCAtMi44NSwtNC43NSAtMi44NiwtMi42NiAtMS43MSwtMC45NTAwMDA0IC02LjA4LC01LjMzIC01LjE0LC0yLjY2IC00Ljk0LC0wLjM4IC01LjksMC45NSAtNS4xNCwxLjkgLTMuNDIsMi44NSAtMi44NSwzLjQzMDAwMDQgLTIuODUsMC43NiB6Ii8+JiN4YTsmI3hhOzxwYXRoIGlkPSJwYXRoODA2MjkiIGlua3NjYXBlOmNvbm5lY3Rvci1jdXJ2YXR1cmU9IjAiIHN0eWxlPSJmaWxsOiMxZTFlMWUiIGQ9Im0gNy4wNCwyOS4xMzM5NjkgMC43NiwwLjk1IDAuMTksLTEuMTQgSCA3LjQyIFoiLz4mI3hhOyYjeGE7PHBhdGggaWQ9InBhdGg4MDYzNyIgaW5rc2NhcGU6Y29ubmVjdG9yLWN1cnZhdHVyZT0iMCIgc3R5bGU9ImZpbGw6IzFlMWUxZSIgZD0ibSA5NC41MiwyMS43MTM5NjkgYyAtMC4zOCwtMi44NiAtMS4xNCwtNS43MSAtMi4yOCwtNy42MSAtMC4xOSwtMC4xOSAtMC4zOCwtMC41NyAtMC41NywtMC43NiAtMC41NywtMC41NyAtMS4zMywtMC45NSAtMi4wOSwtMS4zMyAtMC43NiwtMC4zOCAtMS43MSwtMC4zOCAtMi40NywwIC0wLjE5LDAuMTkgLTAuMzksMC4xOSAtMC41OCwwLjM4IC0wLjM4LDAuMzggLTAuNzYsMC45NSAtMS4xNCwxLjUyIC0wLjM4LDAuNTcgLTAuOTUsMS4zMyAtMS4zMywxLjcxIC0wLjU3LDAuNTcgLTEuMzMsMC43NiAtMi4wOSwxLjE0IC0wLjM4LC0wLjc2IC0wLjU3LC0xLjUyIC0xLjE0LC0yLjA5IC0wLjU3LC0wLjc2IC0wLjk1LC0xLjUyIC0xLjcxLC0yLjI4IC0wLjU3LC0wLjU3IC0wLjk1LC0wLjk1IC0xLjUyLC0xLjUzIC0wLjU3LC0wLjM4IC0xLjE1LC0wLjc2IC0xLjcyLC0xLjE0MDAwMDQgLTEuNzEsLTEuMTQgLTMuMDQsLTIuMjggLTQuNTYsLTMuNjEgLTAuNTcsLTAuNTcgLTEuMzMsLTEuMTQgLTEuOSwtMS43MSAtMy40MywtMi44NSAtNi42NiwtNC4xOTAwMDAwMSAtMTAuMDgsLTQuMzgwMDAwMDEgLTMuNDMsLTAuMTkgLTcuMDQsMC43NiAtMTEuNDEsMi40ODAwMDAwMSAtMi4xLDAuOTUgLTMuNjIsMS45IC00Ljk1LDMuMDQgLTEuMzMsMS4xNCAtMi4yOCwyLjQ3IC0zLjYxLDQuMTggLTAuNzYsMCAtMS4zMywwLjE5IC0xLjksMC4zODAwMDA0IC0wLjc2LDAuMTkgLTEuMzMsMC43NiAtMi4yOSwxLjUzIC0wLjU3LDAuNTcgLTEuMTQsMS4xNCAtMS43MSwxLjUyIC0wLjU3LDAuNTcgLTAuOTUsMC45NSAtMS41MiwxLjUyIC0zLjk5LDAuNTcgLTcuMDQsMS4zMyAtOS44OSwyLjQ3IC0yLjg1LDEuMTQgLTUuNTEsMi42NiAtOC4xOCw0Ljk1IC0xLjE0LDAuOTUgLTIuMDksMS45IC0yLjg1LDMuMDQgLTAuNzYsMS4xNCAtMS41MiwyLjA5IC0yLjA5LDMuMjMgLTAuNTcsMC41NyAtMS4xNCwxLjE0IC0xLjcxLDEuNzEgLTAuNTcsMC41NyAtMS4xNCwwLjk1IC0xLjksMS4xNCAtMC4zOSwwLjE5IC0wLjU4LDAuMTkgLTAuNTgsMC4xOSB2IC0wLjE5IGMgMC45NiwtMC45NSAxLjE1LC0yLjI4IDEuMTUsLTMuNjEgMC4xOSwwLjE5IDAuMTksMC4zOCAwLjM4LDAuNTcgMC4xOSwwLjE5IDAuMTksMC4zOCAwLjM4LDAuNTcgbCAwLjM4LC0wLjM4IDAuNTcsMC4xOSBjIDAuMTksLTAuOTUgMC4zOCwtMS45IDAuMTksLTMuMDQgLTAuMTksLTAuNTcgLTAuMzgsLTEuMTQgLTAuOTUsLTEuNTIgMCwtMC4xOSAwLjE5LC0wLjE5IDAuMTksLTAuMzggMC4xOSwtMC4zOCAwLjM4LC0wLjc2IDAuMzgsLTEuMzMgbCAtMC4zOCwtMC4xOSAwLjM4LDAuMTkgMC41NywtMC4zOCAtMC43NiwwLjE5IGMgLTEuMTQsMC4xOSAtMy40MywxLjUyIC01LjE0LDMuMjMgLTAuNTcsMC41NyAtMS4xNCwxLjMzIC0xLjUyLDIuMDkgLTAuNTcsMC45NSAtMC41NywxLjcxIC0wLjU3LDIuNDcgMC4xOSwwLjc2IDAuNTcsMS4zMyAxLjE0LDIuMSAwLjE5LDAuNTcgMC4xOSwwLjk1IDAuMzgsMS4zMyAwLjE5LDAuMzggMC4zOCwwLjc2IDAuMzgsMS4xNCAwLjU3LDAuOTUgMS4zMywxLjcxIDIuMDksMS45IDAuNzYsMC4xOSAxLjUzLDAuMTkgMi4yOSwwIC0wLjE5LDAuOTUgLTAuMTksMS45IC0wLjM4LDIuODUgMCwxLjMzIDAsMi44NiAwLjE5LDQuNTcgMCwwLjM4IDAsMC43NiAwLjE5LDEuMTQgMCwwLjM4IDAuMTksMC43NiAwLjE5LDEuMTQgLTAuMTksMC4zOCAtMC4zOCwwLjc2IC0wLjM4LDEuMTQgLTAuMTksMC41NyAtMC4zOCwxLjMzIC0wLjc2LDEuOSAtMC41OCwwLjU3IC0wLjk2LDAuOTUgLTEuNTMsMS41MiAtMC4zOCwwLjM4IC0wLjk1LDAuOTUgLTEuMzMsMS4zMyAwLDAgLTAuMTksMC4yIC0wLjM4LDAuMzkgLTAuOTUsMC45NSAtMS4xNCwxLjE0IC0wLjk1LDIuNjYgMC4xOSwwLjk1IDAuNTcsMS45IDAuOTUsMy4wNCAwLjM4LDAuOTUgMS4xNCwxLjcxIDEuOSwyLjY2IDEuMzQsMS4xNCAzLjA1LDIuMjkgNC43NiwzLjA1IDAuOTUsMC4zOCAyLjA5LDAuNTcgMy4wNCwwLjM4IDAsMC4xOSAwLDAuMzggLTAuMTksMC4zOCAtMC4xOSwwLjM4IC0wLjM4LDAuNzYgLTAuNTcsMS4zMyAtMS4xNCwyLjY2IDAsMy45OSAxLjksNC43NSAwLjk1LDAuMzggMi4wOSwwLjc2IDMuMDUsMC45NSAwLjE5LDAgMC4zOCwwLjE5IDAuNzYsMC4xOSAxLjE0LDAuMzggMy40MiwwLjk2IDUuMzIsMS4xNSAyLjA5LDAuMTkgNCwtMC4zOCA0LjU3LC0yLjI5IDAuMTksLTAuNzYgMC4zOCwtMS4zMyAwLjM4LC0xLjkgMCwtMC41NyAwLC0xLjE0IDAsLTEuNzEgMC41NywtMS4zMyAwLjk1LC0xLjcxIDEuMzMsLTIuMjggMCwtMC4xOSAwLjE5LC0wLjE5IDAuMTksLTAuMzggMC4zOCwtMC43NiAwLjc2LC0xLjE0IDAuNzYsLTEuNzEgMCwtMC41OCAwLC0xLjE1IDAsLTEuOTEgMCwwIDAsLTAuMTkgMCwtMC4zOCAxLjE0LDAuMTkgMi40NywwLjE5IDMuNjEsMC4xOSAwLjU3LDAgMS4xNCwwIDEuOSwwIC0wLjE5LDAgLTAuMzgsMC4xOSAtMC41NywwLjE5IDAsMCAtMC4xOSwwIC0wLjE5LDAuMTkgLTEuNzEsMC43NiAtMS43MSwyLjQ4IC0xLjE0LDQgMC4zOCwxLjUyIDEuMzMsMy4wNCAyLjA5LDMuOCAxLjM0LDEuOSAyLjQ4LDMuNjEgMy44MSw0LjM4IDEuNTIsMC45NSAzLjIzLDAuOTUgNS41MSwtMC4xOSAxLjE0LC0wLjU4IDEuNTIsLTEuMzQgMS45MSwtMi4xIDAuMTksLTAuMTkgMC4zOCwtMC41NyAwLjU3LC0wLjc2IDAuMzgsLTAuMzggMS41MiwtMS4zMyAyLjg1LC0yLjI4IDAuMzgsLTAuMzggMC43NiwtMC41NyAxLjMzLC0wLjk1IDAuMzgsMC4xOSAwLjU3LDAuMzggMS4xNCwwLjU3IDAuNTcsMC4xOSAxLjMzLDAuMTkgMi4wOSwwLjE5IDAuNTcsMCAyLjY3LDAgNCwwIDAuMzgsMCAwLjc2LDAgMC45NSwwIDEuMzMsMCAyLjQ3LDAgMy4yMywtMC41NyAwLjk1LC0wLjU3IDEuMzMsLTEuMzMgMS41MiwtMi44NSAwLC0wLjc2IDAsLTEuMTQgMCwtMS41MiAwLC0wLjM4IC0wLjE5LC0wLjc3IC0wLjU3LC0xLjM0IDAsLTAuNzYgMCwtMS4zMyAwLC0yLjA5IDAsLTAuNzYgMCwtMS41MiAwLC0yLjA5IDAsLTAuNzYgLTAuMTksLTEuNTIgLTAuMzgsLTIuMjggLTAuMTksLTAuNzYgLTAuMzgsLTEuMzMgLTAuNzYsLTIuMDkgLTAuMTksLTAuNTcgLTAuMzgsLTAuOTYgLTAuNTcsLTEuNTMgbCAtMC4zOCwwLjE5IDAuMzgsLTAuMTkgYyAtMC4xOSwtMC43NiAtMC41NywtMS41MiAtMC45NSwtMi4yOCAwLC0wLjE5IDAsLTAuMzggMCwtMC41NyAwLjE5LDAuMTkgMC41NywwLjU3IDAuNzYsMC43NiBsIDEuMTQsMS4xNCBjIDAuNzYsMC43NiAxLjUyLDEuNTIgMi40NywyLjEgMC45NSwwLjU3IDEuOTEsMC45NSAzLjI0LDAuNzYgMS4zMywwIDIuODUsLTAuNTcgNC4xOCwtMS41MyAxLjE0LC0wLjk1IDIuMDksLTIuMDkgMi42NiwtMy40MiAwLjE5LC0wLjM4IDAuMTksLTAuNzYgMC4zOCwtMS4xNCAwLC0wLjM4IDAuMTksLTAuNTcgMC4xOSwtMC45NSAxLjkxLDAuMzggNC4xOSwwLjM4IDYuMDksMC4xOSAxLjksLTAuMTkgMy45OSwtMC43NiA1LjUyLC0xLjUyIDIuNDcsLTEuMzMgNC4xOCwtMy4yNCA1LjUxLC01LjUyIDEuNTIsLTIuNDcgMi4yOCwtNS41MSAyLjY2LC04LjU2IC0wLjE5LC0yLjI4IC0wLjM4LC01LjcgLTAuOTUsLTguOTMgeiBtIC0yOC41MywyMy4wMSBjIC0wLjU3LDEuOSAtMS41Miw1LjEzIDEuMTUsNS43IDAuOTUsMC4xOSAxLjUyLDAuMTkgMi44NSwtMC41NyAtMS4xNCwwLjE5IC0xLjcxLDAuMTkgLTIuNDcsMCAtMC43NiwtMC4xOSAtMS4xNCwtMC41NyAtMS4zNCwtMS4xNCAwLjIsMC4xOSAwLjU4LDAuMTkgMS4zNCwwLjM4IDEuOSwwLjM4IDMuOCwtMC4zOCA0LjE4LC0xLjkgMC4xOSwtMC43NiAwLjE5LC0xLjE0IDAuNTcsLTIuMjggMC4zOCwwLjE5IDAuNzYsMC4xOSAxLjMzLDAuMzggLTAuMTksMC43NiAtMC41NywxLjUyIC0wLjc2LDIuNDcgLTAuNTcsMi4wOSAtMy4wNCwzLjggLTUuMzIsMy42MSAtMi4xLDAgLTMuMjQsLTEuMzMgLTQuNzYsLTIuNDcgLTAuOTUsLTAuNzYgLTEuOSwtMS43MSAtMi44NSwtMi40NyAtMi40NywtMC43NiAtNC41NywtMS43MSAtNi44NSwtMy40MiAxLjcxLDEuOSAyLjg1LDMuMDQgNS4xNCwzLjk5IC0wLjM4LDMuNDIgLTEuNTIsNS45IC0yLjQ4LDkuMTMgLTAuMzgsMS41MiAtMy45OSw3LjQyIC01LjEzLDcuOTkgLTAuNzYsMC4zOCAtNS4xNCw0LjE4IC02LjA5LDQuNzUgLTAuNTcsMC43NiAtMS4xNCwxLjkgLTIuMDksMi40NyAtMi44NSwxLjUzIC00Ljc1LC0xLjMzIC02LjI3LC0zLjggLTAuNzcsLTEuMTQgLTIuNjcsLTQuMzcgLTAuOTYsLTUuMzIgMS41MywtMC43NyAyLjQ4LC0xLjUzIDQuMTksLTIuNDggMC4xOSwwLjM4IDAuNTcsMC45NSAwLjk1LDEuMzMgMCwtMC41NyAtMC4xOSwtMC45NSAtMC4xOSwtMS41MiAtMC4xOSwtMC45NSAtMC4xOSwtMS41MiAwLC0yLjQ3IDAsLTAuNzYgMC4xOSwtMS43MSAwLjE5LC0yLjQ3IC0wLjE5LDAuOTUgLTAuNzYsMS43MSAtMC45NSwyLjY2IC0wLjE5LDAuMzggLTAuMTksMC41NyAtMC4xOSwwLjk1IC0zLjYyLDAuNzYgLTcuNDIsMC43NiAtMTEuMDMsMC4xOSAtMC4xOSwtMS4zMyAtMC41NywtMi44NSAtMC43NiwtMy44IDAsMS4xNCAwLDQuMzcgMCw2LjA4IDAsMS4zMyAwLDEuOTEgLTAuNzYsMy4wNSAtMC41NywxLjE0IC0wLjk1LDEuMzMgLTEuOTEsMy4yMyAwLDEuMTQgMCwxLjkgLTAuMTksMy4wNCAtMC41NywxLjkgLTUuNywwLjM4IC03LjAzLDAgLTEuNzEsLTAuMzggLTUuMTQsLTEuMTQgLTQuMzgsLTMuNDIgMC43NiwtMS45IDEuMzMsLTMuOTkgMS43MSwtNi44NSAtMy4wNCwtNC4zNyAtNS44OSwtMTAuNDYgLTYuNDYsLTE1Ljk3IC0wLjM4LC00LjE5IC0wLjE5LC02Ljg1IDAuNzYsLTkuMzIgMS41MiwtNCAzLjQyLC03LjYxIDYuNjYsLTEwLjQ2IDQuMzcsLTMuODEgOC4zNiwtNS4zMyAxNC44MywtNi4yOCAtMS41MiwxLjcxIC0zLjA0LDMuNjEgLTQuNzUsNS41MiAtMS43MiwxLjkgLTIuNjcsMy45OSAtMy44MSw2LjA4IC0xLjUyLDMuMDUgLTEuNTIsNC4xOSAwLjU3LDYuNjYgMS43MSwyLjI4IDIuNjYsMy4yMyAzLjI0LDUuNTEgLTAuNTgsMS4zNCAtMC43NywyLjI5IC0wLjk2LDQgMi4xLDIuMjggMy42MiwzLjggNS41Miw0LjE4IDEuOSwwLjM4IDMuNjEsMC4zOCA1LjMzLC0wLjU3IDMuOCwtMS45IDcuNDEsLTQuNTYgMTEuNzksLTQuNzUgMi4wOSwtNC45NSAxLjksLTkuMTMgMC43NiwtMTQuMDggLTAuNTcsLTMuMjMgLTAuOTUsLTYuNDYgLTEuMTQsLTkuNyAtMC43NiwzLjQzIC0wLjk1LDYuNDcgLTAuMzgsOS44OSAwLjc2LDQuMTkgMS4zMyw4Ljc1IC0wLjc2LDEyLjM3IC00LDAuMzggLTcuNDIsMi42NiAtMTEuMDQsNC41NiAtMS41MiwwLjc2IC0yLjg1LDAuNzYgLTQuNTYsMC4zOCAtMS4xNCwtMC4xOSAtMi4wOSwtMS4xNCAtMy44LC0zLjA0IDAsLTEuOSAwLjM4LC0yLjY2IDEuMTQsLTQuMzggMS4zMywtMi42NiAyLjg1LC01LjEzIDQuNTYsLTcuNzkgLTEuOSwyLjQ3IC0zLjgsNC41NiAtNS4zMiw2Ljg0IC0wLjU3LC0xLjcxIC0xLjUzLC0yLjY2IC0yLjg2LC00LjU2IC0xLjMzLC0xLjkgLTEuNTIsLTIuNjYgLTAuNTcsLTQuOTUgMS4xNCwtMi4yOCAxLjksLTQuMTggMy44MSwtNi4wOCAzLjA0LC0zLjQzIDUuODksLTcuMDQgOS4zMiwtMTAuNDYgMS45LC0xLjcxIDIuNjYsLTEuNzEgNC45NCwtMi4wOSAyLjI4LC0wLjM5IDQuMzgsLTAuNzcgNi42NiwtMS4zNDAwMDA0IC0yLjI4LDAuMzgwMDAwNCAtNC4zOCwwLjU3MDAwMDQgLTYuNDcsMC41NzAwMDA0IHYgMCBjIDIuMDksLTIuNjYwMDAwNCAzLjIzLC00LjE4MDAwMDQgNi42NiwtNS43MDAwMDA0IDguMzcsLTMuNjEgMTMuNjksLTQuMDAwMDAwMDEgMjAuMTYsMS41MiAxLjcxLDEuNTIgMy4yMywyLjg1IDQuOTQsMy45OTAwMDA0IC0wLjU3LDAgLTEuMTQsMC4xOSAtMS45LDAuMzggMC45NSwtMC4xOSAxLjksMCAyLjg1LDAuMTkgMC4xOSwwLjE5IDAuNTcsMC4zOSAwLjc2LDAuNTggMS4xNCwwLjc2IDEuOTEsMS4xNCAyLjY3LDIuMjggMC45NSwxLjE0IDEuNTIsMi40NyAyLjI4LDMuOCAtMC4zOCwtMC4xOSAtMC43NiwtMC4xOSAtMS4xNCwtMC4zOCAtMC4xOSwtMC4xOSAtMC41NywtMC4xOSAtMC43NiwtMC4xOSAtMC41NywwIC0wLjk1LDAgLTEuNTIsMC4zOCB2IDAgYyAtMC43NywwLjM4IC0xLjcyLDAuNzYgLTIuNDgsMC43NiAwLjM4LDAuMTkgMS4xNCwwLjE5IDEuNTIsMCBoIDAuMTkgYyAtMC4xOSwwLjE5IC0wLjE5LDAuNTcgLTAuMzgsMC45NSAwLDAuMzggMCwwLjk1IDAuMTksMS4zMyB2IDAgYyAwLDAuMTkgMC4xOSwwLjE5IDAuMTksMC4zOCAtMC4zOCwwLjE5IC0wLjU3LDAuMTkgLTAuOTUsMC4zOCAxLjUzLC0wLjE5IDMuMDUsLTAuMTkgNC41NywwIDAuMTksMC41OCAwLjE5LDAuOTYgMC4zOCwxLjUzIC0wLjE5LDAgLTAuMzgsMCAtMC41NywwIHYgMCBjIC0wLjc2LC0wLjU3IC0xLjUyLC0wLjU3IC0yLjY2LC0wLjE5IC0zLjI0LDAuNzYgLTIuNDgsMi42NiAtNCw1LjUxIDEuNTIsLTEuOSAxLjUyLC0zLjk5IDQsLTQuNTYgMC41NywtMC4xOSAwLjk1LC0wLjM4IDEuMzMsLTAuMTkgLTAuNzYsMC4zOCAtMS4zMywwLjk1IC0xLjcyLDEuNzEgLTAuNzYsMi4wOSAtMC4xOSwzLjYxIC0xLjE0LDUuNTEgMC45NSwtMS43MSAwLjk1LC0zLjIzIDEuOTEsLTUuMTMgMC4zOCwtMC41NyAxLjUyLC0xLjcxIDIuMDksLTEuNzEgMC4xOSwwIDAuMzgsMCAwLjU3LDAgMC4xOSwxLjE0IDAuMTksMi4yOCAwLjE5LDMuMDQgLTAuMTksMS43MSAtMC41Nyw0LjE4IC0wLjc2LDUuMTQgMC45NSwtMS4xNSAxLjMzLC0zLjQzIDEuNzEsLTUuMTQgMC4zOCwtMS43MSAwLjM4LC0zLjggMCwtNS43MSAtMC41NywtMi42NiAyLjA5LC0yLjA5IDMuNjEsLTMuNDIgMS4xNCwtMC45NSAxLjksLTIuMjggMi44NiwtMy4yMyAwLjk1LC0wLjk1IDIuNjYsMC4zOCAzLjA0LDEuNTIgMS43MSw0LjE4IDIuNDcsMTAuODQgMi4wOSwxNS4yMSAtMC41Nyw0Ljc2IC0yLjg1LDEwLjA4IC03LjA0LDEyLjM3IC01LjMyLDMuMDQgLTExLjc5LDEuMTQgLTE3LjExLC0wLjU3IC0xLjE0LC0wLjM4IC0xLjksLTAuOTUgLTIuODYsLTEuNTMgMC41NywwLjk2IDAuNzcsMi4yOSAwLjM4LDMuNDMgeiBtIC00Ljc1LDE5LjIxIGMgLTAuMTksMS45IC0wLjc2LDIuMDkgLTIuNjYsMi4wOSAtMC43NiwwIC00LDAgLTQuNzYsLTAuMTkgLTEuMTQsLTAuMTkgLTEuNzEsLTAuMTkgLTIuMDksLTAuMzggMS43MSwtMS4zMyA0Ljc2LC02LjY2IDUuMzMsLTguNTYgMC41NywtMS45IDEuMzMsLTMuNjEgMS43MSwtNS41MiAwLjE5LDAuNzcgMC4zOCwxLjUzIDAuNzYsMi4yOSAwLjU3LDEuMzMgMC43NiwyLjA5IDAuOTUsMy42MSAwLDEuNTIgMCwzLjA0IDAuMTksNC41NiAwLjU3LDAuOTYgMC41NywxLjE1IDAuNTcsMi4xIHogbSAtNTUuNTMsLTM5LjU2IGMgLTAuMzgsMC41NyAtMC41NywxLjE0IC0wLjU3LDEuNTIgLTAuNTgsMi4wOSAwLjE5LDMuOTkgLTEuNzIsNS41MSAwLjk1LDEuNzIgMC43NiwyLjQ4IDIuODYsMS43MiAwLjc2LC0wLjM4IDEuNTIsLTAuNzYgMi4wOSwtMS4zMyAtMC4xOSwwLjc2IC0wLjU3LDEuNTIgLTAuNzYsMi4yOCAwLDAuMTkgMCwwLjE5IC0wLjE5LDAuMzggLTEuNTIsMC41NyAtMy40MywwLjk1IC00LjE5LC0wLjU3IC0wLjM4LC0wLjc2IC0wLjU3LC0xLjUyIC0wLjc2LC0yLjQ4IC0yLjQ3LC0yLjQ3IDEuMTQsLTUuODkgMy4yNCwtNy4wMyB6IG0gMC4xOSwyLjI4IGMgMCwtMC4xOSAwLC0wLjU3IDAuMTksLTAuNzYgMCwtMC4xOSAwLC0wLjE5IDAuMTksLTAuMzggMC41NywwLjM4IDAuNTcsMC43NiAwLjc2LDEuNTIgLTAuMzgsLTAuMzggLTAuNzYsLTAuNTcgLTEuMTQsLTAuMzggeiBtIDEuOSwyMi4yNSBjIDEuMTQsMy44MSAzLjA0LDcuOCA1LjEzLDExLjAzIHYgMCBjIC0wLjE5LDAuNTcgLTAuMzgsMS4xNCAtMC41NywxLjUyIC0xLjUyLDIuMSAtNS4zMiwtMC45NSAtNi40NiwtMi4wOSAtMS4zNCwtMS4zMyAtMi4xLC0yLjg1IC0yLjI5LC00LjE4IC0wLjE5LC0wLjk1IDAsLTAuOTUgMC43NiwtMS43MSAwLjk2LC0wLjk1IDEuOTEsLTEuOTEgMi44NiwtMi44NiAwLjE5LC0wLjU3IDAuMzgsLTEuMTQgMC41NywtMS43MSB6IG0gNzIuNDYsLTMxLjM4IGMgMCwwLjE5IDAuMTksMC4zOCAwLjE5LDAuNTcgbCAtMC4xOSwwLjE5IGMgLTAuMTksLTAuMTkgLTAuMzgsLTAuNTcgLTAuNTcsLTAuNzYgMC4xOSwwIDAuMzgsMCAwLjU3LDAgeiIvPiYjeGE7JiN4YTs8cGF0aCBpZD0icGF0aDgwNjQ1IiBpbmtzY2FwZTpjb25uZWN0b3ItY3VydmF0dXJlPSIwIiBzdHlsZT0iZmlsbDojMWUxZTFlIiBkPSJtIDg1LjAxLDE5LjgxMzk2OSBjIDIuNjcsLTAuOTUgNCwtMy4wNSA0LjU3LC01LjcxIC0xLjE0LDIuMDkgLTIuNjYsMy45OSAtNC45NSw0Ljk1IC0xLjE0LDAuNTcgLTEuOSwwLjM4IC0zLjIzLDAuMTkgMS4zMywwLjU3IDIuMjgsMC45NSAzLjYxLDAuNTcgeiIvPiYjeGE7JiN4YTs8cGF0aCBpZD0icGF0aDgwNjUzIiBpbmtzY2FwZTpjb25uZWN0b3ItY3VydmF0dXJlPSIwIiBzdHlsZT0iZmlsbDojMWUxZTFlIiBkPSJtIDY5LjgsMjIuNDczOTY5IGMgLTAuNzYsMCAtMS43MSwwLjE5IC0yLjg1LDAuMzggMCwtMC4zOCAtMC4xOSwtMC41NyAtMC4xOSwtMC45NSAtMC4zOCwtMC43NiAtMC45NSwtMS4zMyAtMS43MSwtMS41MiAwLjU3LC0wLjM4IDEuMzMsLTAuNzYgMS45LC0xLjE0IC0xLjUyLDAuNzYgLTMuMjMsMC41NyAtNC41NywxLjMzIC0xLjE0LDAuNzYgLTIuNjYsMy4yMyAtMy44LDQuMTggMC43NiwtMC4zOCAxLjUyLC0wLjk1IDIuMjgsLTEuNTIgMCwwLjM4IDAuMTksMC45NSAwLjM4LDEuMzMgMC4zOCwwLjU3IDAuNzYsMS4xNCAxLjMzLDEuMzMgLTAuMzgsMC41OCAtMC43NiwxLjE1IC0wLjk1LDEuOTEgMi4xLC0yLjQ4IDUuMTQsLTQuNTcgOC4xOCwtNS4zMyB6Ii8+JiN4YTsmI3hhOzxwYXRoIGlkPSJwYXRoODA2NjEiIGlua3NjYXBlOmNvbm5lY3Rvci1jdXJ2YXR1cmU9IjAiIHN0eWxlPSJmaWxsOiMxZTFlMWUiIGQ9Im0gNTYuMSwxOS42MjM5NjkgYyAwLjU3LC0yLjI5IDEuMzMsLTQuMzggNC43NiwtNS45IC00LjU3LDEuMTQgLTUuMzMsMy4wNCAtNC43Niw1LjkgeiIvPiYjeGE7JiN4YTs8cGF0aCBpZD0icGF0aDgwNjY5IiBpbmtzY2FwZTpjb25uZWN0b3ItY3VydmF0dXJlPSIwIiBzdHlsZT0iZmlsbDojMWUxZTFlIiBkPSJtIDYzLjUyLDQxLjI5Mzk2OSBjIC0wLjE5LDAuNTggLTAuMTksMS41MyAtMC4zOCwyLjEgMC4xOSwtMC43NiAwLjU3LC0xLjcyIDAuOTUsLTIuMjkgMC4zOCwtMC43NiAwLjU3LC0wLjc2IDEuMzMsLTEuMTQgMC41NywtMC4xOSAxLjUyLC0wLjc2IDEuOSwtMC45NSAtMC41NywwIC0xLjUyLDAuMzggLTIuMDksMC4zOCAtMS4zMywwLjE5IC0xLjUyLDAuNTcgLTEuNzEsMS45IHoiLz4mI3hhOyYjeGE7PHBhdGggaWQ9InBhdGg4MDY3NyIgaW5rc2NhcGU6Y29ubmVjdG9yLWN1cnZhdHVyZT0iMCIgc3R5bGU9ImZpbGw6IzFlMWUxZSIgZD0ibSAzOS4xNywxNS42MzM5NjkgYyAtMS43MSwxLjcxIC0zLjIzLDcuMjIgLTMuOCw5LjUxIDAuNzYsLTEuOTEgMi44NSwtNy4wNCA0LjM3LC04LjM3IDAuMzgsLTAuMzggMC43NywtMC41NyAxLjE1LC0wLjc2IC0xLjE1LDEuOSAtMC45NiwyLjI4IC0wLjU4LDQuNzUgMC4zOSwtMi40NyAxLjE1LC0zLjYxIDIuNjcsLTUuNTEgMS41MiwtMC4zOCAzLjA0LC0wLjk1IDQuNzUsLTEuNTIgLTEuOSwwLjE5IC0zLjYxLDAuMzggLTUuNTEsMC41NyAtMS43MSwwLjM4IC0yLjEsMC4zOCAtMy4wNSwxLjMzIHoiLz4mI3hhOyYjeGE7PHBhdGggaWQ9InBhdGg4MDY4NSIgaW5rc2NhcGU6Y29ubmVjdG9yLWN1cnZhdHVyZT0iMCIgc3R5bGU9ImZpbGw6I2ZmZmFjYiIgZD0ibSA2MS44MSwyNS4zMzM5NjkgYyAtMC4zOCwtMC41NyAwLC0xLjM0IDAuNTcsLTEuNzIgMC41NywtMC4zOCAxLjMzLDAgMS43MSwwLjU3IHYgMC4yIGMgLTAuNTcsMC4zOCAtMS4xNCwwLjk1IC0xLjcxLDEuNTIgLTAuMTksMCAtMC41NywtMC4xOSAtMC41NywtMC41NyB6Ii8+JiN4YTsmI3hhOzxwYXRoIGlkPSJwYXRoODA2OTMiIGlua3NjYXBlOmNvbm5lY3Rvci1jdXJ2YXR1cmU9IjAiIHN0eWxlPSJmaWxsOiNmZmZhY2IiIGQ9Im0gNzUuODgsMTkuODEzOTY5IGMgMCwtMC41NyAwLjU3LC0wLjk2IDAuOTUsLTAuOTYgMC41NywwIDAuOTUsMC41OCAwLjk1LDAuOTYgMCwwLjE5IDAsMC4xOSAwLDAuMzggLTAuNTcsMCAtMC45NSwwLjE5IC0xLjUyLDAuMzggLTAuMTksMCAtMC4zOCwtMC4zOCAtMC4zOCwtMC43NiB6Ii8+JiN4YTs8L3N2Zz4=;" parent="1" vertex="1">
            <mxGeometry x="914" y="-134" width="47.5" height="37" as="geometry" />
          </mxCell>
        </object>
        <mxCell id="n0bJvDlAcugo_qtZuH2x-102" style="edgeStyle=orthogonalEdgeStyle;rounded=0;orthogonalLoop=1;jettySize=auto;html=1;entryX=0.322;entryY=1.026;entryDx=0;entryDy=0;entryPerimeter=0;fontFamily=Helvetica;fontColor=#FF0000;" parent="1" source="n0bJvDlAcugo_qtZuH2x-6" target="n0bJvDlAcugo_qtZuH2x-21" edge="1">
          <mxGeometry relative="1" as="geometry">
            <Array as="points">
              <mxPoint x="50" y="275" />
              <mxPoint x="50" y="80" />
              <mxPoint x="356" y="80" />
            </Array>
          </mxGeometry>
        </mxCell>
        <mxCell id="n0bJvDlAcugo_qtZuH2x-115" style="edgeStyle=orthogonalEdgeStyle;rounded=0;orthogonalLoop=1;jettySize=auto;html=1;entryX=0;entryY=0.5;entryDx=0;entryDy=0;fontFamily=Helvetica;fontColor=#FF0000;" parent="1" source="n0bJvDlAcugo_qtZuH2x-6" target="n0bJvDlAcugo_qtZuH2x-11" edge="1">
          <mxGeometry relative="1" as="geometry">
            <Array as="points">
              <mxPoint x="620" y="275" />
              <mxPoint x="620" y="265" />
            </Array>
          </mxGeometry>
        </mxCell>
        <mxCell id="n0bJvDlAcugo_qtZuH2x-6" value="" style="shape=image;verticalLabelPosition=bottom;labelBackgroundColor=#ffffff;verticalAlign=top;aspect=fixed;imageAspect=0;image=http://tomcat.apache.org/res/images/tomcat.png;fontFamily=Helvetica;fontStyle=2" parent="1" vertex="1">
          <mxGeometry x="110.87" y="245" width="84.13" height="60" as="geometry" />
        </mxCell>
        <mxCell id="n0bJvDlAcugo_qtZuH2x-9" value="&lt;h1&gt;thoth web服务&lt;/h1&gt;&lt;div&gt;&amp;nbsp; &amp;nbsp;负责发布flink任务，维护flink任务配置、debezium配置、catalog配置等，面向用户的web后端接口服务层&lt;/div&gt;" style="text;html=1;strokeColor=none;fillColor=none;spacing=5;spacingTop=-20;whiteSpace=wrap;overflow=hidden;rounded=0;fontFamily=Helvetica;" parent="1" vertex="1">
          <mxGeometry x="74.5" y="125" width="190" height="120" as="geometry" />
        </mxCell>
        <mxCell id="n0bJvDlAcugo_qtZuH2x-85" style="edgeStyle=orthogonalEdgeStyle;rounded=0;orthogonalLoop=1;jettySize=auto;html=1;entryX=0.702;entryY=-0.009;entryDx=0;entryDy=0;entryPerimeter=0;fontFamily=Helvetica;fontColor=#FF0000;" parent="1" source="n0bJvDlAcugo_qtZuH2x-11" target="n0bJvDlAcugo_qtZuH2x-66" edge="1">
          <mxGeometry relative="1" as="geometry">
            <Array as="points">
              <mxPoint x="670" y="490" />
              <mxPoint x="461" y="490" />
            </Array>
          </mxGeometry>
        </mxCell>
        <mxCell id="n0bJvDlAcugo_qtZuH2x-86" style="edgeStyle=orthogonalEdgeStyle;rounded=0;orthogonalLoop=1;jettySize=auto;html=1;entryX=0.461;entryY=-0.007;entryDx=0;entryDy=0;entryPerimeter=0;fontFamily=Helvetica;fontColor=#FF0000;" parent="1" source="n0bJvDlAcugo_qtZuH2x-11" target="n0bJvDlAcugo_qtZuH2x-39" edge="1">
          <mxGeometry relative="1" as="geometry">
            <Array as="points">
              <mxPoint x="670" y="490" />
              <mxPoint x="1099" y="490" />
            </Array>
          </mxGeometry>
        </mxCell>
        <mxCell id="n0bJvDlAcugo_qtZuH2x-119" style="edgeStyle=orthogonalEdgeStyle;rounded=0;orthogonalLoop=1;jettySize=auto;html=1;entryX=1.002;entryY=0.454;entryDx=0;entryDy=0;entryPerimeter=0;fontFamily=Helvetica;fontColor=#FF0000;" parent="1" source="n0bJvDlAcugo_qtZuH2x-11" target="n0bJvDlAcugo_qtZuH2x-104" edge="1">
          <mxGeometry relative="1" as="geometry">
            <Array as="points">
              <mxPoint x="640" y="265" />
              <mxPoint x="640" y="400" />
              <mxPoint x="402" y="400" />
              <mxPoint x="402" y="582" />
            </Array>
          </mxGeometry>
        </mxCell>
        <mxCell id="n0bJvDlAcugo_qtZuH2x-11" value="" style="shape=image;verticalLabelPosition=bottom;labelBackgroundColor=#ffffff;verticalAlign=top;aspect=fixed;imageAspect=0;image=https://ci.apache.org/projects/flink/flink-docs-release-1.11/page/img/navbar-brand-logo.jpg;" parent="1" vertex="1">
          <mxGeometry x="644.75" y="235" width="116.5" height="60" as="geometry" />
        </mxCell>
        <mxCell id="n0bJvDlAcugo_qtZuH2x-90" style="edgeStyle=orthogonalEdgeStyle;rounded=0;orthogonalLoop=1;jettySize=auto;html=1;fontFamily=Helvetica;fontColor=#FF0000;entryX=0.68;entryY=1.023;entryDx=0;entryDy=0;entryPerimeter=0;" parent="1" source="n0bJvDlAcugo_qtZuH2x-11" target="n0bJvDlAcugo_qtZuH2x-21" edge="1">
          <mxGeometry relative="1" as="geometry">
            <mxPoint x="600" y="-30" as="targetPoint" />
            <Array as="points">
              <mxPoint x="703" y="170" />
              <mxPoint x="807" y="170" />
            </Array>
          </mxGeometry>
        </mxCell>
        <mxCell id="n0bJvDlAcugo_qtZuH2x-13" value="&lt;h1&gt;tiantong计算引擎&lt;/h1&gt;&lt;div&gt;&amp;nbsp; 负责将thoth用户提交的任务配置(DDL、SQL等)转换为Flink Job并运行。&lt;/div&gt;" style="text;html=1;strokeColor=none;fillColor=none;spacing=5;spacingTop=-20;whiteSpace=wrap;overflow=hidden;rounded=0;fontFamily=Helvetica;" parent="1" vertex="1">
          <mxGeometry x="515.25" y="100" width="190" height="120" as="geometry" />
        </mxCell>
        <mxCell id="n0bJvDlAcugo_qtZuH2x-15" value="flink通用conf目录，其中包含rocksdb版本和filesystem版" style="text;html=1;strokeColor=none;fillColor=none;align=center;verticalAlign=middle;whiteSpace=wrap;rounded=0;fontFamily=Helvetica;fontStyle=1;fontColor=#FF0000;" parent="1" vertex="1">
          <mxGeometry x="395.25" y="-92" width="120" height="10" as="geometry" />
        </mxCell>
        <mxCell id="n0bJvDlAcugo_qtZuH2x-16" value="" style="shape=image;html=1;verticalAlign=top;verticalLabelPosition=bottom;labelBackgroundColor=#ffffff;imageAspect=0;aspect=fixed;image=https://cdn2.iconfinder.com/data/icons/gnomeicontheme/16x16/stock/io/stock_up-one-dir.png;fontFamily=Helvetica;fontColor=#FF0000;" parent="1" vertex="1">
          <mxGeometry x="442.32" y="-131.5" width="16" height="16" as="geometry" />
        </mxCell>
        <mxCell id="n0bJvDlAcugo_qtZuH2x-19" value="通用配置层" style="text;strokeColor=none;fillColor=none;html=1;fontSize=24;fontStyle=1;verticalAlign=middle;align=center;" parent="1" vertex="1">
          <mxGeometry x="-29.75" y="-125" width="100" height="40" as="geometry" />
        </mxCell>
        <mxCell id="n0bJvDlAcugo_qtZuH2x-22" value="HDFS" style="text;html=1;strokeColor=none;fillColor=none;align=center;verticalAlign=middle;whiteSpace=wrap;rounded=0;fontFamily=Helvetica;fontStyle=1;fontColor=#FF0000;" parent="1" vertex="1">
          <mxGeometry x="877.75" y="-77" width="120" height="10" as="geometry" />
        </mxCell>
        <mxCell id="n0bJvDlAcugo_qtZuH2x-26" value="&lt;font style=&quot;font-size: 11px&quot; color=&quot;#000000&quot;&gt;HDFS主要存储tiangong计算引擎所需的flink lib，以及部署所需的yarn-dist包，并且包含tiangong计算引擎包&lt;/font&gt;" style="html=1;shadow=0;dashed=0;shape=mxgraph.bootstrap.rrect;rSize=5;strokeColor=#999999;strokeWidth=1;fillColor=#FFFFFF;fontColor=#6C767D;whiteSpace=wrap;align=left;verticalAlign=middle;spacingLeft=10;fontSize=14;spacing=10;" parent="1" vertex="1">
          <mxGeometry x="993.48" y="-154" width="200.5" height="87" as="geometry" />
        </mxCell>
        <mxCell id="n0bJvDlAcugo_qtZuH2x-36" style="edgeStyle=orthogonalEdgeStyle;rounded=0;orthogonalLoop=1;jettySize=auto;html=1;entryX=0;entryY=0.75;entryDx=0;entryDy=0;fontFamily=Helvetica;fontColor=#FF0000;" parent="1" source="n0bJvDlAcugo_qtZuH2x-33" target="n0bJvDlAcugo_qtZuH2x-6" edge="1">
          <mxGeometry relative="1" as="geometry" />
        </mxCell>
        <mxCell id="n0bJvDlAcugo_qtZuH2x-33" value="" style="outlineConnect=0;fontColor=#232F3E;gradientColor=none;fillColor=#232F3E;strokeColor=none;dashed=0;verticalLabelPosition=bottom;verticalAlign=top;align=center;html=1;fontSize=12;fontStyle=0;aspect=fixed;pointerEvents=1;shape=mxgraph.aws4.user;" parent="1" vertex="1">
          <mxGeometry x="-260" y="247" width="78" height="78" as="geometry" />
        </mxCell>
        <mxCell id="n0bJvDlAcugo_qtZuH2x-34" value="数据开发/数据仓库开发/分析师等" style="text;html=1;strokeColor=none;fillColor=none;align=center;verticalAlign=middle;whiteSpace=wrap;rounded=0;fontFamily=Helvetica;fontColor=#FF0000;" parent="1" vertex="1">
          <mxGeometry x="-271.5" y="370" width="101" height="10" as="geometry" />
        </mxCell>
        <mxCell id="n0bJvDlAcugo_qtZuH2x-37" value="" style="pointerEvents=1;shadow=0;dashed=0;html=1;strokeColor=none;fillColor=#505050;labelPosition=center;verticalLabelPosition=bottom;outlineConnect=0;verticalAlign=top;align=center;shape=mxgraph.office.clouds.cloud_service_request;fontFamily=Helvetica;fontColor=#FF0000;" parent="1" vertex="1">
          <mxGeometry x="-90.75" y="235" width="50" height="35" as="geometry" />
        </mxCell>
        <mxCell id="n0bJvDlAcugo_qtZuH2x-38" value="提交一个抽数任务请求，eg:source kafka，sink kudu" style="text;html=1;strokeColor=none;fillColor=none;align=center;verticalAlign=middle;whiteSpace=wrap;rounded=0;fontFamily=Helvetica;fontColor=#FF0000;" parent="1" vertex="1">
          <mxGeometry x="-90.75" y="315" width="101" height="10" as="geometry" />
        </mxCell>
        <object label="" id="n0bJvDlAcugo_qtZuH2x-40">
          <mxCell style="shape=image;verticalLabelPosition=bottom;labelBackgroundColor=#ffffff;verticalAlign=top;aspect=fixed;imageAspect=0;image=data:image/svg+xml,PHN2ZyB4bWxuczpkYz0iaHR0cDovL3B1cmwub3JnL2RjL2VsZW1lbnRzLzEuMS8iIHhtbG5zOmNjPSJodHRwOi8vY3JlYXRpdmVjb21tb25zLm9yZy9ucyMiIHhtbG5zOnJkZj0iaHR0cDovL3d3dy53My5vcmcvMTk5OS8wMi8yMi1yZGYtc3ludGF4LW5zIyIgeG1sbnM6c3ZnPSJodHRwOi8vd3d3LnczLm9yZy8yMDAwL3N2ZyIgeG1sbnM9Imh0dHA6Ly93d3cudzMub3JnLzIwMDAvc3ZnIiB4bWxuczpzb2RpcG9kaT0iaHR0cDovL3NvZGlwb2RpLnNvdXJjZWZvcmdlLm5ldC9EVEQvc29kaXBvZGktMC5kdGQiIHhtbG5zOmlua3NjYXBlPSJodHRwOi8vd3d3Lmlua3NjYXBlLm9yZy9uYW1lc3BhY2VzL2lua3NjYXBlIiB2ZXJzaW9uPSIxLjEiIGlkPSJzdmc4MDY5OSIgaW5rc2NhcGU6dmVyc2lvbj0iMC45Mi4zICgyNDA1NTQ2LCAyMDE4LTAzLTExKSIgc29kaXBvZGk6ZG9jbmFtZT0iaGRpbnNpZ2h0X2hhZG9vcC5zdmciIHg9IjBweCIgeT0iMHB4IiB2aWV3Qm94PSIwIDAgOTUuNDcgNzMuNzU0MzQxIiB4bWw6c3BhY2U9InByZXNlcnZlIiB3aWR0aD0iOTUuNDcwMDAxIiBoZWlnaHQ9IjczLjc1NDM0MSI+PG1ldGFkYXRhIGlkPSJtZXRhZGF0YTE2OTYiPjxyZGY6UkRGPjxjYzpXb3JrIHJkZjphYm91dD0iIj48ZGM6Zm9ybWF0PmltYWdlL3N2Zyt4bWw8L2RjOmZvcm1hdD48ZGM6dHlwZSByZGY6cmVzb3VyY2U9Imh0dHA6Ly9wdXJsLm9yZy9kYy9kY21pdHlwZS9TdGlsbEltYWdlIi8+PGRjOnRpdGxlLz48L2NjOldvcms+PC9yZGY6UkRGPjwvbWV0YWRhdGE+PGRlZnMgaWQ9ImRlZnMxNjk0Ii8+JiN4YTs8ZmlsdGVyIGlkPSJmaWx0ZXJfMiI+JiN4YTsJPGZlR2F1c3NpYW5CbHVyIGlkPSJmZUdhdXNzaWFuQmx1cjgwNjA4IiBzdGREZXZpYXRpb249IjIiLz4mI3hhOzwvZmlsdGVyPiYjeGE7PHNvZGlwb2RpOm5hbWVkdmlldyBib3JkZXJjb2xvcj0iIzY2NjY2NiIgYm9yZGVyb3BhY2l0eT0iMSIgZml0LW1hcmdpbi1ib3R0b209IjAiIGZpdC1tYXJnaW4tbGVmdD0iMCIgZml0LW1hcmdpbi1yaWdodD0iMCIgZml0LW1hcmdpbi10b3A9IjAiIGdyaWR0b2xlcmFuY2U9IjEwIiBndWlkZXRvbGVyYW5jZT0iMTAiIGlkPSJuYW1lZHZpZXc4MDcwMSIgaW5rc2NhcGU6Y3VycmVudC1sYXllcj0ic3ZnODA2OTkiIGlua3NjYXBlOmN4PSIxOC4xNzAzMTgiIGlua3NjYXBlOmN5PSIzMy42OTMzNzciIGlua3NjYXBlOnBhZ2VvcGFjaXR5PSIwIiBpbmtzY2FwZTpwYWdlc2hhZG93PSIyIiBpbmtzY2FwZTp3aW5kb3ctaGVpZ2h0PSIxMDE3IiBpbmtzY2FwZTp3aW5kb3ctbWF4aW1pemVkPSIxIiBpbmtzY2FwZTp3aW5kb3ctd2lkdGg9IjE5MjAiIGlua3NjYXBlOndpbmRvdy14PSItOCIgaW5rc2NhcGU6d2luZG93LXk9Ii04IiBpbmtzY2FwZTp6b29tPSI2LjYxOTg4OTQiIG9iamVjdHRvbGVyYW5jZT0iMTAiIHBhZ2Vjb2xvcj0iI2ZmZmZmZiIgc2hvd2dyaWQ9ImZhbHNlIj4mI3hhOwk8L3NvZGlwb2RpOm5hbWVkdmlldz4mI3hhOyYjeGE7PHBhdGggaWQ9InBhdGg4MDYyMSIgaW5rc2NhcGU6Y29ubmVjdG9yLWN1cnZhdHVyZT0iMCIgc3R5bGU9ImZpbGw6I2ZjZDExNiIgZD0ibSAzMi43MSwxNi4xOTM5NjkgLTYuNjYsMS4xNCAtNS44OSwyLjY2IC01LjE0LDMuMjQgLTQuOTQsNS44OSAtMi42NiwyLjg2IC0yLjY3LDAuOTUgLTAuNzYsLTEuNzEgMS4zMywtMS43MiAwLjE5LC0yLjQ3IGggMC45NiBsIDAuNzYsMC43NiAtMC4xOSwtMi40NyAtMC45NiwtMC43NiB2IC0wLjk1IGwgLTIuMjgsMS4zMyAtMi4yOCwyLjQ3IC0wLjM4LDIuMjggMC45NSwxLjkxIDAuNzYsMy4wNCAxLjcxLDAuNzYgaCAxLjkxIGwgMS43MSwtMS4xNCAtMS4xNCw1Ljg5IDEuMTQsNi40NyAtMS4zMywzLjA0IC00LDQuMzggMC41NywyLjg1IDIuMDksMy4wNCAzLjYyLDIuNDggMi4wOSwwLjM4IGggMi4wOSBsIC0xLjMzLDUuNyA0Ljk1LDIuMDkgNi4yNywwLjc3IDIuMDksLTEuNTMgMC4xOSwtMy42MSAyLjQ4LC0zLjk5IDAuMTksLTMuMjQgNS43LDAuNTcgNS4zMywtMC41NyAtNS4zMywzLjI0IDAuOTUsMy44IDMuMjQsNS4zMyAzLjQyLDEuMzMgMi40NywtMC45NSAxLjE0LC0yLjI5IDUuNTIsLTQuMTggMS4xNCwwLjk1IDguNTYsMC4zOCAxLjcxLC0xLjUyIDAuMTksLTIuNDcgLTAuNTcsLTAuOTUgLTAuMzgsLTYuNjYgLTIuODUsLTUuNzEgMC4zOCwtMi42NiAxLjcxLDAuOTUgNC45NCw0LjU3IDIuMjksMC4xOSAyLjY2LC0xLjE0IDIuNjYsLTEuOTEgMS4zMywtNC4zNyA3LjYxLDAuNTcgNC43NSwtMS45IDMuODEsLTMuNDMgMi42NiwtNS4xMyAwLjc2LC02LjA5IC0wLjU3LC02Ljg0IC0xLjUyLC02LjI4IC0xLjUyLC0yLjA5IC0yLjA5LC0wLjU3IC0zLjYyLDMuOTkgLTMuMjMsMS4xNCAtMi44NSwtNC43NSAtMi44NiwtMi42NiAtMS43MSwtMC45NTAwMDA0IC02LjA4LC01LjMzIC01LjE0LC0yLjY2IC00Ljk0LC0wLjM4IC01LjksMC45NSAtNS4xNCwxLjkgLTMuNDIsMi44NSAtMi44NSwzLjQzMDAwMDQgLTIuODUsMC43NiB6Ii8+JiN4YTsmI3hhOzxwYXRoIGlkPSJwYXRoODA2MjkiIGlua3NjYXBlOmNvbm5lY3Rvci1jdXJ2YXR1cmU9IjAiIHN0eWxlPSJmaWxsOiMxZTFlMWUiIGQ9Im0gNy4wNCwyOS4xMzM5NjkgMC43NiwwLjk1IDAuMTksLTEuMTQgSCA3LjQyIFoiLz4mI3hhOyYjeGE7PHBhdGggaWQ9InBhdGg4MDYzNyIgaW5rc2NhcGU6Y29ubmVjdG9yLWN1cnZhdHVyZT0iMCIgc3R5bGU9ImZpbGw6IzFlMWUxZSIgZD0ibSA5NC41MiwyMS43MTM5NjkgYyAtMC4zOCwtMi44NiAtMS4xNCwtNS43MSAtMi4yOCwtNy42MSAtMC4xOSwtMC4xOSAtMC4zOCwtMC41NyAtMC41NywtMC43NiAtMC41NywtMC41NyAtMS4zMywtMC45NSAtMi4wOSwtMS4zMyAtMC43NiwtMC4zOCAtMS43MSwtMC4zOCAtMi40NywwIC0wLjE5LDAuMTkgLTAuMzksMC4xOSAtMC41OCwwLjM4IC0wLjM4LDAuMzggLTAuNzYsMC45NSAtMS4xNCwxLjUyIC0wLjM4LDAuNTcgLTAuOTUsMS4zMyAtMS4zMywxLjcxIC0wLjU3LDAuNTcgLTEuMzMsMC43NiAtMi4wOSwxLjE0IC0wLjM4LC0wLjc2IC0wLjU3LC0xLjUyIC0xLjE0LC0yLjA5IC0wLjU3LC0wLjc2IC0wLjk1LC0xLjUyIC0xLjcxLC0yLjI4IC0wLjU3LC0wLjU3IC0wLjk1LC0wLjk1IC0xLjUyLC0xLjUzIC0wLjU3LC0wLjM4IC0xLjE1LC0wLjc2IC0xLjcyLC0xLjE0MDAwMDQgLTEuNzEsLTEuMTQgLTMuMDQsLTIuMjggLTQuNTYsLTMuNjEgLTAuNTcsLTAuNTcgLTEuMzMsLTEuMTQgLTEuOSwtMS43MSAtMy40MywtMi44NSAtNi42NiwtNC4xOTAwMDAwMSAtMTAuMDgsLTQuMzgwMDAwMDEgLTMuNDMsLTAuMTkgLTcuMDQsMC43NiAtMTEuNDEsMi40ODAwMDAwMSAtMi4xLDAuOTUgLTMuNjIsMS45IC00Ljk1LDMuMDQgLTEuMzMsMS4xNCAtMi4yOCwyLjQ3IC0zLjYxLDQuMTggLTAuNzYsMCAtMS4zMywwLjE5IC0xLjksMC4zODAwMDA0IC0wLjc2LDAuMTkgLTEuMzMsMC43NiAtMi4yOSwxLjUzIC0wLjU3LDAuNTcgLTEuMTQsMS4xNCAtMS43MSwxLjUyIC0wLjU3LDAuNTcgLTAuOTUsMC45NSAtMS41MiwxLjUyIC0zLjk5LDAuNTcgLTcuMDQsMS4zMyAtOS44OSwyLjQ3IC0yLjg1LDEuMTQgLTUuNTEsMi42NiAtOC4xOCw0Ljk1IC0xLjE0LDAuOTUgLTIuMDksMS45IC0yLjg1LDMuMDQgLTAuNzYsMS4xNCAtMS41MiwyLjA5IC0yLjA5LDMuMjMgLTAuNTcsMC41NyAtMS4xNCwxLjE0IC0xLjcxLDEuNzEgLTAuNTcsMC41NyAtMS4xNCwwLjk1IC0xLjksMS4xNCAtMC4zOSwwLjE5IC0wLjU4LDAuMTkgLTAuNTgsMC4xOSB2IC0wLjE5IGMgMC45NiwtMC45NSAxLjE1LC0yLjI4IDEuMTUsLTMuNjEgMC4xOSwwLjE5IDAuMTksMC4zOCAwLjM4LDAuNTcgMC4xOSwwLjE5IDAuMTksMC4zOCAwLjM4LDAuNTcgbCAwLjM4LC0wLjM4IDAuNTcsMC4xOSBjIDAuMTksLTAuOTUgMC4zOCwtMS45IDAuMTksLTMuMDQgLTAuMTksLTAuNTcgLTAuMzgsLTEuMTQgLTAuOTUsLTEuNTIgMCwtMC4xOSAwLjE5LC0wLjE5IDAuMTksLTAuMzggMC4xOSwtMC4zOCAwLjM4LC0wLjc2IDAuMzgsLTEuMzMgbCAtMC4zOCwtMC4xOSAwLjM4LDAuMTkgMC41NywtMC4zOCAtMC43NiwwLjE5IGMgLTEuMTQsMC4xOSAtMy40MywxLjUyIC01LjE0LDMuMjMgLTAuNTcsMC41NyAtMS4xNCwxLjMzIC0xLjUyLDIuMDkgLTAuNTcsMC45NSAtMC41NywxLjcxIC0wLjU3LDIuNDcgMC4xOSwwLjc2IDAuNTcsMS4zMyAxLjE0LDIuMSAwLjE5LDAuNTcgMC4xOSwwLjk1IDAuMzgsMS4zMyAwLjE5LDAuMzggMC4zOCwwLjc2IDAuMzgsMS4xNCAwLjU3LDAuOTUgMS4zMywxLjcxIDIuMDksMS45IDAuNzYsMC4xOSAxLjUzLDAuMTkgMi4yOSwwIC0wLjE5LDAuOTUgLTAuMTksMS45IC0wLjM4LDIuODUgMCwxLjMzIDAsMi44NiAwLjE5LDQuNTcgMCwwLjM4IDAsMC43NiAwLjE5LDEuMTQgMCwwLjM4IDAuMTksMC43NiAwLjE5LDEuMTQgLTAuMTksMC4zOCAtMC4zOCwwLjc2IC0wLjM4LDEuMTQgLTAuMTksMC41NyAtMC4zOCwxLjMzIC0wLjc2LDEuOSAtMC41OCwwLjU3IC0wLjk2LDAuOTUgLTEuNTMsMS41MiAtMC4zOCwwLjM4IC0wLjk1LDAuOTUgLTEuMzMsMS4zMyAwLDAgLTAuMTksMC4yIC0wLjM4LDAuMzkgLTAuOTUsMC45NSAtMS4xNCwxLjE0IC0wLjk1LDIuNjYgMC4xOSwwLjk1IDAuNTcsMS45IDAuOTUsMy4wNCAwLjM4LDAuOTUgMS4xNCwxLjcxIDEuOSwyLjY2IDEuMzQsMS4xNCAzLjA1LDIuMjkgNC43NiwzLjA1IDAuOTUsMC4zOCAyLjA5LDAuNTcgMy4wNCwwLjM4IDAsMC4xOSAwLDAuMzggLTAuMTksMC4zOCAtMC4xOSwwLjM4IC0wLjM4LDAuNzYgLTAuNTcsMS4zMyAtMS4xNCwyLjY2IDAsMy45OSAxLjksNC43NSAwLjk1LDAuMzggMi4wOSwwLjc2IDMuMDUsMC45NSAwLjE5LDAgMC4zOCwwLjE5IDAuNzYsMC4xOSAxLjE0LDAuMzggMy40MiwwLjk2IDUuMzIsMS4xNSAyLjA5LDAuMTkgNCwtMC4zOCA0LjU3LC0yLjI5IDAuMTksLTAuNzYgMC4zOCwtMS4zMyAwLjM4LC0xLjkgMCwtMC41NyAwLC0xLjE0IDAsLTEuNzEgMC41NywtMS4zMyAwLjk1LC0xLjcxIDEuMzMsLTIuMjggMCwtMC4xOSAwLjE5LC0wLjE5IDAuMTksLTAuMzggMC4zOCwtMC43NiAwLjc2LC0xLjE0IDAuNzYsLTEuNzEgMCwtMC41OCAwLC0xLjE1IDAsLTEuOTEgMCwwIDAsLTAuMTkgMCwtMC4zOCAxLjE0LDAuMTkgMi40NywwLjE5IDMuNjEsMC4xOSAwLjU3LDAgMS4xNCwwIDEuOSwwIC0wLjE5LDAgLTAuMzgsMC4xOSAtMC41NywwLjE5IDAsMCAtMC4xOSwwIC0wLjE5LDAuMTkgLTEuNzEsMC43NiAtMS43MSwyLjQ4IC0xLjE0LDQgMC4zOCwxLjUyIDEuMzMsMy4wNCAyLjA5LDMuOCAxLjM0LDEuOSAyLjQ4LDMuNjEgMy44MSw0LjM4IDEuNTIsMC45NSAzLjIzLDAuOTUgNS41MSwtMC4xOSAxLjE0LC0wLjU4IDEuNTIsLTEuMzQgMS45MSwtMi4xIDAuMTksLTAuMTkgMC4zOCwtMC41NyAwLjU3LC0wLjc2IDAuMzgsLTAuMzggMS41MiwtMS4zMyAyLjg1LC0yLjI4IDAuMzgsLTAuMzggMC43NiwtMC41NyAxLjMzLC0wLjk1IDAuMzgsMC4xOSAwLjU3LDAuMzggMS4xNCwwLjU3IDAuNTcsMC4xOSAxLjMzLDAuMTkgMi4wOSwwLjE5IDAuNTcsMCAyLjY3LDAgNCwwIDAuMzgsMCAwLjc2LDAgMC45NSwwIDEuMzMsMCAyLjQ3LDAgMy4yMywtMC41NyAwLjk1LC0wLjU3IDEuMzMsLTEuMzMgMS41MiwtMi44NSAwLC0wLjc2IDAsLTEuMTQgMCwtMS41MiAwLC0wLjM4IC0wLjE5LC0wLjc3IC0wLjU3LC0xLjM0IDAsLTAuNzYgMCwtMS4zMyAwLC0yLjA5IDAsLTAuNzYgMCwtMS41MiAwLC0yLjA5IDAsLTAuNzYgLTAuMTksLTEuNTIgLTAuMzgsLTIuMjggLTAuMTksLTAuNzYgLTAuMzgsLTEuMzMgLTAuNzYsLTIuMDkgLTAuMTksLTAuNTcgLTAuMzgsLTAuOTYgLTAuNTcsLTEuNTMgbCAtMC4zOCwwLjE5IDAuMzgsLTAuMTkgYyAtMC4xOSwtMC43NiAtMC41NywtMS41MiAtMC45NSwtMi4yOCAwLC0wLjE5IDAsLTAuMzggMCwtMC41NyAwLjE5LDAuMTkgMC41NywwLjU3IDAuNzYsMC43NiBsIDEuMTQsMS4xNCBjIDAuNzYsMC43NiAxLjUyLDEuNTIgMi40NywyLjEgMC45NSwwLjU3IDEuOTEsMC45NSAzLjI0LDAuNzYgMS4zMywwIDIuODUsLTAuNTcgNC4xOCwtMS41MyAxLjE0LC0wLjk1IDIuMDksLTIuMDkgMi42NiwtMy40MiAwLjE5LC0wLjM4IDAuMTksLTAuNzYgMC4zOCwtMS4xNCAwLC0wLjM4IDAuMTksLTAuNTcgMC4xOSwtMC45NSAxLjkxLDAuMzggNC4xOSwwLjM4IDYuMDksMC4xOSAxLjksLTAuMTkgMy45OSwtMC43NiA1LjUyLC0xLjUyIDIuNDcsLTEuMzMgNC4xOCwtMy4yNCA1LjUxLC01LjUyIDEuNTIsLTIuNDcgMi4yOCwtNS41MSAyLjY2LC04LjU2IC0wLjE5LC0yLjI4IC0wLjM4LC01LjcgLTAuOTUsLTguOTMgeiBtIC0yOC41MywyMy4wMSBjIC0wLjU3LDEuOSAtMS41Miw1LjEzIDEuMTUsNS43IDAuOTUsMC4xOSAxLjUyLDAuMTkgMi44NSwtMC41NyAtMS4xNCwwLjE5IC0xLjcxLDAuMTkgLTIuNDcsMCAtMC43NiwtMC4xOSAtMS4xNCwtMC41NyAtMS4zNCwtMS4xNCAwLjIsMC4xOSAwLjU4LDAuMTkgMS4zNCwwLjM4IDEuOSwwLjM4IDMuOCwtMC4zOCA0LjE4LC0xLjkgMC4xOSwtMC43NiAwLjE5LC0xLjE0IDAuNTcsLTIuMjggMC4zOCwwLjE5IDAuNzYsMC4xOSAxLjMzLDAuMzggLTAuMTksMC43NiAtMC41NywxLjUyIC0wLjc2LDIuNDcgLTAuNTcsMi4wOSAtMy4wNCwzLjggLTUuMzIsMy42MSAtMi4xLDAgLTMuMjQsLTEuMzMgLTQuNzYsLTIuNDcgLTAuOTUsLTAuNzYgLTEuOSwtMS43MSAtMi44NSwtMi40NyAtMi40NywtMC43NiAtNC41NywtMS43MSAtNi44NSwtMy40MiAxLjcxLDEuOSAyLjg1LDMuMDQgNS4xNCwzLjk5IC0wLjM4LDMuNDIgLTEuNTIsNS45IC0yLjQ4LDkuMTMgLTAuMzgsMS41MiAtMy45OSw3LjQyIC01LjEzLDcuOTkgLTAuNzYsMC4zOCAtNS4xNCw0LjE4IC02LjA5LDQuNzUgLTAuNTcsMC43NiAtMS4xNCwxLjkgLTIuMDksMi40NyAtMi44NSwxLjUzIC00Ljc1LC0xLjMzIC02LjI3LC0zLjggLTAuNzcsLTEuMTQgLTIuNjcsLTQuMzcgLTAuOTYsLTUuMzIgMS41MywtMC43NyAyLjQ4LC0xLjUzIDQuMTksLTIuNDggMC4xOSwwLjM4IDAuNTcsMC45NSAwLjk1LDEuMzMgMCwtMC41NyAtMC4xOSwtMC45NSAtMC4xOSwtMS41MiAtMC4xOSwtMC45NSAtMC4xOSwtMS41MiAwLC0yLjQ3IDAsLTAuNzYgMC4xOSwtMS43MSAwLjE5LC0yLjQ3IC0wLjE5LDAuOTUgLTAuNzYsMS43MSAtMC45NSwyLjY2IC0wLjE5LDAuMzggLTAuMTksMC41NyAtMC4xOSwwLjk1IC0zLjYyLDAuNzYgLTcuNDIsMC43NiAtMTEuMDMsMC4xOSAtMC4xOSwtMS4zMyAtMC41NywtMi44NSAtMC43NiwtMy44IDAsMS4xNCAwLDQuMzcgMCw2LjA4IDAsMS4zMyAwLDEuOTEgLTAuNzYsMy4wNSAtMC41NywxLjE0IC0wLjk1LDEuMzMgLTEuOTEsMy4yMyAwLDEuMTQgMCwxLjkgLTAuMTksMy4wNCAtMC41NywxLjkgLTUuNywwLjM4IC03LjAzLDAgLTEuNzEsLTAuMzggLTUuMTQsLTEuMTQgLTQuMzgsLTMuNDIgMC43NiwtMS45IDEuMzMsLTMuOTkgMS43MSwtNi44NSAtMy4wNCwtNC4zNyAtNS44OSwtMTAuNDYgLTYuNDYsLTE1Ljk3IC0wLjM4LC00LjE5IC0wLjE5LC02Ljg1IDAuNzYsLTkuMzIgMS41MiwtNCAzLjQyLC03LjYxIDYuNjYsLTEwLjQ2IDQuMzcsLTMuODEgOC4zNiwtNS4zMyAxNC44MywtNi4yOCAtMS41MiwxLjcxIC0zLjA0LDMuNjEgLTQuNzUsNS41MiAtMS43MiwxLjkgLTIuNjcsMy45OSAtMy44MSw2LjA4IC0xLjUyLDMuMDUgLTEuNTIsNC4xOSAwLjU3LDYuNjYgMS43MSwyLjI4IDIuNjYsMy4yMyAzLjI0LDUuNTEgLTAuNTgsMS4zNCAtMC43NywyLjI5IC0wLjk2LDQgMi4xLDIuMjggMy42MiwzLjggNS41Miw0LjE4IDEuOSwwLjM4IDMuNjEsMC4zOCA1LjMzLC0wLjU3IDMuOCwtMS45IDcuNDEsLTQuNTYgMTEuNzksLTQuNzUgMi4wOSwtNC45NSAxLjksLTkuMTMgMC43NiwtMTQuMDggLTAuNTcsLTMuMjMgLTAuOTUsLTYuNDYgLTEuMTQsLTkuNyAtMC43NiwzLjQzIC0wLjk1LDYuNDcgLTAuMzgsOS44OSAwLjc2LDQuMTkgMS4zMyw4Ljc1IC0wLjc2LDEyLjM3IC00LDAuMzggLTcuNDIsMi42NiAtMTEuMDQsNC41NiAtMS41MiwwLjc2IC0yLjg1LDAuNzYgLTQuNTYsMC4zOCAtMS4xNCwtMC4xOSAtMi4wOSwtMS4xNCAtMy44LC0zLjA0IDAsLTEuOSAwLjM4LC0yLjY2IDEuMTQsLTQuMzggMS4zMywtMi42NiAyLjg1LC01LjEzIDQuNTYsLTcuNzkgLTEuOSwyLjQ3IC0zLjgsNC41NiAtNS4zMiw2Ljg0IC0wLjU3LC0xLjcxIC0xLjUzLC0yLjY2IC0yLjg2LC00LjU2IC0xLjMzLC0xLjkgLTEuNTIsLTIuNjYgLTAuNTcsLTQuOTUgMS4xNCwtMi4yOCAxLjksLTQuMTggMy44MSwtNi4wOCAzLjA0LC0zLjQzIDUuODksLTcuMDQgOS4zMiwtMTAuNDYgMS45LC0xLjcxIDIuNjYsLTEuNzEgNC45NCwtMi4wOSAyLjI4LC0wLjM5IDQuMzgsLTAuNzcgNi42NiwtMS4zNDAwMDA0IC0yLjI4LDAuMzgwMDAwNCAtNC4zOCwwLjU3MDAwMDQgLTYuNDcsMC41NzAwMDA0IHYgMCBjIDIuMDksLTIuNjYwMDAwNCAzLjIzLC00LjE4MDAwMDQgNi42NiwtNS43MDAwMDA0IDguMzcsLTMuNjEgMTMuNjksLTQuMDAwMDAwMDEgMjAuMTYsMS41MiAxLjcxLDEuNTIgMy4yMywyLjg1IDQuOTQsMy45OTAwMDA0IC0wLjU3LDAgLTEuMTQsMC4xOSAtMS45LDAuMzggMC45NSwtMC4xOSAxLjksMCAyLjg1LDAuMTkgMC4xOSwwLjE5IDAuNTcsMC4zOSAwLjc2LDAuNTggMS4xNCwwLjc2IDEuOTEsMS4xNCAyLjY3LDIuMjggMC45NSwxLjE0IDEuNTIsMi40NyAyLjI4LDMuOCAtMC4zOCwtMC4xOSAtMC43NiwtMC4xOSAtMS4xNCwtMC4zOCAtMC4xOSwtMC4xOSAtMC41NywtMC4xOSAtMC43NiwtMC4xOSAtMC41NywwIC0wLjk1LDAgLTEuNTIsMC4zOCB2IDAgYyAtMC43NywwLjM4IC0xLjcyLDAuNzYgLTIuNDgsMC43NiAwLjM4LDAuMTkgMS4xNCwwLjE5IDEuNTIsMCBoIDAuMTkgYyAtMC4xOSwwLjE5IC0wLjE5LDAuNTcgLTAuMzgsMC45NSAwLDAuMzggMCwwLjk1IDAuMTksMS4zMyB2IDAgYyAwLDAuMTkgMC4xOSwwLjE5IDAuMTksMC4zOCAtMC4zOCwwLjE5IC0wLjU3LDAuMTkgLTAuOTUsMC4zOCAxLjUzLC0wLjE5IDMuMDUsLTAuMTkgNC41NywwIDAuMTksMC41OCAwLjE5LDAuOTYgMC4zOCwxLjUzIC0wLjE5LDAgLTAuMzgsMCAtMC41NywwIHYgMCBjIC0wLjc2LC0wLjU3IC0xLjUyLC0wLjU3IC0yLjY2LC0wLjE5IC0zLjI0LDAuNzYgLTIuNDgsMi42NiAtNCw1LjUxIDEuNTIsLTEuOSAxLjUyLC0zLjk5IDQsLTQuNTYgMC41NywtMC4xOSAwLjk1LC0wLjM4IDEuMzMsLTAuMTkgLTAuNzYsMC4zOCAtMS4zMywwLjk1IC0xLjcyLDEuNzEgLTAuNzYsMi4wOSAtMC4xOSwzLjYxIC0xLjE0LDUuNTEgMC45NSwtMS43MSAwLjk1LC0zLjIzIDEuOTEsLTUuMTMgMC4zOCwtMC41NyAxLjUyLC0xLjcxIDIuMDksLTEuNzEgMC4xOSwwIDAuMzgsMCAwLjU3LDAgMC4xOSwxLjE0IDAuMTksMi4yOCAwLjE5LDMuMDQgLTAuMTksMS43MSAtMC41Nyw0LjE4IC0wLjc2LDUuMTQgMC45NSwtMS4xNSAxLjMzLC0zLjQzIDEuNzEsLTUuMTQgMC4zOCwtMS43MSAwLjM4LC0zLjggMCwtNS43MSAtMC41NywtMi42NiAyLjA5LC0yLjA5IDMuNjEsLTMuNDIgMS4xNCwtMC45NSAxLjksLTIuMjggMi44NiwtMy4yMyAwLjk1LC0wLjk1IDIuNjYsMC4zOCAzLjA0LDEuNTIgMS43MSw0LjE4IDIuNDcsMTAuODQgMi4wOSwxNS4yMSAtMC41Nyw0Ljc2IC0yLjg1LDEwLjA4IC03LjA0LDEyLjM3IC01LjMyLDMuMDQgLTExLjc5LDEuMTQgLTE3LjExLC0wLjU3IC0xLjE0LC0wLjM4IC0xLjksLTAuOTUgLTIuODYsLTEuNTMgMC41NywwLjk2IDAuNzcsMi4yOSAwLjM4LDMuNDMgeiBtIC00Ljc1LDE5LjIxIGMgLTAuMTksMS45IC0wLjc2LDIuMDkgLTIuNjYsMi4wOSAtMC43NiwwIC00LDAgLTQuNzYsLTAuMTkgLTEuMTQsLTAuMTkgLTEuNzEsLTAuMTkgLTIuMDksLTAuMzggMS43MSwtMS4zMyA0Ljc2LC02LjY2IDUuMzMsLTguNTYgMC41NywtMS45IDEuMzMsLTMuNjEgMS43MSwtNS41MiAwLjE5LDAuNzcgMC4zOCwxLjUzIDAuNzYsMi4yOSAwLjU3LDEuMzMgMC43NiwyLjA5IDAuOTUsMy42MSAwLDEuNTIgMCwzLjA0IDAuMTksNC41NiAwLjU3LDAuOTYgMC41NywxLjE1IDAuNTcsMi4xIHogbSAtNTUuNTMsLTM5LjU2IGMgLTAuMzgsMC41NyAtMC41NywxLjE0IC0wLjU3LDEuNTIgLTAuNTgsMi4wOSAwLjE5LDMuOTkgLTEuNzIsNS41MSAwLjk1LDEuNzIgMC43NiwyLjQ4IDIuODYsMS43MiAwLjc2LC0wLjM4IDEuNTIsLTAuNzYgMi4wOSwtMS4zMyAtMC4xOSwwLjc2IC0wLjU3LDEuNTIgLTAuNzYsMi4yOCAwLDAuMTkgMCwwLjE5IC0wLjE5LDAuMzggLTEuNTIsMC41NyAtMy40MywwLjk1IC00LjE5LC0wLjU3IC0wLjM4LC0wLjc2IC0wLjU3LC0xLjUyIC0wLjc2LC0yLjQ4IC0yLjQ3LC0yLjQ3IDEuMTQsLTUuODkgMy4yNCwtNy4wMyB6IG0gMC4xOSwyLjI4IGMgMCwtMC4xOSAwLC0wLjU3IDAuMTksLTAuNzYgMCwtMC4xOSAwLC0wLjE5IDAuMTksLTAuMzggMC41NywwLjM4IDAuNTcsMC43NiAwLjc2LDEuNTIgLTAuMzgsLTAuMzggLTAuNzYsLTAuNTcgLTEuMTQsLTAuMzggeiBtIDEuOSwyMi4yNSBjIDEuMTQsMy44MSAzLjA0LDcuOCA1LjEzLDExLjAzIHYgMCBjIC0wLjE5LDAuNTcgLTAuMzgsMS4xNCAtMC41NywxLjUyIC0xLjUyLDIuMSAtNS4zMiwtMC45NSAtNi40NiwtMi4wOSAtMS4zNCwtMS4zMyAtMi4xLC0yLjg1IC0yLjI5LC00LjE4IC0wLjE5LC0wLjk1IDAsLTAuOTUgMC43NiwtMS43MSAwLjk2LC0wLjk1IDEuOTEsLTEuOTEgMi44NiwtMi44NiAwLjE5LC0wLjU3IDAuMzgsLTEuMTQgMC41NywtMS43MSB6IG0gNzIuNDYsLTMxLjM4IGMgMCwwLjE5IDAuMTksMC4zOCAwLjE5LDAuNTcgbCAtMC4xOSwwLjE5IGMgLTAuMTksLTAuMTkgLTAuMzgsLTAuNTcgLTAuNTcsLTAuNzYgMC4xOSwwIDAuMzgsMCAwLjU3LDAgeiIvPiYjeGE7JiN4YTs8cGF0aCBpZD0icGF0aDgwNjQ1IiBpbmtzY2FwZTpjb25uZWN0b3ItY3VydmF0dXJlPSIwIiBzdHlsZT0iZmlsbDojMWUxZTFlIiBkPSJtIDg1LjAxLDE5LjgxMzk2OSBjIDIuNjcsLTAuOTUgNCwtMy4wNSA0LjU3LC01LjcxIC0xLjE0LDIuMDkgLTIuNjYsMy45OSAtNC45NSw0Ljk1IC0xLjE0LDAuNTcgLTEuOSwwLjM4IC0zLjIzLDAuMTkgMS4zMywwLjU3IDIuMjgsMC45NSAzLjYxLDAuNTcgeiIvPiYjeGE7JiN4YTs8cGF0aCBpZD0icGF0aDgwNjUzIiBpbmtzY2FwZTpjb25uZWN0b3ItY3VydmF0dXJlPSIwIiBzdHlsZT0iZmlsbDojMWUxZTFlIiBkPSJtIDY5LjgsMjIuNDczOTY5IGMgLTAuNzYsMCAtMS43MSwwLjE5IC0yLjg1LDAuMzggMCwtMC4zOCAtMC4xOSwtMC41NyAtMC4xOSwtMC45NSAtMC4zOCwtMC43NiAtMC45NSwtMS4zMyAtMS43MSwtMS41MiAwLjU3LC0wLjM4IDEuMzMsLTAuNzYgMS45LC0xLjE0IC0xLjUyLDAuNzYgLTMuMjMsMC41NyAtNC41NywxLjMzIC0xLjE0LDAuNzYgLTIuNjYsMy4yMyAtMy44LDQuMTggMC43NiwtMC4zOCAxLjUyLC0wLjk1IDIuMjgsLTEuNTIgMCwwLjM4IDAuMTksMC45NSAwLjM4LDEuMzMgMC4zOCwwLjU3IDAuNzYsMS4xNCAxLjMzLDEuMzMgLTAuMzgsMC41OCAtMC43NiwxLjE1IC0wLjk1LDEuOTEgMi4xLC0yLjQ4IDUuMTQsLTQuNTcgOC4xOCwtNS4zMyB6Ii8+JiN4YTsmI3hhOzxwYXRoIGlkPSJwYXRoODA2NjEiIGlua3NjYXBlOmNvbm5lY3Rvci1jdXJ2YXR1cmU9IjAiIHN0eWxlPSJmaWxsOiMxZTFlMWUiIGQ9Im0gNTYuMSwxOS42MjM5NjkgYyAwLjU3LC0yLjI5IDEuMzMsLTQuMzggNC43NiwtNS45IC00LjU3LDEuMTQgLTUuMzMsMy4wNCAtNC43Niw1LjkgeiIvPiYjeGE7JiN4YTs8cGF0aCBpZD0icGF0aDgwNjY5IiBpbmtzY2FwZTpjb25uZWN0b3ItY3VydmF0dXJlPSIwIiBzdHlsZT0iZmlsbDojMWUxZTFlIiBkPSJtIDYzLjUyLDQxLjI5Mzk2OSBjIC0wLjE5LDAuNTggLTAuMTksMS41MyAtMC4zOCwyLjEgMC4xOSwtMC43NiAwLjU3LC0xLjcyIDAuOTUsLTIuMjkgMC4zOCwtMC43NiAwLjU3LC0wLjc2IDEuMzMsLTEuMTQgMC41NywtMC4xOSAxLjUyLC0wLjc2IDEuOSwtMC45NSAtMC41NywwIC0xLjUyLDAuMzggLTIuMDksMC4zOCAtMS4zMywwLjE5IC0xLjUyLDAuNTcgLTEuNzEsMS45IHoiLz4mI3hhOyYjeGE7PHBhdGggaWQ9InBhdGg4MDY3NyIgaW5rc2NhcGU6Y29ubmVjdG9yLWN1cnZhdHVyZT0iMCIgc3R5bGU9ImZpbGw6IzFlMWUxZSIgZD0ibSAzOS4xNywxNS42MzM5NjkgYyAtMS43MSwxLjcxIC0zLjIzLDcuMjIgLTMuOCw5LjUxIDAuNzYsLTEuOTEgMi44NSwtNy4wNCA0LjM3LC04LjM3IDAuMzgsLTAuMzggMC43NywtMC41NyAxLjE1LC0wLjc2IC0xLjE1LDEuOSAtMC45NiwyLjI4IC0wLjU4LDQuNzUgMC4zOSwtMi40NyAxLjE1LC0zLjYxIDIuNjcsLTUuNTEgMS41MiwtMC4zOCAzLjA0LC0wLjk1IDQuNzUsLTEuNTIgLTEuOSwwLjE5IC0zLjYxLDAuMzggLTUuNTEsMC41NyAtMS43MSwwLjM4IC0yLjEsMC4zOCAtMy4wNSwxLjMzIHoiLz4mI3hhOyYjeGE7PHBhdGggaWQ9InBhdGg4MDY4NSIgaW5rc2NhcGU6Y29ubmVjdG9yLWN1cnZhdHVyZT0iMCIgc3R5bGU9ImZpbGw6I2ZmZmFjYiIgZD0ibSA2MS44MSwyNS4zMzM5NjkgYyAtMC4zOCwtMC41NyAwLC0xLjM0IDAuNTcsLTEuNzIgMC41NywtMC4zOCAxLjMzLDAgMS43MSwwLjU3IHYgMC4yIGMgLTAuNTcsMC4zOCAtMS4xNCwwLjk1IC0xLjcxLDEuNTIgLTAuMTksMCAtMC41NywtMC4xOSAtMC41NywtMC41NyB6Ii8+JiN4YTsmI3hhOzxwYXRoIGlkPSJwYXRoODA2OTMiIGlua3NjYXBlOmNvbm5lY3Rvci1jdXJ2YXR1cmU9IjAiIHN0eWxlPSJmaWxsOiNmZmZhY2IiIGQ9Im0gNzUuODgsMTkuODEzOTY5IGMgMCwtMC41NyAwLjU3LC0wLjk2IDAuOTUsLTAuOTYgMC41NywwIDAuOTUsMC41OCAwLjk1LDAuOTYgMCwwLjE5IDAsMC4xOSAwLDAuMzggLTAuNTcsMCAtMC45NSwwLjE5IC0xLjUyLDAuMzggLTAuMTksMCAtMC4zOCwtMC4zOCAtMC4zOCwtMC43NiB6Ii8+JiN4YTs8L3N2Zz4=;" parent="1" vertex="1">
            <mxGeometry x="961.25" y="783" width="47.5" height="37" as="geometry" />
          </mxCell>
        </object>
        <mxCell id="n0bJvDlAcugo_qtZuH2x-41" value="HDFS" style="text;html=1;strokeColor=none;fillColor=none;align=center;verticalAlign=middle;whiteSpace=wrap;rounded=0;fontFamily=Helvetica;fontStyle=1;fontColor=#FF0000;" parent="1" vertex="1">
          <mxGeometry x="925" y="833" width="120" height="10" as="geometry" />
        </mxCell>
        <mxCell id="n0bJvDlAcugo_qtZuH2x-44" value="" style="shape=image;html=1;verticalAlign=top;verticalLabelPosition=bottom;labelBackgroundColor=#ffffff;imageAspect=0;aspect=fixed;image=https://cdn1.iconfinder.com/data/icons/simple-icons/128/mysql-128-black.png;fontFamily=Helvetica;fontColor=#FF0000;" parent="1" vertex="1">
          <mxGeometry x="1040.25" y="776.5" width="50" height="50" as="geometry" />
        </mxCell>
        <mxCell id="n0bJvDlAcugo_qtZuH2x-45" value="MYSQL" style="text;html=1;strokeColor=none;fillColor=none;align=center;verticalAlign=middle;whiteSpace=wrap;rounded=0;fontFamily=Helvetica;fontStyle=1;fontColor=#FF0000;" parent="1" vertex="1">
          <mxGeometry x="1005.25" y="833" width="120" height="10" as="geometry" />
        </mxCell>
        <mxCell id="n0bJvDlAcugo_qtZuH2x-47" value="" style="shape=image;verticalLabelPosition=bottom;labelBackgroundColor=#ffffff;verticalAlign=top;aspect=fixed;imageAspect=0;image=data:image/svg+xml,PHN2ZyB4bWxuczpjYz0iaHR0cDovL2NyZWF0aXZlY29tbW9ucy5vcmcvbnMjIiB4bWxuczpkYz0iaHR0cDovL3B1cmwub3JnL2RjL2VsZW1lbnRzLzEuMS8iIHhtbG5zOmlua3NjYXBlPSJodHRwOi8vd3d3Lmlua3NjYXBlLm9yZy9uYW1lc3BhY2VzL2lua3NjYXBlIiB4bWxuczpyZGY9Imh0dHA6Ly93d3cudzMub3JnLzE5OTkvMDIvMjItcmRmLXN5bnRheC1ucyMiIHhtbG5zOnNvZGlwb2RpPSJodHRwOi8vc29kaXBvZGkuc291cmNlZm9yZ2UubmV0L0RURC9zb2RpcG9kaS0wLmR0ZCIgeG1sbnM6c3ZnPSJodHRwOi8vd3d3LnczLm9yZy8yMDAwL3N2ZyIgeG1sbnM9Imh0dHA6Ly93d3cudzMub3JnLzIwMDAvc3ZnIiB4bWxuczp4bGluaz0iaHR0cDovL3d3dy53My5vcmcvMTk5OS94bGluayIgdmVyc2lvbj0iMS4xIiBpZD0ic3ZnOTA4MDciIGlua3NjYXBlOnZlcnNpb249IjAuOTIuMyAoMjQwNTU0NiwgMjAxOC0wMy0xMSkiIHNvZGlwb2RpOmRvY25hbWU9InBvc3RncmVzcWwuc3ZnIiB4PSIwcHgiIHk9IjBweCIgdmlld0JveD0iMCAwIDI4LjUxIDM3LjQ1IiBzdHlsZT0iZW5hYmxlLWJhY2tncm91bmQ6bmV3IDAgMCAyOC41MSAzNy40NTsiIHhtbDpzcGFjZT0icHJlc2VydmUiPiYjeGE7PHNvZGlwb2RpOm5hbWVkdmlldyBib3JkZXJjb2xvcj0iIzY2NjY2NiIgYm9yZGVyb3BhY2l0eT0iMSIgZml0LW1hcmdpbi1ib3R0b209IjAiIGZpdC1tYXJnaW4tbGVmdD0iMCIgZml0LW1hcmdpbi1yaWdodD0iMCIgZml0LW1hcmdpbi10b3A9IjAiIGdyaWR0b2xlcmFuY2U9IjEwIiBndWlkZXRvbGVyYW5jZT0iMTAiIGlkPSJuYW1lZHZpZXc5MDgwOSIgaW5rc2NhcGU6Y3VycmVudC1sYXllcj0ic3ZnOTA4MDciIGlua3NjYXBlOmN4PSIzMy4wMjY1OTYiIGlua3NjYXBlOmN5PSIyMi4yNDk0MjciIGlua3NjYXBlOnBhZ2VvcGFjaXR5PSIwIiBpbmtzY2FwZTpwYWdlc2hhZG93PSIyIiBpbmtzY2FwZTp3aW5kb3ctaGVpZ2h0PSIxMDE3IiBpbmtzY2FwZTp3aW5kb3ctbWF4aW1pemVkPSIxIiBpbmtzY2FwZTp3aW5kb3ctd2lkdGg9IjE5MjAiIGlua3NjYXBlOndpbmRvdy14PSItOCIgaW5rc2NhcGU6d2luZG93LXk9Ii04IiBpbmtzY2FwZTp6b29tPSIxMS44MDQ2MzIiIG9iamVjdHRvbGVyYW5jZT0iMTAiIHBhZ2Vjb2xvcj0iI2ZmZmZmZiIgc2hvd2dyaWQ9ImZhbHNlIj4mI3hhOwk8L3NvZGlwb2RpOm5hbWVkdmlldz4mI3hhOzxnIGlkPSJnOTA4MDUiIHRyYW5zZm9ybT0idHJhbnNsYXRlKC0wLjc1LC0wLjc1MTkpIj4mI3hhOwk8dGl0bGUgaWQ9InRpdGxlOTA3MDUiPlBhZ2UtMTwvdGl0bGU+JiN4YTsJPGcgaWQ9Imdyb3VwNDk0Ni0xIiB0cmFuc2Zvcm09InRyYW5zbGF0ZSgwLjc1LC0wLjc1KSI+JiN4YTsJCTx0aXRsZSBpZD0idGl0bGU5MDcwNyI+UG9zdGdyZVNRTC40OTA8L3RpdGxlPiYjeGE7CQk8ZyBpZD0iZ3JvdXA0OTQ3LTIiPiYjeGE7CQkJPHRpdGxlIGlkPSJ0aXRsZTkwNzA5Ij5DSGVja21hcmtfMjwvdGl0bGU+JiN4YTsJCQk8ZyBpZD0ic2hhcGU0OTQ4LTMiPiYjeGE7CQkJCTx0aXRsZSBpZD0idGl0bGU5MDcxMSI+cGF0aDM2ODY8L3RpdGxlPiYjeGE7CQkJCTxwYXRoIGlkPSJwYXRoOTA3MTMiIGlua3NjYXBlOmNvbm5lY3Rvci1jdXJ2YXR1cmU9IjAiIHN0eWxlPSJmaWxsOiMzOTk4QzU7IiBkPSJNMCw2LjQ4djI3LjQ1YzAsMi44OCw2LjM2LDUuMDIsMTQuMTcsNS4wMiAgICAgIFY2LjQ4SDB6Ii8+JiN4YTsJCQk8L2c+JiN4YTsJCQk8ZyBpZD0ic2hhcGU0OTQ5LTUiIHRyYW5zZm9ybT0idHJhbnNsYXRlKDE0LjE3MDEpIj4mI3hhOwkJCQk8dGl0bGUgaWQ9InRpdGxlOTA3MTYiPnBhdGgzNjg4PC90aXRsZT4mI3hhOwkJCQk8cGF0aCBpZD0icGF0aDkwNzE4IiBpbmtzY2FwZTpjb25uZWN0b3ItY3VydmF0dXJlPSIwIiBzdHlsZT0iZmlsbDojNTlCM0Q4OyIgZD0iTTAsMzguOTVoMC4wOGM3Ljc1LDAsMTQuMDktMi4yNywxNC4wOS01LjE1ICAgICAgVjYuNDhIMFYzOC45NXoiLz4mI3hhOwkJCTwvZz4mI3hhOwkJCTxnIGlkPSJzaGFwZTQ5NTAtNyIgdHJhbnNmb3JtPSJ0cmFuc2xhdGUoMCwtMjcuMTE4MSkiPiYjeGE7CQkJCTx0aXRsZSBpZD0idGl0bGU5MDcyMSI+cGF0aDM2OTA8L3RpdGxlPiYjeGE7CQkJCTxwYXRoIGlkPSJwYXRoOTA3MjMiIGlua3NjYXBlOmNvbm5lY3Rvci1jdXJ2YXR1cmU9IjAiIHN0eWxlPSJmaWxsOiNGRkZGRkY7IiBkPSJNMjguNTEsMzMuNzljMCwyLjgtNi4zOSw1LjE2LTE0LjIyLDUuMTYgICAgICBDNi40NywzOC45NSwwLDM2LjU5LDAsMzMuNzlzNi4zOS01LjE3LDE0LjIyLTUuMTdTMjguNTEsMzAuOTgsMjguNTEsMzMuNzl6Ii8+JiN4YTsJCQk8L2c+JiN4YTsJCQk8ZyBpZD0ic2hhcGU0OTUxLTkiIHRyYW5zZm9ybT0idHJhbnNsYXRlKDIuODg3MTcsLTI5LjE2NjkpIj4mI3hhOwkJCQk8dGl0bGUgaWQ9InRpdGxlOTA3MjYiPnBhdGgzNjkyPC90aXRsZT4mI3hhOwkJCQk8cGF0aCBpZD0icGF0aDkwNzI4IiBpbmtzY2FwZTpjb25uZWN0b3ItY3VydmF0dXJlPSIwIiBzdHlsZT0iZmlsbDojN0ZCOTAwOyIgZD0iTTIyLjc0LDM1LjUzYzAsMS45LTUuMSwzLjQyLTExLjMzLDMuNDIgICAgICBDNS4xNywzOC45NSwwLDM3LjQ2LDAsMzUuNTNjMC0xLjkyLDUuMS0zLjQyLDExLjMzLTMuNDJDMTcuNTcsMzIuMTEsMjIuNzQsMzMuNjMsMjIuNzQsMzUuNTN6Ii8+JiN4YTsJCQk8L2c+JiN4YTsJCQk8ZyBpZD0ic2hhcGU0OTUyLTExIiB0cmFuc2Zvcm09InRyYW5zbGF0ZSgyLjg4NzE3LC0zMC41MzA3KSI+JiN4YTsJCQkJPHRpdGxlIGlkPSJ0aXRsZTkwNzMxIj5wYXRoMzY5NDwvdGl0bGU+JiN4YTsJCQkJPHBhdGggaWQ9InBhdGg5MDczMyIgaW5rc2NhcGU6Y29ubmVjdG9yLWN1cnZhdHVyZT0iMCIgc3R5bGU9ImZpbGw6I0I3RDMzMjsiIGQ9Ik0yMC4zLDM4Ljk1YzEuNTMtMC41OSwyLjM3LTEuMjksMi4zNy0yLjA1ICAgICAgYzAtMS45MS01LjEtMy40Mi0xMS4zMy0zLjQyQzUuMSwzMy40OCwwLDM0Ljk5LDAsMzYuOWMwLDAuNzYsMC45MiwxLjUyLDIuMzYsMi4wNWMyLjA2LTAuODQsNS4zMi0xLjI5LDguOTgtMS4yOSAgICAgIGMzLjA0LTAuMDcsNi4wNywwLjM3LDguOTcsMS4yOUgyMC4zeiIvPiYjeGE7CQkJCTxwYXRoIGlkPSJwYXRoOTA3MzUiIGlua3NjYXBlOmNvbm5lY3Rvci1jdXJ2YXR1cmU9IjAiIHN0eWxlPSJmaWxsOm5vbmU7IiBkPSJNMjAuMywzOC45NWMxLjUzLTAuNTksMi4zNy0xLjI5LDIuMzctMi4wNSAgICAgIGMwLTEuOTEtNS4xLTMuNDItMTEuMzMtMy40MkM1LjEsMzMuNDgsMCwzNC45OSwwLDM2LjljMCwwLjc2LDAuOTIsMS41MiwyLjM2LDIuMDVjMi4wNi0wLjg0LDUuMzItMS4yOSw4Ljk4LTEuMjkgICAgICBjMy4wNC0wLjA3LDYuMDcsMC4zNyw4Ljk3LDEuMjkiLz4mI3hhOwkJCTwvZz4mI3hhOwkJCTxnIGlkPSJncm91cDQ5NTMtMTQiIHRyYW5zZm9ybT0idHJhbnNsYXRlKDQuNjg3OTUsLTQuNjIzMDEpIj4mI3hhOwkJCQk8dGl0bGUgaWQ9InRpdGxlOTA3MzgiPkxheWVyXzM8L3RpdGxlPiYjeGE7CQkJCTxnIGlkPSJzaGFwZTQ5NTQtMTUiIHRyYW5zZm9ybT0idHJhbnNsYXRlKDAuMDM1NDI1NCkiPiYjeGE7CQkJCQk8dGl0bGUgaWQ9InRpdGxlOTA3NDAiPnBhdGgzNjk2PC90aXRsZT4mI3hhOwkJCQkJPHBhdGggaWQ9InBhdGg5MDc0MiIgaW5rc2NhcGU6Y29ubmVjdG9yLWN1cnZhdHVyZT0iMCIgc3R5bGU9ImZpbGw6IzMzNjc5MDsiIGQ9Ik0xNy41NCwzMS42OGMtMi4yNiwwLjQ3LTIuNDItMC4zLTIuNDItMC4zICAgICAgIGMyLjM2LTMuNTQsMy4zOS04LjA1LDIuNTMtOS4xNGMtMi4zNi0zLjAxLTYuNDMtMS41OS02LjUtMS41NWMtMC41LTAuMS0xLTAuMTUtMS41MS0wLjE2Yy0wLjg0LTAuMDQtMS42OCwwLjIxLTIuMzYsMC43MSAgICAgICBjMCwwLTcuMjgtMi45OC02Ljk2LDMuNzdjMC4wNywxLjQ0LDIuMDQsMTAuODcsNC40LDguMDJjMC44Ny0xLjAzLDEuNy0xLjkyLDEuNy0xLjkyYzAuNDIsMC4yOSwwLjkzLDAuNDIsMS40NCwwLjM3bDAuMDQtMC4wNCAgICAgICBjLTAuMDIsMC4xNC0wLjAyLDAuMjcsMCwwLjQxYy0wLjU5LDAuNjgtMC40MywwLjgtMS42NSwxLjA1Yy0xLjIzLDAuMjUtMC41MSwwLjcxLTAuMDQsMC44M2MxLjAzLDAuMzMsMi4xNi0wLjAzLDIuOC0wLjkxICAgICAgIGwtMC4wNCwwLjE0YzAuMjUsMC4xOSwwLjQxLDEuMjQsMC4zOCwyLjJjLTAuMDgsMC43MS0wLjAzLDEuNDMsMC4xNCwyLjEzYzAuMTksMC41MSwwLjM4LDEuNjYsMS45OSwxLjMyICAgICAgIGMxLjM0LTAuMjksMi4wMy0xLjA0LDIuMTMtMi4yOGMwLjA2LTAuODcsMC4yMi0wLjc0LDAuMjQtMS41NGwwLjEyLTAuMzdjMC4xNC0xLjE4LDAtMS41OCwwLjg1LTEuNGgwLjIgICAgICAgYzAuNjQsMC4wMywxLjI4LTAuMDgsMS44Ny0wLjMyYzEuMDEtMC40NiwxLjYtMS4yNCwwLjU5LTEuMDRMMTcuNTQsMzEuNjh6Ii8+JiN4YTsJCQkJPC9nPiYjeGE7CQkJCTxnIGlkPSJzaGFwZTQ5NTUtMTciIHRyYW5zZm9ybT0idHJhbnNsYXRlKDkuMTIyMDMsLTAuMzA3MDIpIj4mI3hhOwkJCQkJPHRpdGxlIGlkPSJ0aXRsZTkwNzQ1Ij5wYXRoMzY5ODwvdGl0bGU+JiN4YTsJCQkJCTxwYXRoIGlkPSJwYXRoOTA3NDciIGlua3NjYXBlOmNvbm5lY3Rvci1jdXJ2YXR1cmU9IjAiIHN0eWxlPSJmaWxsOm5vbmU7IiBkPSJNMC4wNiwzMi42N2MtMC4wNiwyLjIzLDAsNC40NywwLjI0LDUuMDIgICAgICAgYzAuMjMsMC45NSwxLjE5LDEuNTMsMi4xNCwxLjNjMC4wNS0wLjAxLDAuMS0wLjAzLDAuMTUtMC4wNGMxLjM0LTAuMjksMS44My0wLjg0LDIuMDQtMi4wN2MwLjE2LTAuOTEsMC40Ni0zLjQxLDAuNS0zLjkzICAgICAgIEwwLjA2LDMyLjY3eiIvPiYjeGE7CQkJCQkmI3hhOwkJCQkJCTxwYXRoIGlkPSJwYXRoOTA3NDkiIGlua3NjYXBlOmNvbm5lY3Rvci1jdXJ2YXR1cmU9IjAiIHN0eWxlPSJmaWxsOm5vbmU7c3Ryb2tlOiNGRkZGRkY7c3Ryb2tlLXdpZHRoOjAuNzY1O3N0cm9rZS1saW5lY2FwOnJvdW5kO3N0cm9rZS1saW5lam9pbjpyb3VuZDtzdHJva2UtbWl0ZXJsaW1pdDozOyIgZD0iICAgICAgIE0wLjA2LDMyLjY3Yy0wLjA2LDIuMjMsMCw0LjQ3LDAuMjQsNS4wMmMwLjIzLDAuOTUsMS4xOSwxLjUzLDIuMTQsMS4zYzAuMDUtMC4wMSwwLjEtMC4wMywwLjE1LTAuMDQgICAgICAgYzEuMzQtMC4yOSwxLjgzLTAuODQsMi4wNC0yLjA3YzAuMTYtMC45MSwwLjQ2LTMuNDEsMC41LTMuOTMiLz4mI3hhOwkJCQk8L2c+JiN4YTsJCQkJPGcgaWQ9InNoYXBlNDk1Ni0yMCIgdHJhbnNmb3JtPSJ0cmFuc2xhdGUoMCwtMy4wOTM4MSkiPiYjeGE7CQkJCQk8dGl0bGUgaWQ9InRpdGxlOTA3NTIiPnBhdGgzNzAwPC90aXRsZT4mI3hhOwkJCQkJPHBhdGggaWQ9InBhdGg5MDc1NCIgaW5rc2NhcGU6Y29ubmVjdG9yLWN1cnZhdHVyZT0iMCIgc3R5bGU9ImZpbGw6bm9uZTsiIGQ9Ik03LjI3LDI0LjI3YzAsMC03LjI3LTIuOTUtNi45MywzLjc5ICAgICAgIGMwLjA3LDEuNDYsMi4wNiwxMC44OSw0LjQyLDguMDJjMC44Ny0xLjA0LDEuNjUtMS44NiwxLjY1LTEuODZMNy4yNywyNC4yN3oiLz4mI3hhOwkJCQkJJiN4YTsJCQkJCQk8cGF0aCBpZD0icGF0aDkwNzU2IiBpbmtzY2FwZTpjb25uZWN0b3ItY3VydmF0dXJlPSIwIiBzdHlsZT0iZmlsbDpub25lO3N0cm9rZTojRkZGRkZGO3N0cm9rZS13aWR0aDowLjc2NTtzdHJva2UtbGluZWNhcDpyb3VuZDtzdHJva2UtbGluZWpvaW46cm91bmQ7c3Ryb2tlLW1pdGVybGltaXQ6MzsiIGQ9IiAgICAgICBNNy4yNywyNC4yN2MwLDAtNy4yNy0yLjk1LTYuOTMsMy43OWMwLjA3LDEuNDYsMi4wNiwxMC44OSw0LjQyLDguMDJjMC44Ny0xLjA0LDEuNjUtMS44NiwxLjY1LTEuODYiLz4mI3hhOwkJCQk8L2c+JiN4YTsJCQkJPGcgaWQ9InNoYXBlNDk1Ny0yMyIgdHJhbnNmb3JtPSJ0cmFuc2xhdGUoMTAuOTM0NiwtNy41OTg3NCkiPiYjeGE7CQkJCQk8dGl0bGUgaWQ9InRpdGxlOTA3NTkiPnBhdGgzNzAyPC90aXRsZT4mI3hhOwkJCQkJPHBhdGggaWQ9InBhdGg5MDc2MSIgaW5rc2NhcGU6Y29ubmVjdG9yLWN1cnZhdHVyZT0iMCIgc3R5bGU9ImZpbGw6bm9uZTsiIGQ9Ik0wLjI1LDI4LjI2QzAsMjguMzMsNC4yOSwyNi42OSw2Ljc1LDI5LjggICAgICAgYzAuODYsMS4xMS0wLjE0LDUuNjEtMi41Myw5LjE1TDAuMjUsMjguMjZ6Ii8+JiN4YTsJCQkJCSYjeGE7CQkJCQkJPHBhdGggaWQ9InBhdGg5MDc2MyIgaW5rc2NhcGU6Y29ubmVjdG9yLWN1cnZhdHVyZT0iMCIgc3R5bGU9ImZpbGw6bm9uZTtzdHJva2U6I0ZGRkZGRjtzdHJva2Utd2lkdGg6MC43NjU7c3Ryb2tlLWxpbmVjYXA6cm91bmQ7c3Ryb2tlLWxpbmVqb2luOnJvdW5kO3N0cm9rZS1taXRlcmxpbWl0OjM7IiBkPSIgICAgICAgTTAuMjUsMjguMjZDMCwyOC4zMyw0LjI5LDI2LjY5LDYuNzUsMjkuOGMwLjg2LDEuMTEtMC4xNCw1LjYxLTIuNTMsOS4xNSIvPiYjeGE7CQkJCTwvZz4mI3hhOwkJCQk8ZyBpZD0ic2hhcGU0OTU4LTI2IiB0cmFuc2Zvcm09InRyYW5zbGF0ZSg1LjI5MDE5LC01Ljc4MDI0KSI+JiN4YTsJCQkJCTx0aXRsZSBpZD0idGl0bGU5MDc2NiI+cGF0aDM3MDQ8L3RpdGxlPiYjeGE7CQkJCQk8cGF0aCBpZD0icGF0aDkwNzY4IiBpbmtzY2FwZTpjb25uZWN0b3ItY3VydmF0dXJlPSIwIiBzdHlsZT0iZmlsbDpub25lOyIgZD0iTTkuODUsMzcuMTNjMCwwLDAuMTYsMC43NywyLjQyLDAuMyAgICAgICBjMS0wLjIsMC40LDAuNTktMC41OSwxLjA0Yy0wLjgyLDAuMzktMi42NywwLjQ4LTIuNy0wLjA0Yy0wLjA4LTEuMzcsMC45Ny0wLjk2LDAuOS0xLjNjLTAuMDgtMC4zNC0wLjU0LTAuNTktMC44NS0xLjM2ICAgICAgIGMtMC4yNy0wLjY2LTMuNzMtNS43MSwwLjk1LTQuOTZjMC4xOC0wLjAzLTEuMjItNC40NS01LjYtNC41MkMwLDI2LjIyLDAuMTIsMzEuNjgsMC4xMiwzMS42OEw5Ljg1LDM3LjEzeiIvPiYjeGE7CQkJCQkmI3hhOwkJCQkJCTxwYXRoIGlkPSJwYXRoOTA3NzAiIGlua3NjYXBlOmNvbm5lY3Rvci1jdXJ2YXR1cmU9IjAiIHN0eWxlPSJmaWxsOm5vbmU7c3Ryb2tlOiNGRkZGRkY7c3Ryb2tlLXdpZHRoOjAuNzY1O3N0cm9rZS1saW5lY2FwOnJvdW5kO3N0cm9rZS1saW5lam9pbjpyb3VuZDtzdHJva2UtbWl0ZXJsaW1pdDozOyIgZD0iICAgICAgIE05Ljg1LDM3LjEzYzAsMCwwLjE2LDAuNzcsMi40MiwwLjNjMS0wLjIsMC40LDAuNTktMC41OSwxLjA0Yy0wLjgyLDAuMzktMi42NywwLjQ4LTIuNy0wLjA0Yy0wLjA4LTEuMzcsMC45Ny0wLjk2LDAuOS0xLjMgICAgICAgYy0wLjA4LTAuMzQtMC41NC0wLjU5LTAuODUtMS4zNmMtMC4yNy0wLjY2LTMuNzMtNS43MSwwLjk1LTQuOTZjMC4xOC0wLjAzLTEuMjItNC40NS01LjYtNC41MkMwLDI2LjIyLDAuMTIsMzEuNjgsMC4xMiwzMS42OCIvPiYjeGE7CQkJCTwvZz4mI3hhOwkJCQk8ZyBpZD0ic2hhcGU0OTU5LTI5IiB0cmFuc2Zvcm09InRyYW5zbGF0ZSg1LjA4OTQ0LC01LjI2NjU3KSI+JiN4YTsJCQkJCTx0aXRsZSBpZD0idGl0bGU5MDc3MyI+cGF0aDM3MDY8L3RpdGxlPiYjeGE7CQkJCQkmI3hhOwkJCQkJCTxwYXRoIGlkPSJwYXRoOTA3NzUiIGlua3NjYXBlOmNvbm5lY3Rvci1jdXJ2YXR1cmU9IjAiIHN0eWxlPSJmaWxsOm5vbmU7c3Ryb2tlOiNGRkZGRkY7c3Ryb2tlLXdpZHRoOjAuNzY1O3N0cm9rZS1saW5lY2FwOnJvdW5kO3N0cm9rZS1saW5lam9pbjpyb3VuZDtzdHJva2UtbWl0ZXJsaW1pdDozOyIgZD0iICAgICAgIE0yLjg4LDM3LjA3Yy0wLjYsMC42OS0wLjQ0LDAuODEtMS42NiwxLjA1QzAsMzguMzcsMC43MSwzOC44MywxLjE5LDM4Ljk1YzEuMDMsMC4zMywyLjE2LTAuMDMsMi44LTAuOTEgICAgICAgYzAuMjItMC40MSwwLjA2LTAuOTItMC4zNS0xLjEzYzAsMCwwLDAsMCwwbC0wLjAzLDBjLTAuMjUtMC4xNC0wLjU4LTAuMDctMC43NCwwLjE4TDIuODgsMzcuMDd6Ii8+JiN4YTsJCQkJPC9nPiYjeGE7CQkJCTxnIGlkPSJzaGFwZTQ5NjAtMzEiIHRyYW5zZm9ybT0idHJhbnNsYXRlKDUuMzQ5MjMsLTcuMTQ0MTEpIj4mI3hhOwkJCQkJPHRpdGxlIGlkPSJ0aXRsZTkwNzc4Ij5wYXRoMzcwODwvdGl0bGU+JiN4YTsJCQkJCTxwYXRoIGlkPSJwYXRoOTA3ODAiIGlua3NjYXBlOmNvbm5lY3Rvci1jdXJ2YXR1cmU9IjAiIHN0eWxlPSJmaWxsOm5vbmU7IiBkPSJNMi41NywzOC45NWMwLTAuNSwwLjEyLTAuOTksMC4zNC0xLjQzICAgICAgIGMwLjMxLTAuODQsMS4wMy0xLjY4LDAuNDYtNC4zNGMtMC40NC0xLjk4LTMuMzEtMC40MS0zLjMxLTAuMTRDMC4xMywzMy45MiwwLjExLDM0LjgsMCwzNS42N2MtMC4yNSwxLjM1LDAuNjQsMi42NCwxLjk5LDIuODkgICAgICAgYzAuMTgsMC4wMywwLjM3LDAuMDUsMC41NSwwLjA0TDIuNTcsMzguOTV6Ii8+JiN4YTsJCQkJCSYjeGE7CQkJCQkJPHBhdGggaWQ9InBhdGg5MDc4MiIgaW5rc2NhcGU6Y29ubmVjdG9yLWN1cnZhdHVyZT0iMCIgc3R5bGU9ImZpbGw6bm9uZTtzdHJva2U6I0ZGRkZGRjtzdHJva2Utd2lkdGg6MC43NjU7c3Ryb2tlLWxpbmVjYXA6cm91bmQ7c3Ryb2tlLWxpbmVqb2luOnJvdW5kO3N0cm9rZS1taXRlcmxpbWl0OjM7IiBkPSIgICAgICAgTTIuNTcsMzguOTVjMC0wLjUsMC4xMi0wLjk5LDAuMzQtMS40M2MwLjMxLTAuODQsMS4wMy0xLjY4LDAuNDYtNC4zNGMtMC40NC0xLjk4LTMuMzEtMC40MS0zLjMxLTAuMTQgICAgICAgQzAuMTMsMzMuOTIsMC4xMSwzNC44LDAsMzUuNjdjLTAuMjUsMS4zNSwwLjY0LDIuNjQsMS45OSwyLjg5YzAuMTgsMC4wMywwLjM3LDAuMDUsMC41NSwwLjA0Ii8+JiN4YTsJCQkJPC9nPiYjeGE7CQkJCTxnIGlkPSJzaGFwZTQ5NjEtMzQiIHRyYW5zZm9ybT0idHJhbnNsYXRlKDcuMjM4NTgsLTEyLjcyMzYpIj4mI3hhOwkJCQkJPHRpdGxlIGlkPSJ0aXRsZTkwNzg1Ij5wYXRoMzcxMDwvdGl0bGU+JiN4YTsJCQkJCSYjeGE7CQkJCQkJPHBhdGggaWQ9InBhdGg5MDc4NyIgaW5rc2NhcGU6Y29ubmVjdG9yLWN1cnZhdHVyZT0iMCIgc3R5bGU9ImZpbGw6I0ZGRkZGRjtzdHJva2U6I0ZGRkZGRjtzdHJva2Utd2lkdGg6MC40MTI1O3N0cm9rZS1saW5lY2FwOnNxdWFyZTtzdHJva2UtbWl0ZXJsaW1pdDozOyIgZD0iICAgICAgIE0wLDM4LjU4YzAsMC4wOSwwLjE3LDAuMzQsMC40LDAuMzdjMC4xOSwwLjAyLDAuMzctMC4wOCwwLjQ1LTAuMjVjMC0wLjA5LTAuMTctMC4xOS0wLjQtMC4yMlMwLjAxLDM4LjQ4LDAsMzguNTh6Ii8+JiN4YTsJCQkJPC9nPiYjeGE7CQkJCTxnIGlkPSJzaGFwZTQ5NjItMzYiIHRyYW5zZm9ybT0idHJhbnNsYXRlKDEzLjU2MiwtMTIuOTEyNSkiPiYjeGE7CQkJCQk8dGl0bGUgaWQ9InRpdGxlOTA3OTAiPnBhdGgzNzEyPC90aXRsZT4mI3hhOwkJCQkJJiN4YTsJCQkJCQk8cGF0aCBpZD0icGF0aDkwNzkyIiBpbmtzY2FwZTpjb25uZWN0b3ItY3VydmF0dXJlPSIwIiBzdHlsZT0iZmlsbDojRkZGRkZGO3N0cm9rZTojRkZGRkZGO3N0cm9rZS13aWR0aDowLjIxO3N0cm9rZS1saW5lY2FwOnNxdWFyZTtzdHJva2UtbWl0ZXJsaW1pdDozOyIgZD0iICAgICAgIE0wLjg1LDM4LjU4YzAsMC4wOS0wLjE3LDAuMzQtMC40LDAuMzdDMC4yNiwzOC45NywwLjA4LDM4Ljg3LDAsMzguN2MwLTAuMDksMC4xNy0wLjE5LDAuNC0wLjIyUzAuODQsMzguNDgsMC44NSwzOC41OHoiLz4mI3hhOwkJCQk8L2c+JiN4YTsJCQkJPGcgaWQ9InNoYXBlNDk2My0zOCIgdHJhbnNmb3JtPSJ0cmFuc2xhdGUoMTQuNzQ4OCwtOC4yNzc3MikiPiYjeGE7CQkJCQk8dGl0bGUgaWQ9InRpdGxlOTA3OTUiPnBhdGgzNzE0PC90aXRsZT4mI3hhOwkJCQkJPHBhdGggaWQ9InBhdGg5MDc5NyIgaW5rc2NhcGU6Y29ubmVjdG9yLWN1cnZhdHVyZT0iMCIgc3R5bGU9ImZpbGw6bm9uZTsiIGQ9Ik0wLjUsMzMuMzFjMC4wNCwwLjcyLTAuMTUsMS4xOC0wLjE4LDEuOTggICAgICAgQzAuMjksMzYuNDEsMC44NiwzNy42NSwwLDM4Ljk1TDAuNSwzMy4zMXoiLz4mI3hhOwkJCQkJJiN4YTsJCQkJCQk8cGF0aCBpZD0icGF0aDkwNzk5IiBpbmtzY2FwZTpjb25uZWN0b3ItY3VydmF0dXJlPSIwIiBzdHlsZT0iZmlsbDpub25lO3N0cm9rZTojRkZGRkZGO3N0cm9rZS13aWR0aDowLjc2NTtzdHJva2UtbGluZWNhcDpyb3VuZDtzdHJva2UtbGluZWpvaW46cm91bmQ7c3Ryb2tlLW1pdGVybGltaXQ6MzsiIGQ9IiAgICAgICBNMC41LDMzLjMxYzAuMDQsMC43Mi0wLjE1LDEuMTgtMC4xOCwxLjk4QzAuMjksMzYuNDEsMC44NiwzNy42NSwwLDM4Ljk1Ii8+JiN4YTsJCQkJPC9nPiYjeGE7CQkJPC9nPiYjeGE7CQk8L2c+JiN4YTsJPC9nPiYjeGE7PC9nPiYjeGE7PC9zdmc+;fontFamily=Helvetica;fontColor=#FF0000;" parent="1" vertex="1">
          <mxGeometry x="1220.25" y="787.0000000000018" width="29" height="37" as="geometry" />
        </mxCell>
        <mxCell id="n0bJvDlAcugo_qtZuH2x-143" style="edgeStyle=orthogonalEdgeStyle;rounded=0;orthogonalLoop=1;jettySize=auto;html=1;fontFamily=Helvetica;fontColor=#FF0000;" parent="1" source="n0bJvDlAcugo_qtZuH2x-48" target="n0bJvDlAcugo_qtZuH2x-139" edge="1">
          <mxGeometry relative="1" as="geometry" />
        </mxCell>
        <mxCell id="n0bJvDlAcugo_qtZuH2x-48" value="" style="shape=image;verticalLabelPosition=bottom;labelBackgroundColor=#ffffff;verticalAlign=top;aspect=fixed;imageAspect=0;image=https://greenplum.org/wp-content/uploads/2020/06/Greenplum-Horizontal-OnLight-200x50.png;" parent="1" vertex="1">
          <mxGeometry x="1286" y="791.5" width="120" height="30" as="geometry" />
        </mxCell>
        <mxCell id="n0bJvDlAcugo_qtZuH2x-49" value="KUDU&lt;span style=&quot;color: rgba(0 , 0 , 0 , 0) ; font-family: monospace ; font-size: 0px ; font-weight: 400&quot;&gt;%3CmxGraphModel%3E%3Croot%3E%3CmxCell%20id%3D%220%22%2F%3E%3CmxCell%20id%3D%221%22%20parent%3D%220%22%2F%3E%3CmxCell%20id%3D%222%22%20value%3D%22MYSQL%22%20style%3D%22text%3Bhtml%3D1%3BstrokeColor%3Dnone%3BfillColor%3Dnone%3Balign%3Dcenter%3BverticalAlign%3Dmiddle%3BwhiteSpace%3Dwrap%3Brounded%3D0%3BfontFamily%3DHelvetica%3BfontStyle%3D1%3BfontColor%3D%23FF0000%3B%22%20vertex%3D%221%22%20parent%3D%221%22%3E%3CmxGeometry%20x%3D%22175%22%20y%3D%22490%22%20width%3D%22120%22%20height%3D%2210%22%20as%3D%22geometry%22%2F%3E%3C%2FmxCell%3E%3C%2Froot%3E%3C%2FmxGraphModel%3E&lt;/span&gt;" style="text;html=1;strokeColor=none;fillColor=none;align=center;verticalAlign=middle;whiteSpace=wrap;rounded=0;fontFamily=Helvetica;fontStyle=1;fontColor=#FF0000;" parent="1" vertex="1">
          <mxGeometry x="1090.25" y="833" width="120" height="10" as="geometry" />
        </mxCell>
        <mxCell id="n0bJvDlAcugo_qtZuH2x-50" value="PG" style="text;html=1;strokeColor=none;fillColor=none;align=center;verticalAlign=middle;whiteSpace=wrap;rounded=0;fontFamily=Helvetica;fontStyle=1;fontColor=#FF0000;" parent="1" vertex="1">
          <mxGeometry x="1172.25" y="833" width="120" height="10" as="geometry" />
        </mxCell>
        <mxCell id="n0bJvDlAcugo_qtZuH2x-53" value="GREENPLUM&lt;br&gt;" style="text;html=1;strokeColor=none;fillColor=none;align=center;verticalAlign=middle;whiteSpace=wrap;rounded=0;fontFamily=Helvetica;fontStyle=1;fontColor=#FF0000;" parent="1" vertex="1">
          <mxGeometry x="1286" y="833" width="120" height="10" as="geometry" />
        </mxCell>
        <mxCell id="n0bJvDlAcugo_qtZuH2x-54" value="&lt;span style=&quot;font-size: 21px&quot;&gt;Sink端&lt;/span&gt;" style="text;strokeColor=none;fillColor=none;html=1;fontSize=24;fontStyle=1;verticalAlign=middle;align=center;" parent="1" vertex="1">
          <mxGeometry x="810.25" y="835" width="100" height="40" as="geometry" />
        </mxCell>
        <mxCell id="n0bJvDlAcugo_qtZuH2x-55" value="" style="shape=image;html=1;verticalAlign=top;verticalLabelPosition=bottom;labelBackgroundColor=#ffffff;imageAspect=0;aspect=fixed;image=https://cdn1.iconfinder.com/data/icons/simple-icons/128/mysql-128-black.png;fontFamily=Helvetica;fontColor=#FF0000;" parent="1" vertex="1">
          <mxGeometry x="569.75" y="-142" width="50" height="50" as="geometry" />
        </mxCell>
        <mxCell id="n0bJvDlAcugo_qtZuH2x-56" value="User配置中心" style="text;html=1;strokeColor=none;fillColor=none;align=center;verticalAlign=middle;whiteSpace=wrap;rounded=0;fontFamily=Helvetica;fontStyle=1;fontColor=#FF0000;" parent="1" vertex="1">
          <mxGeometry x="534.75" y="-77" width="120" height="10" as="geometry" />
        </mxCell>
        <mxCell id="n0bJvDlAcugo_qtZuH2x-60" value="&lt;font style=&quot;font-size: 11px&quot; color=&quot;#000000&quot;&gt;存储User提交的任务配置&lt;/font&gt;" style="html=1;shadow=0;dashed=0;shape=mxgraph.bootstrap.rrect;rSize=5;strokeColor=#999999;strokeWidth=1;fillColor=#FFFFFF;fontColor=#6C767D;whiteSpace=wrap;align=left;verticalAlign=middle;spacingLeft=10;fontSize=14;spacing=10;" parent="1" vertex="1">
          <mxGeometry x="630.25" y="-140.5" width="85.75" height="48.5" as="geometry" />
        </mxCell>
        <mxCell id="n0bJvDlAcugo_qtZuH2x-61" value="" style="aspect=fixed;html=1;points=[];align=center;image;fontSize=12;image=img/lib/mscae/Cache_Redis_Product.svg;" parent="1" vertex="1">
          <mxGeometry x="760.25" y="-134" width="50" height="42" as="geometry" />
        </mxCell>
        <mxCell id="n0bJvDlAcugo_qtZuH2x-63" value="Flink任务配置中心" style="text;html=1;strokeColor=none;fillColor=none;align=center;verticalAlign=middle;whiteSpace=wrap;rounded=0;fontFamily=Helvetica;fontStyle=1;fontColor=#FF0000;" parent="1" vertex="1">
          <mxGeometry x="725.25" y="-77" width="120" height="10" as="geometry" />
        </mxCell>
        <mxCell id="n0bJvDlAcugo_qtZuH2x-66" value="" style="strokeWidth=1;shadow=0;dashed=0;align=center;html=1;shape=mxgraph.mockup.text.textBox;align=left;fontSize=17;spacingLeft=4;spacingTop=-3;mainText=;verticalAlign=middle;" parent="1" vertex="1">
          <mxGeometry x="14.75" y="763.5" width="635.5" height="216.5" as="geometry" />
        </mxCell>
        <mxCell id="n0bJvDlAcugo_qtZuH2x-67" value="" style="shape=image;verticalLabelPosition=bottom;labelBackgroundColor=#ffffff;verticalAlign=top;aspect=fixed;imageAspect=0;image=https://d3dr9sfxru4sde.cloudfront.net/i/k/apachekudu_logo_0716_345px.png;" parent="1" vertex="1">
          <mxGeometry x="344.75" y="790.5" width="63.73" height="46" as="geometry" />
        </mxCell>
        <mxCell id="n0bJvDlAcugo_qtZuH2x-69" value="KAFKA" style="text;html=1;strokeColor=none;fillColor=none;align=center;verticalAlign=middle;whiteSpace=wrap;rounded=0;fontFamily=Helvetica;fontStyle=1;fontColor=#FF0000;" parent="1" vertex="1">
          <mxGeometry x="149.5" y="836.5" width="120" height="10" as="geometry" />
        </mxCell>
        <mxCell id="n0bJvDlAcugo_qtZuH2x-70" value="" style="shape=image;html=1;verticalAlign=top;verticalLabelPosition=bottom;labelBackgroundColor=#ffffff;imageAspect=0;aspect=fixed;image=https://cdn1.iconfinder.com/data/icons/simple-icons/128/mysql-128-black.png;fontFamily=Helvetica;fontColor=#FF0000;" parent="1" vertex="1">
          <mxGeometry x="264.75" y="780" width="50" height="50" as="geometry" />
        </mxCell>
        <mxCell id="n0bJvDlAcugo_qtZuH2x-71" value="MYSQL" style="text;html=1;strokeColor=none;fillColor=none;align=center;verticalAlign=middle;whiteSpace=wrap;rounded=0;fontFamily=Helvetica;fontStyle=1;fontColor=#FF0000;" parent="1" vertex="1">
          <mxGeometry x="229.75" y="836.5" width="120" height="10" as="geometry" />
        </mxCell>
        <mxCell id="n0bJvDlAcugo_qtZuH2x-72" value="" style="shape=image;verticalLabelPosition=bottom;labelBackgroundColor=#ffffff;verticalAlign=top;aspect=fixed;imageAspect=0;image=data:image/svg+xml,PHN2ZyB4bWxuczpjYz0iaHR0cDovL2NyZWF0aXZlY29tbW9ucy5vcmcvbnMjIiB4bWxuczpkYz0iaHR0cDovL3B1cmwub3JnL2RjL2VsZW1lbnRzLzEuMS8iIHhtbG5zOmlua3NjYXBlPSJodHRwOi8vd3d3Lmlua3NjYXBlLm9yZy9uYW1lc3BhY2VzL2lua3NjYXBlIiB4bWxuczpyZGY9Imh0dHA6Ly93d3cudzMub3JnLzE5OTkvMDIvMjItcmRmLXN5bnRheC1ucyMiIHhtbG5zOnNvZGlwb2RpPSJodHRwOi8vc29kaXBvZGkuc291cmNlZm9yZ2UubmV0L0RURC9zb2RpcG9kaS0wLmR0ZCIgeG1sbnM6c3ZnPSJodHRwOi8vd3d3LnczLm9yZy8yMDAwL3N2ZyIgeG1sbnM9Imh0dHA6Ly93d3cudzMub3JnLzIwMDAvc3ZnIiB4bWxuczp4bGluaz0iaHR0cDovL3d3dy53My5vcmcvMTk5OS94bGluayIgdmVyc2lvbj0iMS4xIiBpZD0ic3ZnOTA4MDciIGlua3NjYXBlOnZlcnNpb249IjAuOTIuMyAoMjQwNTU0NiwgMjAxOC0wMy0xMSkiIHNvZGlwb2RpOmRvY25hbWU9InBvc3RncmVzcWwuc3ZnIiB4PSIwcHgiIHk9IjBweCIgdmlld0JveD0iMCAwIDI4LjUxIDM3LjQ1IiBzdHlsZT0iZW5hYmxlLWJhY2tncm91bmQ6bmV3IDAgMCAyOC41MSAzNy40NTsiIHhtbDpzcGFjZT0icHJlc2VydmUiPiYjeGE7PHNvZGlwb2RpOm5hbWVkdmlldyBib3JkZXJjb2xvcj0iIzY2NjY2NiIgYm9yZGVyb3BhY2l0eT0iMSIgZml0LW1hcmdpbi1ib3R0b209IjAiIGZpdC1tYXJnaW4tbGVmdD0iMCIgZml0LW1hcmdpbi1yaWdodD0iMCIgZml0LW1hcmdpbi10b3A9IjAiIGdyaWR0b2xlcmFuY2U9IjEwIiBndWlkZXRvbGVyYW5jZT0iMTAiIGlkPSJuYW1lZHZpZXc5MDgwOSIgaW5rc2NhcGU6Y3VycmVudC1sYXllcj0ic3ZnOTA4MDciIGlua3NjYXBlOmN4PSIzMy4wMjY1OTYiIGlua3NjYXBlOmN5PSIyMi4yNDk0MjciIGlua3NjYXBlOnBhZ2VvcGFjaXR5PSIwIiBpbmtzY2FwZTpwYWdlc2hhZG93PSIyIiBpbmtzY2FwZTp3aW5kb3ctaGVpZ2h0PSIxMDE3IiBpbmtzY2FwZTp3aW5kb3ctbWF4aW1pemVkPSIxIiBpbmtzY2FwZTp3aW5kb3ctd2lkdGg9IjE5MjAiIGlua3NjYXBlOndpbmRvdy14PSItOCIgaW5rc2NhcGU6d2luZG93LXk9Ii04IiBpbmtzY2FwZTp6b29tPSIxMS44MDQ2MzIiIG9iamVjdHRvbGVyYW5jZT0iMTAiIHBhZ2Vjb2xvcj0iI2ZmZmZmZiIgc2hvd2dyaWQ9ImZhbHNlIj4mI3hhOwk8L3NvZGlwb2RpOm5hbWVkdmlldz4mI3hhOzxnIGlkPSJnOTA4MDUiIHRyYW5zZm9ybT0idHJhbnNsYXRlKC0wLjc1LC0wLjc1MTkpIj4mI3hhOwk8dGl0bGUgaWQ9InRpdGxlOTA3MDUiPlBhZ2UtMTwvdGl0bGU+JiN4YTsJPGcgaWQ9Imdyb3VwNDk0Ni0xIiB0cmFuc2Zvcm09InRyYW5zbGF0ZSgwLjc1LC0wLjc1KSI+JiN4YTsJCTx0aXRsZSBpZD0idGl0bGU5MDcwNyI+UG9zdGdyZVNRTC40OTA8L3RpdGxlPiYjeGE7CQk8ZyBpZD0iZ3JvdXA0OTQ3LTIiPiYjeGE7CQkJPHRpdGxlIGlkPSJ0aXRsZTkwNzA5Ij5DSGVja21hcmtfMjwvdGl0bGU+JiN4YTsJCQk8ZyBpZD0ic2hhcGU0OTQ4LTMiPiYjeGE7CQkJCTx0aXRsZSBpZD0idGl0bGU5MDcxMSI+cGF0aDM2ODY8L3RpdGxlPiYjeGE7CQkJCTxwYXRoIGlkPSJwYXRoOTA3MTMiIGlua3NjYXBlOmNvbm5lY3Rvci1jdXJ2YXR1cmU9IjAiIHN0eWxlPSJmaWxsOiMzOTk4QzU7IiBkPSJNMCw2LjQ4djI3LjQ1YzAsMi44OCw2LjM2LDUuMDIsMTQuMTcsNS4wMiAgICAgIFY2LjQ4SDB6Ii8+JiN4YTsJCQk8L2c+JiN4YTsJCQk8ZyBpZD0ic2hhcGU0OTQ5LTUiIHRyYW5zZm9ybT0idHJhbnNsYXRlKDE0LjE3MDEpIj4mI3hhOwkJCQk8dGl0bGUgaWQ9InRpdGxlOTA3MTYiPnBhdGgzNjg4PC90aXRsZT4mI3hhOwkJCQk8cGF0aCBpZD0icGF0aDkwNzE4IiBpbmtzY2FwZTpjb25uZWN0b3ItY3VydmF0dXJlPSIwIiBzdHlsZT0iZmlsbDojNTlCM0Q4OyIgZD0iTTAsMzguOTVoMC4wOGM3Ljc1LDAsMTQuMDktMi4yNywxNC4wOS01LjE1ICAgICAgVjYuNDhIMFYzOC45NXoiLz4mI3hhOwkJCTwvZz4mI3hhOwkJCTxnIGlkPSJzaGFwZTQ5NTAtNyIgdHJhbnNmb3JtPSJ0cmFuc2xhdGUoMCwtMjcuMTE4MSkiPiYjeGE7CQkJCTx0aXRsZSBpZD0idGl0bGU5MDcyMSI+cGF0aDM2OTA8L3RpdGxlPiYjeGE7CQkJCTxwYXRoIGlkPSJwYXRoOTA3MjMiIGlua3NjYXBlOmNvbm5lY3Rvci1jdXJ2YXR1cmU9IjAiIHN0eWxlPSJmaWxsOiNGRkZGRkY7IiBkPSJNMjguNTEsMzMuNzljMCwyLjgtNi4zOSw1LjE2LTE0LjIyLDUuMTYgICAgICBDNi40NywzOC45NSwwLDM2LjU5LDAsMzMuNzlzNi4zOS01LjE3LDE0LjIyLTUuMTdTMjguNTEsMzAuOTgsMjguNTEsMzMuNzl6Ii8+JiN4YTsJCQk8L2c+JiN4YTsJCQk8ZyBpZD0ic2hhcGU0OTUxLTkiIHRyYW5zZm9ybT0idHJhbnNsYXRlKDIuODg3MTcsLTI5LjE2NjkpIj4mI3hhOwkJCQk8dGl0bGUgaWQ9InRpdGxlOTA3MjYiPnBhdGgzNjkyPC90aXRsZT4mI3hhOwkJCQk8cGF0aCBpZD0icGF0aDkwNzI4IiBpbmtzY2FwZTpjb25uZWN0b3ItY3VydmF0dXJlPSIwIiBzdHlsZT0iZmlsbDojN0ZCOTAwOyIgZD0iTTIyLjc0LDM1LjUzYzAsMS45LTUuMSwzLjQyLTExLjMzLDMuNDIgICAgICBDNS4xNywzOC45NSwwLDM3LjQ2LDAsMzUuNTNjMC0xLjkyLDUuMS0zLjQyLDExLjMzLTMuNDJDMTcuNTcsMzIuMTEsMjIuNzQsMzMuNjMsMjIuNzQsMzUuNTN6Ii8+JiN4YTsJCQk8L2c+JiN4YTsJCQk8ZyBpZD0ic2hhcGU0OTUyLTExIiB0cmFuc2Zvcm09InRyYW5zbGF0ZSgyLjg4NzE3LC0zMC41MzA3KSI+JiN4YTsJCQkJPHRpdGxlIGlkPSJ0aXRsZTkwNzMxIj5wYXRoMzY5NDwvdGl0bGU+JiN4YTsJCQkJPHBhdGggaWQ9InBhdGg5MDczMyIgaW5rc2NhcGU6Y29ubmVjdG9yLWN1cnZhdHVyZT0iMCIgc3R5bGU9ImZpbGw6I0I3RDMzMjsiIGQ9Ik0yMC4zLDM4Ljk1YzEuNTMtMC41OSwyLjM3LTEuMjksMi4zNy0yLjA1ICAgICAgYzAtMS45MS01LjEtMy40Mi0xMS4zMy0zLjQyQzUuMSwzMy40OCwwLDM0Ljk5LDAsMzYuOWMwLDAuNzYsMC45MiwxLjUyLDIuMzYsMi4wNWMyLjA2LTAuODQsNS4zMi0xLjI5LDguOTgtMS4yOSAgICAgIGMzLjA0LTAuMDcsNi4wNywwLjM3LDguOTcsMS4yOUgyMC4zeiIvPiYjeGE7CQkJCTxwYXRoIGlkPSJwYXRoOTA3MzUiIGlua3NjYXBlOmNvbm5lY3Rvci1jdXJ2YXR1cmU9IjAiIHN0eWxlPSJmaWxsOm5vbmU7IiBkPSJNMjAuMywzOC45NWMxLjUzLTAuNTksMi4zNy0xLjI5LDIuMzctMi4wNSAgICAgIGMwLTEuOTEtNS4xLTMuNDItMTEuMzMtMy40MkM1LjEsMzMuNDgsMCwzNC45OSwwLDM2LjljMCwwLjc2LDAuOTIsMS41MiwyLjM2LDIuMDVjMi4wNi0wLjg0LDUuMzItMS4yOSw4Ljk4LTEuMjkgICAgICBjMy4wNC0wLjA3LDYuMDcsMC4zNyw4Ljk3LDEuMjkiLz4mI3hhOwkJCTwvZz4mI3hhOwkJCTxnIGlkPSJncm91cDQ5NTMtMTQiIHRyYW5zZm9ybT0idHJhbnNsYXRlKDQuNjg3OTUsLTQuNjIzMDEpIj4mI3hhOwkJCQk8dGl0bGUgaWQ9InRpdGxlOTA3MzgiPkxheWVyXzM8L3RpdGxlPiYjeGE7CQkJCTxnIGlkPSJzaGFwZTQ5NTQtMTUiIHRyYW5zZm9ybT0idHJhbnNsYXRlKDAuMDM1NDI1NCkiPiYjeGE7CQkJCQk8dGl0bGUgaWQ9InRpdGxlOTA3NDAiPnBhdGgzNjk2PC90aXRsZT4mI3hhOwkJCQkJPHBhdGggaWQ9InBhdGg5MDc0MiIgaW5rc2NhcGU6Y29ubmVjdG9yLWN1cnZhdHVyZT0iMCIgc3R5bGU9ImZpbGw6IzMzNjc5MDsiIGQ9Ik0xNy41NCwzMS42OGMtMi4yNiwwLjQ3LTIuNDItMC4zLTIuNDItMC4zICAgICAgIGMyLjM2LTMuNTQsMy4zOS04LjA1LDIuNTMtOS4xNGMtMi4zNi0zLjAxLTYuNDMtMS41OS02LjUtMS41NWMtMC41LTAuMS0xLTAuMTUtMS41MS0wLjE2Yy0wLjg0LTAuMDQtMS42OCwwLjIxLTIuMzYsMC43MSAgICAgICBjMCwwLTcuMjgtMi45OC02Ljk2LDMuNzdjMC4wNywxLjQ0LDIuMDQsMTAuODcsNC40LDguMDJjMC44Ny0xLjAzLDEuNy0xLjkyLDEuNy0xLjkyYzAuNDIsMC4yOSwwLjkzLDAuNDIsMS40NCwwLjM3bDAuMDQtMC4wNCAgICAgICBjLTAuMDIsMC4xNC0wLjAyLDAuMjcsMCwwLjQxYy0wLjU5LDAuNjgtMC40MywwLjgtMS42NSwxLjA1Yy0xLjIzLDAuMjUtMC41MSwwLjcxLTAuMDQsMC44M2MxLjAzLDAuMzMsMi4xNi0wLjAzLDIuOC0wLjkxICAgICAgIGwtMC4wNCwwLjE0YzAuMjUsMC4xOSwwLjQxLDEuMjQsMC4zOCwyLjJjLTAuMDgsMC43MS0wLjAzLDEuNDMsMC4xNCwyLjEzYzAuMTksMC41MSwwLjM4LDEuNjYsMS45OSwxLjMyICAgICAgIGMxLjM0LTAuMjksMi4wMy0xLjA0LDIuMTMtMi4yOGMwLjA2LTAuODcsMC4yMi0wLjc0LDAuMjQtMS41NGwwLjEyLTAuMzdjMC4xNC0xLjE4LDAtMS41OCwwLjg1LTEuNGgwLjIgICAgICAgYzAuNjQsMC4wMywxLjI4LTAuMDgsMS44Ny0wLjMyYzEuMDEtMC40NiwxLjYtMS4yNCwwLjU5LTEuMDRMMTcuNTQsMzEuNjh6Ii8+JiN4YTsJCQkJPC9nPiYjeGE7CQkJCTxnIGlkPSJzaGFwZTQ5NTUtMTciIHRyYW5zZm9ybT0idHJhbnNsYXRlKDkuMTIyMDMsLTAuMzA3MDIpIj4mI3hhOwkJCQkJPHRpdGxlIGlkPSJ0aXRsZTkwNzQ1Ij5wYXRoMzY5ODwvdGl0bGU+JiN4YTsJCQkJCTxwYXRoIGlkPSJwYXRoOTA3NDciIGlua3NjYXBlOmNvbm5lY3Rvci1jdXJ2YXR1cmU9IjAiIHN0eWxlPSJmaWxsOm5vbmU7IiBkPSJNMC4wNiwzMi42N2MtMC4wNiwyLjIzLDAsNC40NywwLjI0LDUuMDIgICAgICAgYzAuMjMsMC45NSwxLjE5LDEuNTMsMi4xNCwxLjNjMC4wNS0wLjAxLDAuMS0wLjAzLDAuMTUtMC4wNGMxLjM0LTAuMjksMS44My0wLjg0LDIuMDQtMi4wN2MwLjE2LTAuOTEsMC40Ni0zLjQxLDAuNS0zLjkzICAgICAgIEwwLjA2LDMyLjY3eiIvPiYjeGE7CQkJCQkmI3hhOwkJCQkJCTxwYXRoIGlkPSJwYXRoOTA3NDkiIGlua3NjYXBlOmNvbm5lY3Rvci1jdXJ2YXR1cmU9IjAiIHN0eWxlPSJmaWxsOm5vbmU7c3Ryb2tlOiNGRkZGRkY7c3Ryb2tlLXdpZHRoOjAuNzY1O3N0cm9rZS1saW5lY2FwOnJvdW5kO3N0cm9rZS1saW5lam9pbjpyb3VuZDtzdHJva2UtbWl0ZXJsaW1pdDozOyIgZD0iICAgICAgIE0wLjA2LDMyLjY3Yy0wLjA2LDIuMjMsMCw0LjQ3LDAuMjQsNS4wMmMwLjIzLDAuOTUsMS4xOSwxLjUzLDIuMTQsMS4zYzAuMDUtMC4wMSwwLjEtMC4wMywwLjE1LTAuMDQgICAgICAgYzEuMzQtMC4yOSwxLjgzLTAuODQsMi4wNC0yLjA3YzAuMTYtMC45MSwwLjQ2LTMuNDEsMC41LTMuOTMiLz4mI3hhOwkJCQk8L2c+JiN4YTsJCQkJPGcgaWQ9InNoYXBlNDk1Ni0yMCIgdHJhbnNmb3JtPSJ0cmFuc2xhdGUoMCwtMy4wOTM4MSkiPiYjeGE7CQkJCQk8dGl0bGUgaWQ9InRpdGxlOTA3NTIiPnBhdGgzNzAwPC90aXRsZT4mI3hhOwkJCQkJPHBhdGggaWQ9InBhdGg5MDc1NCIgaW5rc2NhcGU6Y29ubmVjdG9yLWN1cnZhdHVyZT0iMCIgc3R5bGU9ImZpbGw6bm9uZTsiIGQ9Ik03LjI3LDI0LjI3YzAsMC03LjI3LTIuOTUtNi45MywzLjc5ICAgICAgIGMwLjA3LDEuNDYsMi4wNiwxMC44OSw0LjQyLDguMDJjMC44Ny0xLjA0LDEuNjUtMS44NiwxLjY1LTEuODZMNy4yNywyNC4yN3oiLz4mI3hhOwkJCQkJJiN4YTsJCQkJCQk8cGF0aCBpZD0icGF0aDkwNzU2IiBpbmtzY2FwZTpjb25uZWN0b3ItY3VydmF0dXJlPSIwIiBzdHlsZT0iZmlsbDpub25lO3N0cm9rZTojRkZGRkZGO3N0cm9rZS13aWR0aDowLjc2NTtzdHJva2UtbGluZWNhcDpyb3VuZDtzdHJva2UtbGluZWpvaW46cm91bmQ7c3Ryb2tlLW1pdGVybGltaXQ6MzsiIGQ9IiAgICAgICBNNy4yNywyNC4yN2MwLDAtNy4yNy0yLjk1LTYuOTMsMy43OWMwLjA3LDEuNDYsMi4wNiwxMC44OSw0LjQyLDguMDJjMC44Ny0xLjA0LDEuNjUtMS44NiwxLjY1LTEuODYiLz4mI3hhOwkJCQk8L2c+JiN4YTsJCQkJPGcgaWQ9InNoYXBlNDk1Ny0yMyIgdHJhbnNmb3JtPSJ0cmFuc2xhdGUoMTAuOTM0NiwtNy41OTg3NCkiPiYjeGE7CQkJCQk8dGl0bGUgaWQ9InRpdGxlOTA3NTkiPnBhdGgzNzAyPC90aXRsZT4mI3hhOwkJCQkJPHBhdGggaWQ9InBhdGg5MDc2MSIgaW5rc2NhcGU6Y29ubmVjdG9yLWN1cnZhdHVyZT0iMCIgc3R5bGU9ImZpbGw6bm9uZTsiIGQ9Ik0wLjI1LDI4LjI2QzAsMjguMzMsNC4yOSwyNi42OSw2Ljc1LDI5LjggICAgICAgYzAuODYsMS4xMS0wLjE0LDUuNjEtMi41Myw5LjE1TDAuMjUsMjguMjZ6Ii8+JiN4YTsJCQkJCSYjeGE7CQkJCQkJPHBhdGggaWQ9InBhdGg5MDc2MyIgaW5rc2NhcGU6Y29ubmVjdG9yLWN1cnZhdHVyZT0iMCIgc3R5bGU9ImZpbGw6bm9uZTtzdHJva2U6I0ZGRkZGRjtzdHJva2Utd2lkdGg6MC43NjU7c3Ryb2tlLWxpbmVjYXA6cm91bmQ7c3Ryb2tlLWxpbmVqb2luOnJvdW5kO3N0cm9rZS1taXRlcmxpbWl0OjM7IiBkPSIgICAgICAgTTAuMjUsMjguMjZDMCwyOC4zMyw0LjI5LDI2LjY5LDYuNzUsMjkuOGMwLjg2LDEuMTEtMC4xNCw1LjYxLTIuNTMsOS4xNSIvPiYjeGE7CQkJCTwvZz4mI3hhOwkJCQk8ZyBpZD0ic2hhcGU0OTU4LTI2IiB0cmFuc2Zvcm09InRyYW5zbGF0ZSg1LjI5MDE5LC01Ljc4MDI0KSI+JiN4YTsJCQkJCTx0aXRsZSBpZD0idGl0bGU5MDc2NiI+cGF0aDM3MDQ8L3RpdGxlPiYjeGE7CQkJCQk8cGF0aCBpZD0icGF0aDkwNzY4IiBpbmtzY2FwZTpjb25uZWN0b3ItY3VydmF0dXJlPSIwIiBzdHlsZT0iZmlsbDpub25lOyIgZD0iTTkuODUsMzcuMTNjMCwwLDAuMTYsMC43NywyLjQyLDAuMyAgICAgICBjMS0wLjIsMC40LDAuNTktMC41OSwxLjA0Yy0wLjgyLDAuMzktMi42NywwLjQ4LTIuNy0wLjA0Yy0wLjA4LTEuMzcsMC45Ny0wLjk2LDAuOS0xLjNjLTAuMDgtMC4zNC0wLjU0LTAuNTktMC44NS0xLjM2ICAgICAgIGMtMC4yNy0wLjY2LTMuNzMtNS43MSwwLjk1LTQuOTZjMC4xOC0wLjAzLTEuMjItNC40NS01LjYtNC41MkMwLDI2LjIyLDAuMTIsMzEuNjgsMC4xMiwzMS42OEw5Ljg1LDM3LjEzeiIvPiYjeGE7CQkJCQkmI3hhOwkJCQkJCTxwYXRoIGlkPSJwYXRoOTA3NzAiIGlua3NjYXBlOmNvbm5lY3Rvci1jdXJ2YXR1cmU9IjAiIHN0eWxlPSJmaWxsOm5vbmU7c3Ryb2tlOiNGRkZGRkY7c3Ryb2tlLXdpZHRoOjAuNzY1O3N0cm9rZS1saW5lY2FwOnJvdW5kO3N0cm9rZS1saW5lam9pbjpyb3VuZDtzdHJva2UtbWl0ZXJsaW1pdDozOyIgZD0iICAgICAgIE05Ljg1LDM3LjEzYzAsMCwwLjE2LDAuNzcsMi40MiwwLjNjMS0wLjIsMC40LDAuNTktMC41OSwxLjA0Yy0wLjgyLDAuMzktMi42NywwLjQ4LTIuNy0wLjA0Yy0wLjA4LTEuMzcsMC45Ny0wLjk2LDAuOS0xLjMgICAgICAgYy0wLjA4LTAuMzQtMC41NC0wLjU5LTAuODUtMS4zNmMtMC4yNy0wLjY2LTMuNzMtNS43MSwwLjk1LTQuOTZjMC4xOC0wLjAzLTEuMjItNC40NS01LjYtNC41MkMwLDI2LjIyLDAuMTIsMzEuNjgsMC4xMiwzMS42OCIvPiYjeGE7CQkJCTwvZz4mI3hhOwkJCQk8ZyBpZD0ic2hhcGU0OTU5LTI5IiB0cmFuc2Zvcm09InRyYW5zbGF0ZSg1LjA4OTQ0LC01LjI2NjU3KSI+JiN4YTsJCQkJCTx0aXRsZSBpZD0idGl0bGU5MDc3MyI+cGF0aDM3MDY8L3RpdGxlPiYjeGE7CQkJCQkmI3hhOwkJCQkJCTxwYXRoIGlkPSJwYXRoOTA3NzUiIGlua3NjYXBlOmNvbm5lY3Rvci1jdXJ2YXR1cmU9IjAiIHN0eWxlPSJmaWxsOm5vbmU7c3Ryb2tlOiNGRkZGRkY7c3Ryb2tlLXdpZHRoOjAuNzY1O3N0cm9rZS1saW5lY2FwOnJvdW5kO3N0cm9rZS1saW5lam9pbjpyb3VuZDtzdHJva2UtbWl0ZXJsaW1pdDozOyIgZD0iICAgICAgIE0yLjg4LDM3LjA3Yy0wLjYsMC42OS0wLjQ0LDAuODEtMS42NiwxLjA1QzAsMzguMzcsMC43MSwzOC44MywxLjE5LDM4Ljk1YzEuMDMsMC4zMywyLjE2LTAuMDMsMi44LTAuOTEgICAgICAgYzAuMjItMC40MSwwLjA2LTAuOTItMC4zNS0xLjEzYzAsMCwwLDAsMCwwbC0wLjAzLDBjLTAuMjUtMC4xNC0wLjU4LTAuMDctMC43NCwwLjE4TDIuODgsMzcuMDd6Ii8+JiN4YTsJCQkJPC9nPiYjeGE7CQkJCTxnIGlkPSJzaGFwZTQ5NjAtMzEiIHRyYW5zZm9ybT0idHJhbnNsYXRlKDUuMzQ5MjMsLTcuMTQ0MTEpIj4mI3hhOwkJCQkJPHRpdGxlIGlkPSJ0aXRsZTkwNzc4Ij5wYXRoMzcwODwvdGl0bGU+JiN4YTsJCQkJCTxwYXRoIGlkPSJwYXRoOTA3ODAiIGlua3NjYXBlOmNvbm5lY3Rvci1jdXJ2YXR1cmU9IjAiIHN0eWxlPSJmaWxsOm5vbmU7IiBkPSJNMi41NywzOC45NWMwLTAuNSwwLjEyLTAuOTksMC4zNC0xLjQzICAgICAgIGMwLjMxLTAuODQsMS4wMy0xLjY4LDAuNDYtNC4zNGMtMC40NC0xLjk4LTMuMzEtMC40MS0zLjMxLTAuMTRDMC4xMywzMy45MiwwLjExLDM0LjgsMCwzNS42N2MtMC4yNSwxLjM1LDAuNjQsMi42NCwxLjk5LDIuODkgICAgICAgYzAuMTgsMC4wMywwLjM3LDAuMDUsMC41NSwwLjA0TDIuNTcsMzguOTV6Ii8+JiN4YTsJCQkJCSYjeGE7CQkJCQkJPHBhdGggaWQ9InBhdGg5MDc4MiIgaW5rc2NhcGU6Y29ubmVjdG9yLWN1cnZhdHVyZT0iMCIgc3R5bGU9ImZpbGw6bm9uZTtzdHJva2U6I0ZGRkZGRjtzdHJva2Utd2lkdGg6MC43NjU7c3Ryb2tlLWxpbmVjYXA6cm91bmQ7c3Ryb2tlLWxpbmVqb2luOnJvdW5kO3N0cm9rZS1taXRlcmxpbWl0OjM7IiBkPSIgICAgICAgTTIuNTcsMzguOTVjMC0wLjUsMC4xMi0wLjk5LDAuMzQtMS40M2MwLjMxLTAuODQsMS4wMy0xLjY4LDAuNDYtNC4zNGMtMC40NC0xLjk4LTMuMzEtMC40MS0zLjMxLTAuMTQgICAgICAgQzAuMTMsMzMuOTIsMC4xMSwzNC44LDAsMzUuNjdjLTAuMjUsMS4zNSwwLjY0LDIuNjQsMS45OSwyLjg5YzAuMTgsMC4wMywwLjM3LDAuMDUsMC41NSwwLjA0Ii8+JiN4YTsJCQkJPC9nPiYjeGE7CQkJCTxnIGlkPSJzaGFwZTQ5NjEtMzQiIHRyYW5zZm9ybT0idHJhbnNsYXRlKDcuMjM4NTgsLTEyLjcyMzYpIj4mI3hhOwkJCQkJPHRpdGxlIGlkPSJ0aXRsZTkwNzg1Ij5wYXRoMzcxMDwvdGl0bGU+JiN4YTsJCQkJCSYjeGE7CQkJCQkJPHBhdGggaWQ9InBhdGg5MDc4NyIgaW5rc2NhcGU6Y29ubmVjdG9yLWN1cnZhdHVyZT0iMCIgc3R5bGU9ImZpbGw6I0ZGRkZGRjtzdHJva2U6I0ZGRkZGRjtzdHJva2Utd2lkdGg6MC40MTI1O3N0cm9rZS1saW5lY2FwOnNxdWFyZTtzdHJva2UtbWl0ZXJsaW1pdDozOyIgZD0iICAgICAgIE0wLDM4LjU4YzAsMC4wOSwwLjE3LDAuMzQsMC40LDAuMzdjMC4xOSwwLjAyLDAuMzctMC4wOCwwLjQ1LTAuMjVjMC0wLjA5LTAuMTctMC4xOS0wLjQtMC4yMlMwLjAxLDM4LjQ4LDAsMzguNTh6Ii8+JiN4YTsJCQkJPC9nPiYjeGE7CQkJCTxnIGlkPSJzaGFwZTQ5NjItMzYiIHRyYW5zZm9ybT0idHJhbnNsYXRlKDEzLjU2MiwtMTIuOTEyNSkiPiYjeGE7CQkJCQk8dGl0bGUgaWQ9InRpdGxlOTA3OTAiPnBhdGgzNzEyPC90aXRsZT4mI3hhOwkJCQkJJiN4YTsJCQkJCQk8cGF0aCBpZD0icGF0aDkwNzkyIiBpbmtzY2FwZTpjb25uZWN0b3ItY3VydmF0dXJlPSIwIiBzdHlsZT0iZmlsbDojRkZGRkZGO3N0cm9rZTojRkZGRkZGO3N0cm9rZS13aWR0aDowLjIxO3N0cm9rZS1saW5lY2FwOnNxdWFyZTtzdHJva2UtbWl0ZXJsaW1pdDozOyIgZD0iICAgICAgIE0wLjg1LDM4LjU4YzAsMC4wOS0wLjE3LDAuMzQtMC40LDAuMzdDMC4yNiwzOC45NywwLjA4LDM4Ljg3LDAsMzguN2MwLTAuMDksMC4xNy0wLjE5LDAuNC0wLjIyUzAuODQsMzguNDgsMC44NSwzOC41OHoiLz4mI3hhOwkJCQk8L2c+JiN4YTsJCQkJPGcgaWQ9InNoYXBlNDk2My0zOCIgdHJhbnNmb3JtPSJ0cmFuc2xhdGUoMTQuNzQ4OCwtOC4yNzc3MikiPiYjeGE7CQkJCQk8dGl0bGUgaWQ9InRpdGxlOTA3OTUiPnBhdGgzNzE0PC90aXRsZT4mI3hhOwkJCQkJPHBhdGggaWQ9InBhdGg5MDc5NyIgaW5rc2NhcGU6Y29ubmVjdG9yLWN1cnZhdHVyZT0iMCIgc3R5bGU9ImZpbGw6bm9uZTsiIGQ9Ik0wLjUsMzMuMzFjMC4wNCwwLjcyLTAuMTUsMS4xOC0wLjE4LDEuOTggICAgICAgQzAuMjksMzYuNDEsMC44NiwzNy42NSwwLDM4Ljk1TDAuNSwzMy4zMXoiLz4mI3hhOwkJCQkJJiN4YTsJCQkJCQk8cGF0aCBpZD0icGF0aDkwNzk5IiBpbmtzY2FwZTpjb25uZWN0b3ItY3VydmF0dXJlPSIwIiBzdHlsZT0iZmlsbDpub25lO3N0cm9rZTojRkZGRkZGO3N0cm9rZS13aWR0aDowLjc2NTtzdHJva2UtbGluZWNhcDpyb3VuZDtzdHJva2UtbGluZWpvaW46cm91bmQ7c3Ryb2tlLW1pdGVybGltaXQ6MzsiIGQ9IiAgICAgICBNMC41LDMzLjMxYzAuMDQsMC43Mi0wLjE1LDEuMTgtMC4xOCwxLjk4QzAuMjksMzYuNDEsMC44NiwzNy42NSwwLDM4Ljk1Ii8+JiN4YTsJCQkJPC9nPiYjeGE7CQkJPC9nPiYjeGE7CQk8L2c+JiN4YTsJPC9nPiYjeGE7PC9nPiYjeGE7PC9zdmc+;fontFamily=Helvetica;fontColor=#FF0000;" parent="1" vertex="1">
          <mxGeometry x="444.75" y="790.5000000000018" width="29" height="37" as="geometry" />
        </mxCell>
        <mxCell id="n0bJvDlAcugo_qtZuH2x-73" value="" style="shape=image;verticalLabelPosition=bottom;labelBackgroundColor=#ffffff;verticalAlign=top;aspect=fixed;imageAspect=0;image=https://greenplum.org/wp-content/uploads/2020/06/Greenplum-Horizontal-OnLight-200x50.png;" parent="1" vertex="1">
          <mxGeometry x="510.5" y="795" width="120" height="30" as="geometry" />
        </mxCell>
        <mxCell id="n0bJvDlAcugo_qtZuH2x-74" value="KUDU&lt;span style=&quot;color: rgba(0 , 0 , 0 , 0) ; font-family: monospace ; font-size: 0px ; font-weight: 400&quot;&gt;%3CmxGraphModel%3E%3Croot%3E%3CmxCell%20id%3D%220%22%2F%3E%3CmxCell%20id%3D%221%22%20parent%3D%220%22%2F%3E%3CmxCell%20id%3D%222%22%20value%3D%22MYSQL%22%20style%3D%22text%3Bhtml%3D1%3BstrokeColor%3Dnone%3BfillColor%3Dnone%3Balign%3Dcenter%3BverticalAlign%3Dmiddle%3BwhiteSpace%3Dwrap%3Brounded%3D0%3BfontFamily%3DHelvetica%3BfontStyle%3D1%3BfontColor%3D%23FF0000%3B%22%20vertex%3D%221%22%20parent%3D%221%22%3E%3CmxGeometry%20x%3D%22175%22%20y%3D%22490%22%20width%3D%22120%22%20height%3D%2210%22%20as%3D%22geometry%22%2F%3E%3C%2FmxCell%3E%3C%2Froot%3E%3C%2FmxGraphModel%3E&lt;/span&gt;" style="text;html=1;strokeColor=none;fillColor=none;align=center;verticalAlign=middle;whiteSpace=wrap;rounded=0;fontFamily=Helvetica;fontStyle=1;fontColor=#FF0000;" parent="1" vertex="1">
          <mxGeometry x="314.75" y="836.5" width="120" height="10" as="geometry" />
        </mxCell>
        <mxCell id="n0bJvDlAcugo_qtZuH2x-75" value="PG" style="text;html=1;strokeColor=none;fillColor=none;align=center;verticalAlign=middle;whiteSpace=wrap;rounded=0;fontFamily=Helvetica;fontStyle=1;fontColor=#FF0000;" parent="1" vertex="1">
          <mxGeometry x="396.75" y="836.5" width="120" height="10" as="geometry" />
        </mxCell>
        <mxCell id="n0bJvDlAcugo_qtZuH2x-76" value="GREENPLUM&lt;br&gt;" style="text;html=1;strokeColor=none;fillColor=none;align=center;verticalAlign=middle;whiteSpace=wrap;rounded=0;fontFamily=Helvetica;fontStyle=1;fontColor=#FF0000;" parent="1" vertex="1">
          <mxGeometry x="510.5" y="836.5" width="120" height="10" as="geometry" />
        </mxCell>
        <mxCell id="n0bJvDlAcugo_qtZuH2x-77" value="&lt;span style=&quot;font-size: 21px&quot;&gt;Source端&lt;/span&gt;" style="text;strokeColor=none;fillColor=none;html=1;fontSize=24;fontStyle=1;verticalAlign=middle;align=center;" parent="1" vertex="1">
          <mxGeometry x="34.75" y="846.5" width="100" height="40" as="geometry" />
        </mxCell>
        <mxCell id="n0bJvDlAcugo_qtZuH2x-78" value="" style="shape=image;verticalLabelPosition=bottom;labelBackgroundColor=#ffffff;verticalAlign=top;aspect=fixed;imageAspect=0;image=https://ss0.bdstatic.com/94oJfD_bAAcT8t7mm9GUKT-xh_/timg?image&amp;quality=100&amp;size=b4000_4000&amp;sec=1606893749&amp;di=55286b4d66e9780b4ddeb0bd8487a532&amp;src=http://dingyue.ws.126.net/RG8o6b89RdD6oymMrGaR432qsBgrYkln=6OBerod020FU1559623941054.jpg;" parent="1" vertex="1">
          <mxGeometry x="181" y="776" width="57" height="57" as="geometry" />
        </mxCell>
        <mxCell id="n0bJvDlAcugo_qtZuH2x-79" value="" style="shape=image;verticalLabelPosition=bottom;labelBackgroundColor=#000000;verticalAlign=top;aspect=fixed;imageAspect=0;image=https://debezium.io/assets/images/color_white_debezium_type_600px.svg;" parent="1" vertex="1">
          <mxGeometry x="123.98000000000002" y="-140.5" width="230.77" height="50" as="geometry" />
        </mxCell>
        <mxCell id="n0bJvDlAcugo_qtZuH2x-81" value="动态根据配置全量/增量拉取mysql/mongo/pg数据" style="text;html=1;strokeColor=none;fillColor=none;align=center;verticalAlign=middle;whiteSpace=wrap;rounded=0;fontFamily=Helvetica;fontStyle=1;fontColor=#FF0000;" parent="1" vertex="1">
          <mxGeometry x="144.75" y="-67" width="135.5" height="10" as="geometry" />
        </mxCell>
        <mxCell id="n0bJvDlAcugo_qtZuH2x-87" value="&lt;font style=&quot;font-size: 18px&quot;&gt;根据thoth提交任务传入的main#args解析对应的key，去redis中获取相关配置，然后组成Flink Job。&lt;/font&gt;" style="text;html=1;strokeColor=none;fillColor=none;align=center;verticalAlign=middle;whiteSpace=wrap;rounded=0;fontFamily=Helvetica;fontColor=#FF0000;" parent="1" vertex="1">
          <mxGeometry x="748" y="165" width="342.25" height="140" as="geometry" />
        </mxCell>
        <mxCell id="n0bJvDlAcugo_qtZuH2x-91" value="" style="shape=image;verticalLabelPosition=bottom;labelBackgroundColor=#ffffff;verticalAlign=top;aspect=fixed;imageAspect=0;image=https://hive.apache.org/images/hive_logo_medium.jpg;" parent="1" vertex="1">
          <mxGeometry x="171.5" y="880" width="65.14" height="60" as="geometry" />
        </mxCell>
        <mxCell id="n0bJvDlAcugo_qtZuH2x-92" value="HIVE" style="text;html=1;strokeColor=none;fillColor=none;align=center;verticalAlign=middle;whiteSpace=wrap;rounded=0;fontFamily=Helvetica;fontStyle=1;fontColor=#FF0000;" parent="1" vertex="1">
          <mxGeometry x="149.5" y="960" width="120" height="10" as="geometry" />
        </mxCell>
        <mxCell id="n0bJvDlAcugo_qtZuH2x-94" value="HIVE" style="text;html=1;strokeColor=none;fillColor=none;align=center;verticalAlign=middle;whiteSpace=wrap;rounded=0;fontFamily=Helvetica;fontStyle=1;fontColor=#FF0000;" parent="1" vertex="1">
          <mxGeometry x="933.82" y="950" width="120" height="10" as="geometry" />
        </mxCell>
        <mxCell id="n0bJvDlAcugo_qtZuH2x-141" style="edgeStyle=orthogonalEdgeStyle;rounded=0;orthogonalLoop=1;jettySize=auto;html=1;fontFamily=Helvetica;fontColor=#FF0000;" parent="1" source="n0bJvDlAcugo_qtZuH2x-95" target="n0bJvDlAcugo_qtZuH2x-139" edge="1">
          <mxGeometry relative="1" as="geometry">
            <Array as="points">
              <mxPoint x="1109" y="1040" />
              <mxPoint x="1949" y="1040" />
            </Array>
          </mxGeometry>
        </mxCell>
        <mxCell id="n0bJvDlAcugo_qtZuH2x-95" value="" style="shape=image;verticalLabelPosition=bottom;labelBackgroundColor=#ffffff;verticalAlign=top;aspect=fixed;imageAspect=0;image=https://ss0.bdstatic.com/94oJfD_bAAcT8t7mm9GUKT-xh_/timg?image&amp;quality=100&amp;size=b4000_4000&amp;sec=1606893749&amp;di=55286b4d66e9780b4ddeb0bd8487a532&amp;src=http://dingyue.ws.126.net/RG8o6b89RdD6oymMrGaR432qsBgrYkln=6OBerod020FU1559623941054.jpg;" parent="1" vertex="1">
          <mxGeometry x="1080.25" y="875" width="57" height="57" as="geometry" />
        </mxCell>
        <mxCell id="n0bJvDlAcugo_qtZuH2x-96" value="KAFKA" style="text;html=1;strokeColor=none;fillColor=none;align=center;verticalAlign=middle;whiteSpace=wrap;rounded=0;fontFamily=Helvetica;fontStyle=1;fontColor=#FF0000;" parent="1" vertex="1">
          <mxGeometry x="1052.25" y="940" width="120" height="10" as="geometry" />
        </mxCell>
        <mxCell id="n0bJvDlAcugo_qtZuH2x-97" value="" style="aspect=fixed;html=1;points=[];align=center;image;fontSize=12;image=img/lib/mscae/Cache_Redis_Product.svg;" parent="1" vertex="1">
          <mxGeometry x="299.75" y="889" width="50" height="42" as="geometry" />
        </mxCell>
        <mxCell id="n0bJvDlAcugo_qtZuH2x-98" value="" style="aspect=fixed;html=1;points=[];align=center;image;fontSize=12;image=img/lib/mscae/Cache_Redis_Product.svg;" parent="1" vertex="1">
          <mxGeometry x="1183.98" y="880" width="50" height="42" as="geometry" />
        </mxCell>
        <mxCell id="n0bJvDlAcugo_qtZuH2x-99" value="REDIS" style="text;html=1;strokeColor=none;fillColor=none;align=center;verticalAlign=middle;whiteSpace=wrap;rounded=0;fontFamily=Helvetica;fontStyle=1;fontColor=#FF0000;" parent="1" vertex="1">
          <mxGeometry x="1148.98" y="940" width="120" height="10" as="geometry" />
        </mxCell>
        <mxCell id="n0bJvDlAcugo_qtZuH2x-100" value="REDIS" style="text;html=1;strokeColor=none;fillColor=none;align=center;verticalAlign=middle;whiteSpace=wrap;rounded=0;fontFamily=Helvetica;fontStyle=1;fontColor=#FF0000;" parent="1" vertex="1">
          <mxGeometry x="260.25" y="960" width="120" height="10" as="geometry" />
        </mxCell>
        <mxCell id="n0bJvDlAcugo_qtZuH2x-103" value="&lt;span style=&quot;font-size: 18px&quot;&gt;动态启动debezium拉取业务源数据，更新任务配置，catalog配置，flink任务部署参数配置等&lt;/span&gt;" style="text;html=1;strokeColor=none;fillColor=none;align=center;verticalAlign=middle;whiteSpace=wrap;rounded=0;fontFamily=Helvetica;fontColor=#FF0000;" parent="1" vertex="1">
          <mxGeometry x="-27.5" y="-30" width="342.25" height="140" as="geometry" />
        </mxCell>
        <mxCell id="n0bJvDlAcugo_qtZuH2x-93" value="" style="shape=image;verticalLabelPosition=bottom;labelBackgroundColor=#ffffff;verticalAlign=top;aspect=fixed;imageAspect=0;image=https://hive.apache.org/images/hive_logo_medium.jpg;" parent="1" vertex="1">
          <mxGeometry x="961.25" y="880" width="65.14" height="60" as="geometry" />
        </mxCell>
        <mxCell id="n0bJvDlAcugo_qtZuH2x-104" value="" style="strokeWidth=1;shadow=0;dashed=0;align=center;html=1;shape=mxgraph.mockup.text.textBox;align=left;fontSize=17;spacingLeft=4;spacingTop=-3;mainText=;verticalAlign=middle;" parent="1" vertex="1">
          <mxGeometry x="-166.77" y="450" width="326.77" height="290" as="geometry" />
        </mxCell>
        <mxCell id="n0bJvDlAcugo_qtZuH2x-105" value="&lt;b&gt;&lt;font style=&quot;font-size: 16px&quot;&gt;CDH集群&lt;br&gt;&lt;/font&gt;&lt;/b&gt;" style="text;html=1;strokeColor=none;fillColor=none;align=center;verticalAlign=middle;whiteSpace=wrap;rounded=0;fontFamily=Helvetica;fontColor=#FF0000;" parent="1" vertex="1">
          <mxGeometry x="-69.25" y="470" width="101" height="10" as="geometry" />
        </mxCell>
        <mxCell id="n0bJvDlAcugo_qtZuH2x-107" value="&lt;span style=&quot;background-color: rgb(255 , 255 , 255)&quot;&gt;&lt;font color=&quot;#000000&quot; size=&quot;1&quot;&gt;&lt;b style=&quot;font-size: 17px&quot;&gt;YARN&lt;/b&gt;&lt;/font&gt;&lt;/span&gt;" style="rounded=1;whiteSpace=wrap;html=1;strokeWidth=2;fillWeight=4;hachureGap=8;hachureAngle=45;fillColor=#1ba1e2;sketch=1;labelBackgroundColor=#000000;fontFamily=Helvetica;fontColor=#FF0000;" parent="1" vertex="1">
          <mxGeometry x="-129.27" y="520" width="215.75" height="70" as="geometry" />
        </mxCell>
        <mxCell id="n0bJvDlAcugo_qtZuH2x-110" value="&lt;span style=&quot;background-color: rgb(255 , 255 , 255)&quot;&gt;&lt;font color=&quot;#000000&quot; size=&quot;1&quot;&gt;&lt;b style=&quot;font-size: 17px&quot;&gt;HDFS&lt;/b&gt;&lt;/font&gt;&lt;/span&gt;" style="rounded=1;whiteSpace=wrap;html=1;strokeWidth=2;fillWeight=4;hachureGap=8;hachureAngle=45;fillColor=#1ba1e2;sketch=1;labelBackgroundColor=#000000;fontFamily=Helvetica;fontColor=#FF0000;" parent="1" vertex="1">
          <mxGeometry x="-150" y="620" width="80.75" height="90" as="geometry" />
        </mxCell>
        <mxCell id="n0bJvDlAcugo_qtZuH2x-112" value="&lt;span style=&quot;background-color: rgb(255 , 255 , 255)&quot;&gt;&lt;font color=&quot;#000000&quot; size=&quot;1&quot;&gt;&lt;b style=&quot;font-size: 17px&quot;&gt;Hive&lt;/b&gt;&lt;/font&gt;&lt;/span&gt;" style="rounded=1;whiteSpace=wrap;html=1;strokeWidth=2;fillWeight=4;hachureGap=8;hachureAngle=45;fillColor=#1ba1e2;sketch=1;labelBackgroundColor=#000000;fontFamily=Helvetica;fontColor=#FF0000;" parent="1" vertex="1">
          <mxGeometry x="-49.75" y="620" width="80.75" height="90" as="geometry" />
        </mxCell>
        <mxCell id="n0bJvDlAcugo_qtZuH2x-113" value="&lt;span style=&quot;background-color: rgb(255 , 255 , 255)&quot;&gt;&lt;font color=&quot;#000000&quot; size=&quot;1&quot;&gt;&lt;b style=&quot;font-size: 17px&quot;&gt;Impala&lt;br&gt;&lt;/b&gt;&lt;/font&gt;&lt;/span&gt;" style="rounded=1;whiteSpace=wrap;html=1;strokeWidth=2;fillWeight=4;hachureGap=8;hachureAngle=45;fillColor=#1ba1e2;sketch=1;labelBackgroundColor=#000000;fontFamily=Helvetica;fontColor=#FF0000;" parent="1" vertex="1">
          <mxGeometry x="43.23" y="620" width="96.77" height="90" as="geometry" />
        </mxCell>
        <mxCell id="n0bJvDlAcugo_qtZuH2x-116" value="&lt;span style=&quot;background-color: rgb(255 , 255 , 255) ; font-size: 15px&quot;&gt;submit job&lt;/span&gt;" style="text;html=1;strokeColor=none;fillColor=none;align=center;verticalAlign=middle;whiteSpace=wrap;rounded=0;labelBackgroundColor=#000000;fontFamily=Helvetica;fontColor=#FF0000;" parent="1" vertex="1">
          <mxGeometry x="300" y="242.5" width="180" height="20" as="geometry" />
        </mxCell>
        <mxCell id="n0bJvDlAcugo_qtZuH2x-120" value="&lt;span style=&quot;font-size: 15px ; background-color: rgb(255 , 255 , 255)&quot;&gt;deploy job to yarn&lt;/span&gt;" style="text;html=1;strokeColor=none;fillColor=none;align=center;verticalAlign=middle;whiteSpace=wrap;rounded=0;labelBackgroundColor=#000000;fontFamily=Helvetica;fontColor=#FF0000;" parent="1" vertex="1">
          <mxGeometry x="349.75" y="360" width="180" height="20" as="geometry" />
        </mxCell>
        <mxCell id="n0bJvDlAcugo_qtZuH2x-121" value="" style="shape=image;verticalLabelPosition=bottom;labelBackgroundColor=#ffffff;verticalAlign=top;aspect=fixed;imageAspect=0;image=https://gethue.com//img/hue-logo.svg;" parent="1" vertex="1">
          <mxGeometry x="1430" y="-192.5" width="211.54" height="55" as="geometry" />
        </mxCell>
        <mxCell id="n0bJvDlAcugo_qtZuH2x-137" style="edgeStyle=orthogonalEdgeStyle;rounded=0;orthogonalLoop=1;jettySize=auto;html=1;fontFamily=Helvetica;fontColor=#FF0000;" parent="1" source="n0bJvDlAcugo_qtZuH2x-124" target="n0bJvDlAcugo_qtZuH2x-127" edge="1">
          <mxGeometry relative="1" as="geometry" />
        </mxCell>
        <mxCell id="n0bJvDlAcugo_qtZuH2x-124" value="" style="outlineConnect=0;fontColor=#232F3E;gradientColor=none;fillColor=#232F3E;strokeColor=none;dashed=0;verticalLabelPosition=bottom;verticalAlign=top;align=center;html=1;fontSize=12;fontStyle=0;aspect=fixed;pointerEvents=1;shape=mxgraph.aws4.user;" parent="1" vertex="1">
          <mxGeometry x="1950" y="2.5" width="78" height="78" as="geometry" />
        </mxCell>
        <mxCell id="n0bJvDlAcugo_qtZuH2x-129" value="&lt;span style=&quot;font-size: 21px&quot;&gt;Adhoc&lt;/span&gt;" style="text;strokeColor=none;fillColor=none;html=1;fontSize=24;fontStyle=1;verticalAlign=middle;align=center;" parent="1" vertex="1">
          <mxGeometry x="1480" y="-290" width="100" height="40" as="geometry" />
        </mxCell>
        <mxCell id="n0bJvDlAcugo_qtZuH2x-130" value="&lt;span style=&quot;font-size: 18px&quot;&gt;分析师/数据开发/数仓开发&lt;/span&gt;" style="text;html=1;strokeColor=none;fillColor=none;align=center;verticalAlign=middle;whiteSpace=wrap;rounded=0;fontFamily=Helvetica;fontColor=#FF0000;" parent="1" vertex="1">
          <mxGeometry x="1880" y="109.5" width="230" height="60" as="geometry" />
        </mxCell>
        <mxCell id="n0bJvDlAcugo_qtZuH2x-131" value="" style="shape=image;verticalLabelPosition=bottom;labelBackgroundColor=#ffffff;verticalAlign=top;aspect=fixed;imageAspect=0;image=http://impala.apache.org/img/impala-logo.png;" parent="1" vertex="1">
          <mxGeometry x="1480" y="-100" width="76.32" height="143" as="geometry" />
        </mxCell>
        <mxCell id="n0bJvDlAcugo_qtZuH2x-134" value="Impala" style="text;html=1;strokeColor=none;fillColor=none;align=center;verticalAlign=middle;whiteSpace=wrap;rounded=0;fontFamily=Helvetica;fontStyle=1;fontColor=#FF0000;" parent="1" vertex="1">
          <mxGeometry x="1458.1599999999999" y="70" width="120" height="10" as="geometry" />
        </mxCell>
        <mxCell id="n0bJvDlAcugo_qtZuH2x-135" value="Hue" style="text;html=1;strokeColor=none;fillColor=none;align=center;verticalAlign=middle;whiteSpace=wrap;rounded=0;fontFamily=Helvetica;fontStyle=1;fontColor=#FF0000;" parent="1" vertex="1">
          <mxGeometry x="1459.9999999999998" y="-120" width="120" height="10" as="geometry" />
        </mxCell>
        <mxCell id="n0bJvDlAcugo_qtZuH2x-139" value="" style="outlineConnect=0;fontColor=#232F3E;gradientColor=none;fillColor=#232F3E;strokeColor=none;dashed=0;verticalLabelPosition=bottom;verticalAlign=top;align=center;html=1;fontSize=12;fontStyle=0;aspect=fixed;pointerEvents=1;shape=mxgraph.aws4.user;" parent="1" vertex="1">
          <mxGeometry x="1910" y="560" width="78" height="78" as="geometry" />
        </mxCell>
        <mxCell id="n0bJvDlAcugo_qtZuH2x-140" value="&lt;span style=&quot;font-size: 18px&quot;&gt;数据使用方（算法/后端等）&lt;/span&gt;" style="text;html=1;strokeColor=none;fillColor=none;align=center;verticalAlign=middle;whiteSpace=wrap;rounded=0;fontFamily=Helvetica;fontColor=#FF0000;" parent="1" vertex="1">
          <mxGeometry x="1834" y="670" width="230" height="60" as="geometry" />
        </mxCell>
        <mxCell id="n0bJvDlAcugo_qtZuH2x-142" value="&lt;span style=&quot;font-size: 18px&quot;&gt;最终计算或者聚合的数据可以直接塞进kafka或GREENPLUM提供给适用方&lt;/span&gt;" style="text;html=1;strokeColor=none;fillColor=none;align=center;verticalAlign=middle;whiteSpace=wrap;rounded=0;fontFamily=Helvetica;fontColor=#FF0000;" parent="1" vertex="1">
          <mxGeometry x="1520" y="860" width="342.25" height="140" as="geometry" />
        </mxCell>
        <mxCell id="Xi6bH_yzBcoCQl9ouXm8-3" value="" style="shape=image;verticalLabelPosition=bottom;labelBackgroundColor=#ffffff;verticalAlign=top;aspect=fixed;imageAspect=0;image=https://grafana.com/static/assets/internal/grafana_logo-web-dark.svg;" parent="1" vertex="1">
          <mxGeometry x="1411.6699999999998" y="433.27" width="224.9" height="36.73" as="geometry" />
        </mxCell>
        <mxCell id="Xi6bH_yzBcoCQl9ouXm8-8" value="" style="shape=image;verticalLabelPosition=bottom;labelBackgroundColor=#ffffff;verticalAlign=top;aspect=fixed;imageAspect=0;image=https://ss0.bdstatic.com/70cFuHSh_Q1YnxGkpoWK1HF6hhy/it/u=4020511596,4231972052&amp;fm=26&amp;gp=0.jpg;" parent="1" vertex="1">
          <mxGeometry x="1418.24" y="530" width="211.76" height="90" as="geometry" />
        </mxCell>
        <mxCell id="Xi6bH_yzBcoCQl9ouXm8-9" value="&lt;span style=&quot;font-size: 21px&quot;&gt;任务状态监控&lt;/span&gt;" style="text;strokeColor=none;fillColor=none;html=1;fontSize=24;fontStyle=1;verticalAlign=middle;align=center;" parent="1" vertex="1">
          <mxGeometry x="1470" y="242.5" width="100" height="40" as="geometry" />
        </mxCell>
      </root>
    </mxGraphModel>
  </diagram>
  <diagram id="MxbgPtJgAIOxT1zdaDVF" name="万物大数据平台整体架构图">
    <mxGraphModel dx="2607" dy="987" grid="1" gridSize="10" guides="1" tooltips="1" connect="1" arrows="1" fold="1" page="1" pageScale="1" pageWidth="827" pageHeight="1169" math="0" shadow="0">
      <root>
        <mxCell id="aocchPwdhaU5hymfWSkV-0" />
        <mxCell id="aocchPwdhaU5hymfWSkV-1" parent="aocchPwdhaU5hymfWSkV-0" />
        <mxCell id="bZblGZG74BMrXFc8ttLO-42" value="" style="rounded=0;whiteSpace=wrap;html=1;shadow=0;fillColor=#FFFFFF;" vertex="1" parent="aocchPwdhaU5hymfWSkV-1">
          <mxGeometry x="-60" y="250" width="850" height="850" as="geometry" />
        </mxCell>
        <mxCell id="bZblGZG74BMrXFc8ttLO-12" value="" style="rounded=0;whiteSpace=wrap;html=1;" vertex="1" parent="aocchPwdhaU5hymfWSkV-1">
          <mxGeometry x="-30" y="270" width="740" height="520" as="geometry" />
        </mxCell>
        <mxCell id="bZblGZG74BMrXFc8ttLO-11" value="" style="rounded=0;whiteSpace=wrap;html=1;" vertex="1" parent="aocchPwdhaU5hymfWSkV-1">
          <mxGeometry x="10" y="310" width="170" height="460" as="geometry" />
        </mxCell>
        <mxCell id="bZblGZG74BMrXFc8ttLO-6" value="统一数据采集平台" style="rounded=0;whiteSpace=wrap;html=1;fillColor=#00FF00;" vertex="1" parent="aocchPwdhaU5hymfWSkV-1">
          <mxGeometry x="30" y="340" width="130" height="60" as="geometry" />
        </mxCell>
        <mxCell id="bZblGZG74BMrXFc8ttLO-7" value="一站式部署平台" style="rounded=0;whiteSpace=wrap;html=1;fillColor=#FF3333;" vertex="1" parent="aocchPwdhaU5hymfWSkV-1">
          <mxGeometry x="30" y="510" width="130" height="60" as="geometry" />
        </mxCell>
        <mxCell id="bZblGZG74BMrXFc8ttLO-8" value="统一实时数仓开发平台" style="rounded=0;whiteSpace=wrap;html=1;fillColor=#FF3333;" vertex="1" parent="aocchPwdhaU5hymfWSkV-1">
          <mxGeometry x="30" y="420" width="130" height="60" as="geometry" />
        </mxCell>
        <mxCell id="bZblGZG74BMrXFc8ttLO-14" value="&lt;font style=&quot;font-size: 24px&quot;&gt;&lt;b&gt;万物大数据平台&lt;/b&gt;&lt;/font&gt;" style="text;html=1;strokeColor=none;fillColor=none;align=center;verticalAlign=middle;whiteSpace=wrap;rounded=0;" vertex="1" parent="aocchPwdhaU5hymfWSkV-1">
          <mxGeometry x="200" y="190" width="200" as="geometry" />
        </mxCell>
        <mxCell id="bZblGZG74BMrXFc8ttLO-15" value="数据研发平台" style="text;html=1;strokeColor=none;fillColor=none;align=center;verticalAlign=middle;whiteSpace=wrap;rounded=0;" vertex="1" parent="aocchPwdhaU5hymfWSkV-1">
          <mxGeometry x="57.5" y="280" width="85" height="20" as="geometry" />
        </mxCell>
        <mxCell id="bZblGZG74BMrXFc8ttLO-19" value="" style="rounded=0;whiteSpace=wrap;html=1;shadow=1;fillColor=#FF3333;" vertex="1" parent="aocchPwdhaU5hymfWSkV-1">
          <mxGeometry x="-250" y="410" width="70" height="20" as="geometry" />
        </mxCell>
        <mxCell id="bZblGZG74BMrXFc8ttLO-20" value="doing" style="text;html=1;strokeColor=none;fillColor=none;align=center;verticalAlign=middle;whiteSpace=wrap;rounded=0;shadow=1;" vertex="1" parent="aocchPwdhaU5hymfWSkV-1">
          <mxGeometry x="-235" y="410" width="40" height="20" as="geometry" />
        </mxCell>
        <mxCell id="bZblGZG74BMrXFc8ttLO-21" value="" style="rounded=0;whiteSpace=wrap;html=1;shadow=1;fillColor=#FFFF33;" vertex="1" parent="aocchPwdhaU5hymfWSkV-1">
          <mxGeometry x="-250" y="460" width="70" height="20" as="geometry" />
        </mxCell>
        <mxCell id="bZblGZG74BMrXFc8ttLO-22" value="todo" style="text;html=1;strokeColor=none;fillColor=none;align=center;verticalAlign=middle;whiteSpace=wrap;rounded=0;shadow=1;" vertex="1" parent="aocchPwdhaU5hymfWSkV-1">
          <mxGeometry x="-235" y="460" width="40" height="20" as="geometry" />
        </mxCell>
        <mxCell id="bZblGZG74BMrXFc8ttLO-24" value="" style="rounded=0;whiteSpace=wrap;html=1;shadow=1;fillColor=#33FF33;" vertex="1" parent="aocchPwdhaU5hymfWSkV-1">
          <mxGeometry x="-250" y="510" width="70" height="20" as="geometry" />
        </mxCell>
        <mxCell id="bZblGZG74BMrXFc8ttLO-25" value="finshed" style="text;html=1;strokeColor=none;fillColor=#33FF33;align=center;verticalAlign=middle;whiteSpace=wrap;rounded=0;shadow=0;" vertex="1" parent="aocchPwdhaU5hymfWSkV-1">
          <mxGeometry x="-235" y="510" width="40" height="20" as="geometry" />
        </mxCell>
        <mxCell id="bZblGZG74BMrXFc8ttLO-27" value="TODO" style="rounded=0;whiteSpace=wrap;html=1;fillColor=#FFFF66;" vertex="1" parent="aocchPwdhaU5hymfWSkV-1">
          <mxGeometry x="30" y="610" width="130" height="60" as="geometry" />
        </mxCell>
        <mxCell id="bZblGZG74BMrXFc8ttLO-28" value="" style="rounded=0;whiteSpace=wrap;html=1;" vertex="1" parent="aocchPwdhaU5hymfWSkV-1">
          <mxGeometry x="450" y="310" width="170" height="460" as="geometry" />
        </mxCell>
        <mxCell id="bZblGZG74BMrXFc8ttLO-9" value="统一任务监控告警中心" style="rounded=0;whiteSpace=wrap;html=1;fillColor=#FFFF66;" vertex="1" parent="aocchPwdhaU5hymfWSkV-1">
          <mxGeometry x="470" y="440" width="130" height="60" as="geometry" />
        </mxCell>
        <mxCell id="bZblGZG74BMrXFc8ttLO-31" value="监控平台" style="text;html=1;strokeColor=none;fillColor=none;align=center;verticalAlign=middle;whiteSpace=wrap;rounded=0;shadow=0;" vertex="1" parent="aocchPwdhaU5hymfWSkV-1">
          <mxGeometry x="530" y="285" width="80" height="10" as="geometry" />
        </mxCell>
        <mxCell id="bZblGZG74BMrXFc8ttLO-10" value="可视化监控大盘" style="rounded=0;whiteSpace=wrap;html=1;fillColor=#FF0000;" vertex="1" parent="aocchPwdhaU5hymfWSkV-1">
          <mxGeometry x="470" y="340" width="130" height="60" as="geometry" />
        </mxCell>
        <mxCell id="bZblGZG74BMrXFc8ttLO-32" value="数据监控中心" style="rounded=0;whiteSpace=wrap;html=1;fillColor=#FFFF66;" vertex="1" parent="aocchPwdhaU5hymfWSkV-1">
          <mxGeometry x="470" y="540" width="130" height="60" as="geometry" />
        </mxCell>
        <mxCell id="bZblGZG74BMrXFc8ttLO-33" value="数据资产平台" style="text;html=1;strokeColor=none;fillColor=none;align=center;verticalAlign=middle;whiteSpace=wrap;rounded=0;" vertex="1" parent="aocchPwdhaU5hymfWSkV-1">
          <mxGeometry x="270" y="280" width="85" height="20" as="geometry" />
        </mxCell>
        <mxCell id="bZblGZG74BMrXFc8ttLO-34" value="" style="rounded=0;whiteSpace=wrap;html=1;" vertex="1" parent="aocchPwdhaU5hymfWSkV-1">
          <mxGeometry x="240" y="315" width="160" height="455" as="geometry" />
        </mxCell>
        <mxCell id="bZblGZG74BMrXFc8ttLO-35" value="统一元数据中心" style="rounded=0;whiteSpace=wrap;html=1;fillColor=#FF3333;" vertex="1" parent="aocchPwdhaU5hymfWSkV-1">
          <mxGeometry x="260" y="347" width="130" height="60" as="geometry" />
        </mxCell>
        <mxCell id="bZblGZG74BMrXFc8ttLO-36" value="数据血缘" style="rounded=0;whiteSpace=wrap;html=1;fillColor=#FFFF33;" vertex="1" parent="aocchPwdhaU5hymfWSkV-1">
          <mxGeometry x="260" y="440" width="130" height="60" as="geometry" />
        </mxCell>
        <mxCell id="bZblGZG74BMrXFc8ttLO-37" value="数据地图" style="rounded=0;whiteSpace=wrap;html=1;fillColor=#FFFF33;" vertex="1" parent="aocchPwdhaU5hymfWSkV-1">
          <mxGeometry x="260" y="525" width="130" height="60" as="geometry" />
        </mxCell>
        <mxCell id="bZblGZG74BMrXFc8ttLO-38" value="数据权限" style="rounded=0;whiteSpace=wrap;html=1;fillColor=#FFFF33;" vertex="1" parent="aocchPwdhaU5hymfWSkV-1">
          <mxGeometry x="260" y="610" width="130" height="60" as="geometry" />
        </mxCell>
        <mxCell id="bZblGZG74BMrXFc8ttLO-40" value="TODO" style="rounded=0;whiteSpace=wrap;html=1;fillColor=#FFFF66;" vertex="1" parent="aocchPwdhaU5hymfWSkV-1">
          <mxGeometry x="260" y="700" width="130" height="60" as="geometry" />
        </mxCell>
        <mxCell id="bZblGZG74BMrXFc8ttLO-41" value="TODO" style="rounded=0;whiteSpace=wrap;html=1;fillColor=#FFFF66;" vertex="1" parent="aocchPwdhaU5hymfWSkV-1">
          <mxGeometry x="470" y="650" width="130" height="60" as="geometry" />
        </mxCell>
        <mxCell id="bZblGZG74BMrXFc8ttLO-44" value="&lt;font style=&quot;font-size: 18px&quot;&gt;&lt;b&gt;平台层&lt;/b&gt;&lt;/font&gt;" style="text;html=1;strokeColor=none;fillColor=none;align=center;verticalAlign=middle;whiteSpace=wrap;rounded=0;shadow=0;" vertex="1" parent="aocchPwdhaU5hymfWSkV-1">
          <mxGeometry x="740" y="400" width="20" height="180" as="geometry" />
        </mxCell>
        <mxCell id="bZblGZG74BMrXFc8ttLO-48" value="" style="rounded=0;whiteSpace=wrap;html=1;" vertex="1" parent="aocchPwdhaU5hymfWSkV-1">
          <mxGeometry x="-30" y="840" width="750" height="240" as="geometry" />
        </mxCell>
        <mxCell id="bZblGZG74BMrXFc8ttLO-49" value="&lt;span style=&quot;font-size: 18px&quot;&gt;&lt;b&gt;基础引擎层&lt;/b&gt;&lt;/span&gt;" style="text;html=1;strokeColor=none;fillColor=none;align=center;verticalAlign=middle;whiteSpace=wrap;rounded=0;shadow=0;" vertex="1" parent="aocchPwdhaU5hymfWSkV-1">
          <mxGeometry x="750" y="850" width="20" height="180" as="geometry" />
        </mxCell>
        <mxCell id="5gThxUhAOAxE8Aua1_zc-3" value="" style="rounded=0;whiteSpace=wrap;html=1;shadow=0;fillColor=#FFFFFF;" vertex="1" parent="aocchPwdhaU5hymfWSkV-1">
          <mxGeometry x="-17.5" y="880" width="167.5" height="190" as="geometry" />
        </mxCell>
        <mxCell id="5gThxUhAOAxE8Aua1_zc-5" value="离线计算" style="text;html=1;strokeColor=none;fillColor=none;align=center;verticalAlign=middle;whiteSpace=wrap;rounded=0;shadow=0;" vertex="1" parent="aocchPwdhaU5hymfWSkV-1">
          <mxGeometry x="30" y="850" width="60" height="20" as="geometry" />
        </mxCell>
        <mxCell id="5gThxUhAOAxE8Aua1_zc-8" value="Flink SQL" style="rounded=0;whiteSpace=wrap;html=1;shadow=0;fillColor=#FF0000;" vertex="1" parent="aocchPwdhaU5hymfWSkV-1">
          <mxGeometry x="-10" y="900" width="70" height="30" as="geometry" />
        </mxCell>
        <mxCell id="5gThxUhAOAxE8Aua1_zc-9" value="Spark SQL" style="rounded=0;whiteSpace=wrap;html=1;shadow=0;fillColor=#FF0000;" vertex="1" parent="aocchPwdhaU5hymfWSkV-1">
          <mxGeometry x="-10" y="955" width="70" height="30" as="geometry" />
        </mxCell>
        <mxCell id="5gThxUhAOAxE8Aua1_zc-10" value="Presto" style="rounded=0;whiteSpace=wrap;html=1;shadow=0;fillColor=#FF0000;" vertex="1" parent="aocchPwdhaU5hymfWSkV-1">
          <mxGeometry x="72.5" y="955" width="70" height="30" as="geometry" />
        </mxCell>
        <mxCell id="5gThxUhAOAxE8Aua1_zc-11" value="Impala" style="rounded=0;whiteSpace=wrap;html=1;shadow=0;fillColor=#FF0000;" vertex="1" parent="aocchPwdhaU5hymfWSkV-1">
          <mxGeometry x="-10" y="1000" width="70" height="30" as="geometry" />
        </mxCell>
        <mxCell id="5gThxUhAOAxE8Aua1_zc-12" value="Hive" style="rounded=0;whiteSpace=wrap;html=1;shadow=0;fillColor=#FF0000;" vertex="1" parent="aocchPwdhaU5hymfWSkV-1">
          <mxGeometry x="72.5" y="900" width="70" height="30" as="geometry" />
        </mxCell>
        <mxCell id="5gThxUhAOAxE8Aua1_zc-13" value="实时计算" style="text;html=1;strokeColor=none;fillColor=none;align=center;verticalAlign=middle;whiteSpace=wrap;rounded=0;shadow=0;" vertex="1" parent="aocchPwdhaU5hymfWSkV-1">
          <mxGeometry x="210" y="850" width="60" height="20" as="geometry" />
        </mxCell>
        <mxCell id="5gThxUhAOAxE8Aua1_zc-19" value="" style="rounded=0;whiteSpace=wrap;html=1;shadow=0;fillColor=#FFFFFF;" vertex="1" parent="aocchPwdhaU5hymfWSkV-1">
          <mxGeometry x="170" y="880" width="167.5" height="190" as="geometry" />
        </mxCell>
        <mxCell id="5gThxUhAOAxE8Aua1_zc-17" value="Flink" style="rounded=0;whiteSpace=wrap;html=1;shadow=0;fillColor=#FF0000;" vertex="1" parent="aocchPwdhaU5hymfWSkV-1">
          <mxGeometry x="218.75" y="925" width="70" height="30" as="geometry" />
        </mxCell>
        <mxCell id="5gThxUhAOAxE8Aua1_zc-18" value="Kafka" style="rounded=0;whiteSpace=wrap;html=1;shadow=0;fillColor=#FF0000;" vertex="1" parent="aocchPwdhaU5hymfWSkV-1">
          <mxGeometry x="218.75" y="980" width="70" height="30" as="geometry" />
        </mxCell>
        <mxCell id="5gThxUhAOAxE8Aua1_zc-20" value="" style="rounded=0;whiteSpace=wrap;html=1;shadow=0;fillColor=#FFFFFF;" vertex="1" parent="aocchPwdhaU5hymfWSkV-1">
          <mxGeometry x="361" y="880" width="166" height="190" as="geometry" />
        </mxCell>
        <mxCell id="5gThxUhAOAxE8Aua1_zc-21" value="计算调度" style="text;html=1;strokeColor=none;fillColor=none;align=center;verticalAlign=middle;whiteSpace=wrap;rounded=0;shadow=0;" vertex="1" parent="aocchPwdhaU5hymfWSkV-1">
          <mxGeometry x="414" y="850" width="60" height="20" as="geometry" />
        </mxCell>
        <mxCell id="5gThxUhAOAxE8Aua1_zc-23" value="Yarn" style="rounded=0;whiteSpace=wrap;html=1;shadow=0;fillColor=#FF0000;" vertex="1" parent="aocchPwdhaU5hymfWSkV-1">
          <mxGeometry x="414" y="925" width="70" height="30" as="geometry" />
        </mxCell>
        <mxCell id="5gThxUhAOAxE8Aua1_zc-24" value="Kerbunetes" style="rounded=0;whiteSpace=wrap;html=1;shadow=0;fillColor=#FF0000;" vertex="1" parent="aocchPwdhaU5hymfWSkV-1">
          <mxGeometry x="414" y="980" width="70" height="30" as="geometry" />
        </mxCell>
        <mxCell id="5gThxUhAOAxE8Aua1_zc-26" value="" style="rounded=0;whiteSpace=wrap;html=1;shadow=0;fillColor=#FFFFFF;" vertex="1" parent="aocchPwdhaU5hymfWSkV-1">
          <mxGeometry x="544" y="880" width="166" height="190" as="geometry" />
        </mxCell>
        <mxCell id="5gThxUhAOAxE8Aua1_zc-27" value="存储引擎" style="text;html=1;strokeColor=none;fillColor=none;align=center;verticalAlign=middle;whiteSpace=wrap;rounded=0;shadow=0;" vertex="1" parent="aocchPwdhaU5hymfWSkV-1">
          <mxGeometry x="597" y="850" width="60" height="20" as="geometry" />
        </mxCell>
        <mxCell id="5gThxUhAOAxE8Aua1_zc-28" value="HDFS" style="rounded=0;whiteSpace=wrap;html=1;shadow=0;fillColor=#FF0000;" vertex="1" parent="aocchPwdhaU5hymfWSkV-1">
          <mxGeometry x="550" y="900" width="70" height="30" as="geometry" />
        </mxCell>
        <mxCell id="5gThxUhAOAxE8Aua1_zc-29" value="JindoFS" style="rounded=0;whiteSpace=wrap;html=1;shadow=0;fillColor=#FF0000;" vertex="1" parent="aocchPwdhaU5hymfWSkV-1">
          <mxGeometry x="550" y="955" width="70" height="30" as="geometry" />
        </mxCell>
        <mxCell id="5gThxUhAOAxE8Aua1_zc-30" value="Kudu" style="rounded=0;whiteSpace=wrap;html=1;shadow=0;fillColor=#FF0000;" vertex="1" parent="aocchPwdhaU5hymfWSkV-1">
          <mxGeometry x="550" y="1010" width="70" height="30" as="geometry" />
        </mxCell>
        <mxCell id="5gThxUhAOAxE8Aua1_zc-32" value="Greenplum" style="rounded=0;whiteSpace=wrap;html=1;shadow=0;fillColor=#FF0000;" vertex="1" parent="aocchPwdhaU5hymfWSkV-1">
          <mxGeometry x="630" y="900" width="70" height="30" as="geometry" />
        </mxCell>
        <mxCell id="5gThxUhAOAxE8Aua1_zc-33" value="ElasticSearch" style="rounded=0;whiteSpace=wrap;html=1;shadow=0;fillColor=#FF0000;" vertex="1" parent="aocchPwdhaU5hymfWSkV-1">
          <mxGeometry x="630" y="955" width="70" height="30" as="geometry" />
        </mxCell>
      </root>
    </mxGraphModel>
  </diagram>
</mxfile>
